<mxfile host="app.diagrams.net" modified="2024-01-12T16:14:29.244Z" agent="Mozilla/5.0 (Windows NT 10.0; Win64; x64) AppleWebKit/537.36 (KHTML, like Gecko) Chrome/120.0.0.0 Safari/537.36 Edg/120.0.0.0" etag="lDI53jsbteo7tn1xFd_t" version="22.1.18" type="device">
  <diagram name="Page-1" id="ssUkSdCe4jF6P7bZgYdm">
    <mxGraphModel dx="417" dy="228" grid="1" gridSize="10" guides="1" tooltips="1" connect="1" arrows="1" fold="1" page="1" pageScale="1" pageWidth="827" pageHeight="1169" math="0" shadow="0">
      <root>
        <mxCell id="0" />
        <mxCell id="1" parent="0" />
        <mxCell id="Ob4h8jc2TSaWr1J6BAKR-1" value="" style="shape=image;verticalLabelPosition=bottom;labelBackgroundColor=default;verticalAlign=top;aspect=fixed;imageAspect=0;image=data:image/png,iVBORw0KGgoAAAANSUhEUgAAAjcAAAEVCAYAAAAcpMQOAAAAAXNSR0IArs4c6QAAAARnQU1BAACxjwv8YQUAAAAJcEhZcwAADsMAAA7DAcdvqGQAAABhaVRYdFNuaXBNZXRhZGF0YQAAAAAAeyJjbGlwUG9pbnRzIjpbeyJ4IjowLCJ5IjowfSx7IngiOjU2NywieSI6MH0seyJ4Ijo1NjcsInkiOjI3N30seyJ4IjowLCJ5IjoyNzd9XX2dTO6RAAD/OElEQVR4Xux9B2Bb13X2h70B7i1K1N6StSXvvWeGHWc5w3F27LRpRpfT1EmTpuNv2sw2aZxRO4lnvJds2bKsvSdFiXsCBLE38H/nASBBipRIyZZk+X3yM4GHd94d595zvnPvffdpWltbMxgDiUQCbrcbZWVlMBgMubPjgyo7fiSTSfT19Z20rKRbUlICo9GYOzs+qLLjRyqVUmSLiopgMplyZ8cHVXb8yMu6XC6Yzebc2fEhnU4rsk6nU5U9AU5FNpPJKLJ2ux0WiyV3dnxQZScG8QsnKyvpWq1W5ZgozgVZrfJ/FSpUqFChQoWKcwQquVGhQoUKFSpUnFNQyY0KFSpUqFCh4pyCSm5UqFChQoUKFecUVHKjQoUKFe9m9Jmw8RUH/vknrtzhwLO79eiI5n4/WSQ1SHqMeOMZJ37xS9731w789ytm7PAB0VTuGhUqzlKo5OY4iA7o0bLbgufWnvh4/jUbXn2rWPl7zO+bjDjcp0U8d18VKs52ZFJaRHsc2LRplPa804Amt2o6zjw0QMyMQ5tteOyPDvzoV078+Dd2PLvdgKNeDaLp3GUniURQh66dNvzpTw789NdO/OhB/n3Uij9t1sNN4qTyGxVnM1QLdRx4j5qw9tdluOcbZfjM149/fP5blfj692Yof4/5/Yd2PLVLD3/uvirOFOgM2ORTcQ1Cfi36vTzCGmTG3Azh7YQGqYT2DKR7ckjF9OjeMAn//C+jtOf/suGJXTokcteeEWRYnzEtAgM6eHxa+E51lOJdiExKh2BLGR56yoZXtuqgN6ZQXhvD7V/04cYVCUw77tO00h4pL/U3oMXAKPUX9Oqx+1U71h/Voi/CEwEdevea8MifrGgPqsGairMbKrlR8R6CkBsTPIdteOG3Rfj+fzjxvdd0iCazv75zyKbb32TDi7/LpvvAqzqEzyg7OB40SCT02LPHBD/J2DHYY0RHqx6Hc19PP+iYkwZ077XhkZ8W4x9/bsMvt+hyv71XoEUsasafflyK9QdM6EUadTOiuPs7/bhtZgo1x91eiMQ6ZYCnsQyP/08ZvvszO3628b1WfyrOdWh27NgxZvwoGz3J5nSy4ZlGIwZ6/JDNi+Lx+Ltatmd3CdY+Mgnf3yi/5S46GUzqx+c+5sEHLgyjJHeqEPl0ZQM/rXZifFOVHR9ibhuat1fgJ69rEAmaMODVIV4cwvSrOvEPl8dhMRxfwSedrseGFqb7U6YbknT7mW5RCFOv6mK6MdiMJ05X+qBerz+pujop2Tjz2VqMH36nHBvcWniOmX9IY/n1PXjf+3pxTU3uVAHeyTyH24qwc3spHtpqRDSgRV+vFtrp/Tj/yj7cuyZ2+uuKOP2yOng7HNj4eA1+9YoeLaEU6pf246ob3LjuvAQqSGz0Y5i+SIcLe1h/v91sRNAL9HuY7lQfVlzZg69fNHwsJhExou9oMX5CArThiB5uXRzlM324/NpefGhhBDUOHQwTLK9A+tHJ1JXgVGV1Op1yTBSq7Phxtshq9u3bN6Z1ld1Cw+EwbDbbhBvT2yErOw1OtJBvp2yoz4rWQ0XY2EkjlLtGkIpoEThkxeO7aFyDOStiYvhf68dHVmlR7RphWZxhnDcvjNl1cYy2F6iQyFAodFJ5PpOyUleyc+a7QTbcasfO5yvxpUeMCOdsePH0IFbc0oMHrozDeoKNoU863TYbdj9fhS8z3UAse65oagjLb+1mugnYT0Bu8unKLrJi1CeCk5UNdVuw/5VyfPv3VrSFNYjbMjDrM3D52N75uyzlKKMzvfYGD7558bHDXuKwpV2dTJ5PJOvbW4wXninF3z87pLCqpV5ce5MHf3lB/B1L93gQWaln2Y359MhqEeo34/AWFzZ1hwGDHvUzo5g9N4TJJ9jI1n+gCGufKcM3nxqqv4rFPlx1Ux++dcnIoUQtUkkzdm5y4GifDn5tEs7KCObO8aMKYTgsJ19eCSAlUJgIzpSsQNqGKjs+SD2L3JmWVV+/UIDxysa9enTSQNzzkB77e3JExkHPtbwNT3zBgPMmTYzMyWsB1NcvjA8nKxtqNmP7U8W4mzoL5chNCR3Cmg948cPrkickN0J8Jd2JvlIg1ELnwHQ/87Ae/ty6huIZUazOpWs/QRFONl3Byclq0bHTgqd+VIL/tw8ICnepTaLKkcG8dgPeCAExsRi1UVx8TRD/fk8ExYrUEN6OPI/1+oWBXXY884QD3/jzkFOtXhnETbcFSLTiiux75TUIJyPr22vDi0868dXHhuqvamkI177Pj29fMb75WSEKku575TUIZ0pWoL5+YfwYKau777777lc+jYJ85CcXn2yEfS7KpqJaBBqteGqPFu5QfuQmpYzcfGiF7tiRmzGQTmoQDWvhGwC6+hJIpGwIRQxkzRrEEhqkeRsdvYZ2xO1k5MgnC1P9Ov5lB3DTW5vMMDDPmTh/8+n4G/MoiwBZDINGg2RUh24PzwV1POQ3DULJNDRJRo0GGyJRAwbkfgG5Jvs7swAt5fND3CneOxjSKtd5fdKY4ojDwkheBxmc05+gutMsUIx15/Nq4O6jbNKqlDcQ1CDINKNRjfIEhtxLyj0aFB2xYDptNs++QEGeeYTDrNM4y0sHbKT9TseyddXTYUTLQRNePKgFi63A6EyhvD6O88o1iLBOZQ1MWpuBqSAYTfJeEZY54GeeexOIFeQ5wPNR6hCajJLnQj1JG5H1Kj2dRrTm0o3npndMBelGx0hXQLuIONPv64kzH5KuET6lnEybfyXPSlnGqHsxrNKexfGNO8JOGtC8z4LHf2/EEd5bsmxkXqc1JHGxxoAt/RrEJc0A4LKmUX9RHJN468JpkHy6BjDPYSM8bI95/URSGWiYX+OI/MbZD/wDOrh9rGdPAvGEGSk2Pi1Jp+Q8FWGb9rE+m004wPp848hQA7GWJ1E3KYnZrgz6KJvWm6A36I5JQ2l/yiJktmPqxs++4M/Vpz+gwcBADDqjiQGGbvT2R/k0+1GPl22K7U4pE9tbUBpbIsz0LNSXEd4R/SjOnzXMiyF3T1lYHmZ55boBtivpv/E0y8uSatgOmPwYYJ+MZdtjUO4v7Yuy0bhZ6QtB3jOWkk47oj0yfak/r9RfqxEHWX/rmoYKaClLoob1N78k167IcZR8ML1kWIc+KW/ObgRZnlgmTVvAdmU6NrJP0WiITZO8BaRvUiZfx5K/KOsqwboym0eRFf2ILPMZHCkrfY3BQShCWYsJJuncE4S0SQmICtMVmxaWckl7yKWp6I1phmiPpH/pjRmWaRRZ1rUiy/weI8tySN8VGx6PycjcKKMgbAdi9/rY7rNyPGizpc8Z2KFkwXw3/UIoakKYR4B+IcBzYnKkfY5lI/NQ+iDTPCbdceBckFVHbgpwukduvDKasN6CZ9Ya8WKLyGiUtT7FdH5zZzO6vz6EaxYkUWYfrqKeV4rxoz+b8dRereJI5Jh5ywDuWZ1GRZ8Fv33EhpdbaYvrwvjMR0O4fZ4G3g0O3PlTIwlFLr81MdRf4MWPrumAzj0FT73hwtOb9Gjrzv6MSTFcdmMQ7784ijUSmhM9+5x47BXml9e1dGXT1dQncPlFEbz/Ql43Lee9x8CAz4CdGy146Y8WHGZ5mzM01Mq6qDSNVQoz6lNYdU0IVyyPY3Z1joGMQDLGaPVgAB2t1Vi7x4F1+/RozeeZqC5LYersOOYtD+NTV8Tge7MIP2FdPbqdRkHIGdWUr02NjgbclIGNqpZsyAjADdcH8YVV+XLo0LzLhG1vmLB9hwFNzfzOPIdzeTZakpi5OoYbrwrj/Jl0sPaslKB3XRF+9mcL/rQtly75J6tLwch0q5Yz3RuC+OLq4fUXpkM6esSEP/7ciM6jZjTTsfYqv8iNkpham8KS86O4+KIoLpx5bN2f1AhKmxUvPWfHZ39hUp6GkpTmXeXHdSznkiPF+Pyf9PAKaSZKpkdxwZ1ePMCI31UwcJBPN7FnMn77YhEe2jbkrRuuHsDHr43glrmF+tVh9zMOPPYHGx6RKWASWI0mjQtuDeKDt4dwgY1G/qUS3P+4ARuP6JCQp90Klodo9RkYWZ8W1qfITr3Gj48xjdvmDW9DvoAB+7ab8bxMt7Xq0Mi+kH2CkfRcl8SUqhDWXJvElWuSWFg3SvsbMKB/q5P9yIRukjAFZQm41gwo/agkXIO1m4rx6HoDjnZkf0Z1HKuuZh+8OoxLS7On3I12PPeaVbnuCK8Twq6pTWD16ig+eEkEl80eqx/pcWAD2+ObJuzZY0BLhx4HKZtgI9KQYNtLE5izJobbmN7ySWmU5YL9NOtL6u+7Txqx7tAY9UcHbs2NIk6+3Ic7rw3j5io9mqm/+x7To4skTGCvYd+6uR9fWtyNaVXHjih4DluwaZ0Fr79hQGu7Hod4LptUGvaSBGazjB+6toU20oqSkbJeIza/asE69leRbeS57ExuGjbpa1NIwM7vwI0X6DGzZmIjvmKrpE0WjoJkyDy699iw9kUTtm5jffbpChbJp1A2OYE1l0dx9+1B2kg3igtl2TG6+8x49TELtq4zoXmkbFEK8+ZR99dSF1XdqC23HTv60mTH/z1lxfefLvA1lVFcf2MI91yXRHq3C//ONr+9Ucgl699Mezs5icuv9+MjS+NYXD66jcxDyiuBuhwTxbkgq47cFGC8sqc2ciO/6bHxdy48+JgNf3zLiL3syB5GRlGy8gijBYlSevpInPab8Bojfh0j0lo6+7x7Chy04dWdBmwjQRAZOex0bqk9Zux8yYKXW3TwMBKNWBNYujiORZU0Zkcs+OVaie54nmlEzDTorjTmt7rwy+eceHG7Ea1dLBfLo/zOSKT3qF6JRkzlgP+5YvzXY3QMW0kmlOtyact1rQZ00dinqmKYUVQQMSqQLzpseqgIv/2jHQ+/ZsKuFj3aKeelfFjSYn2GI1p4BvRoajJiw0GSR4a7M1gmMQeDt4uxnpps+M8fleCJTTZsbDSgracgzzwk+ukOAP26FNasZBR/1IL1O43YwrrKj5wMgkRFiTQlGqasiY5oxsw41kyWH0147j8d+N0jVjy9mzrqZJ6pI6/ktTDPvQYc3G1AezQDfWkSDS7lzkr7eGOXEZuaT5yusSqO6bPiOH9ynnbR8b5ux+MPOvHzZ0mAG41o9jGCZnrBXNoREp2BAElmmwFb9xuxsV2DWXOTCmHKt9z8CMpERm66D1iwgYT71eZ8rbMNXRDF1ZcmMZn32LSebYL5FuKToEON61O4eEUSDjbOfAr5dJMdJXhrjxVvNWXbtRy2qVEsnpnA/Mp8WQU6dO4hgdxiwuZeqRdpWxnUUBfz2X4bDCQhB2x4ajsdXq8WiRH1KU4qKfXJ+4ustUHSSGJB1VB9bn/chf97yI7fvsI+wnbdwkjdw+slOs/Wp5b1acRRBhwbD5B0sA3NYX0KZxsMVSJ6hFvZj14zoHcgVyYSg1R5Ags6nHj0ZScDBBOOdsqIQ7a8EbZHN9u7m87P2pCG78Vi/OoJK554iwQod51SXrYtd7sRHX1axKqjSjsaGnniuZAJj33Pid89b8GL+wzY3y3tkU6PshE5pCwhtpFOA/ZuZ/6oF1txCjUk3LJnkdTfs6y/A91j119eR9YpMSxk/c2zs44OWPGHLezjvmwaaVMaxbNJ5muDKHXkRyMoHzdg/a+KWDYbHt9iwB4Srzbmb4Ay2f7C/PG7103/PbcfUyoMKDbnZfV4838py6Ds8fVG7GnLynoLZUn03f16HDnK9nTYBD/rpqEhax/GC2mT2dEXE7ztJrzys2L8mP3rZfbvAz1sg7Rp/lx60h5k9ClOn1C7NIqSVBgOZbTJhIEOE9b+tBg/eZKB2lYj9neNIktddNM27NtrwuuNGTgrdaipoo3J5UWB24itu014hnrJyvEwJlGk0SJFey32dmejXhk5C4ndDlMHA9QF7Z5ibxwMCMsK+9FwSHlFPxMN8gXnguz4hhhUvE1gA/Xpse1RB/74ggUvsGPsbROnNYwNIMGIsp+NuOmgCRvesOH3a0146cDxiZqbxGb9VpIhRrayJ8XYTT4H5sPHqOWhtcVYRyfc0s285Ra8KqAjdTcz/Vds+PWDDvziaQvW7qRTGO26DgM2b2MnZUTpYTAxNHNPw00HvP1xJx5heZ8jkdvTpEcPOyp9hzL8mkc6nSVMrc3s8JsseOJZK379vAl9vFn2fjp0NZnwwu9tNEYObD3KDu4ekRdCpqT6GWX2eGkYWQnHj22OBy3aSRr205Ec6tZl88z7DcsznUbATYe734xXXrDi5TdMaJPz2Z9PEloSGyueeZqGnvfbtpfEkURwIKXJRbF5iOHXoovObM8OM158yYYfP2rGXpK9k9/yhQ5TRjQOFJiFugTq6pKYXZGGc3IMSyoycOWC5mRAi/5DJuxnXStrc846kIRF9dj9tAOPP2fBMxtM2E1n0U1d+qjLwixnMnQgEbapViNJlgVPPW/Fz58yoUOmZ3PXjAo64dg+Kx5fV4S11ENTp+gl95uAOvK2kVyvs+LB/2U/+jPJCQOEUa/rYl/ZYcLjr5rQNSxdkuGkDke3m7DvoAFNJEq9dITSh4bampAEkokeBkV72NeesuL1HUZ05X5958B80IlvfsSBhxlYvbSDxKtjjPwlSADcbMu0T1mCxWv6RNapyL68if2tWY9eln2kbIp9TabG2lps2LLJjkdoHx5+zYgB/jqCq50AWpIDEo4nSHTXmvHGHgMOkzC7ZTQrd0UWGsRp23z9QrKYhpIZDXpJrPKyr9N+HyaxGVWWZfX063D4gAlbNpbi98848MIOvVKu4yLA/NCWP/myGZsZ2Lp94g9yv0keSIb7jhjxFkn6BtZ1Z/YXFaNAHbkpwDs9cpMM6dGxl077Z0681MZOJt7KkIa5OI45swJYMCONWZMyqLLSzTCNAbFuMR066Ky11hSWzE7CzvA4eNiK9fsLpsSICI1Gvy7N6DCB5QsSmN2QxPTJCazm52nMT7DFjN9v0Oc6KcFoL8nIxK2LYvocRmkzU5hckoGNRtQzSI7YaX06NB/W41AshfppjKQZdc9kRFyilRESzSCJisZ5y0SGUX4cpXR+JmZNytu134rf/IIdu5nXK8ZchsBTmDItiIWzU5gzPYmGmhTKGYJFGKHwFkjTMMij2q0eDWYti6GS4bM5bcDBzVY89CsL9rIMSn9nFFlCx7twCfPF8s7gMbkuhZJiOmJXCpdfGIcjqkMglYHOmEEpddojec5l2mhnug1xrJ7PMk1NYs68GBaxfLPL5VeSUDoZGUGy1Scwl2VvmBTEzGlpzJiaxqTSDBxSVyxTJsN6oiGDIYO6FTE0ML8ZRm4DyQy0PFemz6abzqVrYLoVTHdVLt25uXRnFbMeuyx47HcO/HkzncSgJWTds2xzZ7OcM5KYVp9EXRHrKTevnyTxSZAA7W3Rom5mHHUkIkUMXiY6chPro7FfSwe1idFi7px9cRhXrIjjovq0DDgh2WTBDhIoZVM3pssmh6IFUcwuoy5yYWk+3VR3MbYdsmBnx1A7LZkVxbLZI0du2DboBPaQZO8Z3OkyjSnz4li0OI6pFpaR9elm/7QxDZs4KBmmz8FcnMSk6azPuXFMqglh/qI4lk5nxG0i+Tpixe/+x4HnDtExSp4JvT6NabPiWDArkW1/tSlU2dn+fKzHNPXE9iebAzZ2ajFzcUxZTG0Vc8C2FOlgP3qLTorOWwGvTQ/o0a+NoZ66mc8+OrWckXpKRvlYRUoxSfKZ/5aDRjSGU6ispx6Z9uzaNCrYNtwsS34dWJwN28e2smQN2709A4vCM9kv4npsesEIN+1AOfv1vOmUn5ZQyjuzIYU6lxYmcahKGTXw9+hgKU9h0vw4prA/JkkMPGyAVvYDu0artMc8zEVJ1LJ9Sz+YLu1sQQznTWMbM9CxN1rwJO1cIJa9XtaLVc0L44LcyA2iFhzZbsODv7TjZRI2r8LIMjDZ06ibE8dcqWO28ZnSNyvTKKVeJy3zYG6NAa6khYTNht9Q9qUCWauNfYyyiygr/WNKVRrFRgYyYh/kCpK4Ptq7vjAweynridnIr2c6HqRNZgJ27HijCA8/ZsU6N9Wn6Id9uYz2T/oX26bYzhms01pXGpW0I5NXRzBJG4Yp7MBOkX3UitcKZEsoO4uyiykr9VdP/cuIkmxVoEzJxWSEWYe0RdpdAtX5KVyPETsYQK3dX+BrWLYAXUnYlcTKxQnaxhAm0x4ZqLP+Ap3FBjSwlVK/0j8KpoQLIeV9u0ZBJoKzRVYlNwV4p8lNQNbYPOfAP29ilKh4ZxqBcnaIVQP47J1Hcc8H0/jARSQxxSQznUZs7MuRBxpd6fClC2OY4wBCTceSG7mXbWEEV97ux/33BHHHlWHcNDeJWTKdlaBhG0luCIstjnkXtuPeL8bwyffFcNlUOp8BWaxJI1/ge3RmkoX5IXz+k37cc3sIty5NoQEGvLxLpywuVS6l1TFqMqg/P4JpdBQKCWs1YedzTvxwow5+xXDRsRjTqJoUxu13tuLLH4njzpuiuHI5jXUp4N5nQI9M1UgeaajliNeHsZCOsDTBiGavCc+9ZQDtSjZNOrX5l4Xxpb8awOeuCeNmlvnS1SRzNXSCvMccEruKWjq6ZRFcMZeEKm7Cs/uGhuVdU+JY+QEv/v2zQdx2NZ34eUJs5M5SrzocOkIHMSWGS68N4pM3+3DVBR247doUbro8ifNZV8UeEza2ZBfYksbAWJRC0ZQoVlYBjuo4Fi5luvNSmMp0nzvACD8Xgbkmx7Hi/V78G9N9H/OdT1fIYOuzRfjpGwbscmd1q9GmYXGE8YE7g/jcR0P45K0hXCfroKZkEGvTo8dDByTrqIR5MOpDbRT1VSlMI1GaGLnRoOt1B55604RXuvPtKoMZy8O4aCEdFPPHrMAWMWF9oxbtXmmbvE5Hx10Sw8qGNGpcypm3ndxMF3JRF8PqNRFcUs92y3K+dGjIm5UvCuO6O3z4/qcDuGBpB65cBEwt0yHcbcKBZ1z4lw0y8pa9Vsdgoqw6hrs+7cPnPhTEh28M4+rVdEyVQDf7VG9Yg7CsAk3y/lE9kpPDmEvnWmmj8GjkhjCQrM9Z04HPfSaMu++I4+p5JLm+bNsIsd3nS6ohqXLODeHjH/Hj89TnB9hWFxqNWLc3Sx6U66hLHYOeKexHU4szCkkV3SSTehxs0qF8cQTXXcf2KOuRbgxh9eJOtvs025wRercRm9tIzkSEdWquSKJiEuu7BrDWUkerWH8NgDNkxPMFo3Nl8yK46nYf/pV240b2ocvmk1AwbSFExyc3JtoiJza8YMd/bJMpHOUSGMx0unOiuPkeH+6mvfjQtWHcdmUUly4k8eN9ElO8mFJuhK7VQVkH/t/W4bLTKfuZz/rwBcq+n7KXLWGftmnQS/vQlcjZJpIAQYK2ZBl1d6KnDgXhcAQDO0rwwjon/nhwSH8mG4O7C8J4/6f9+OyHQvgg6+CWK9neSOhrhRhOi6FGE0F0Vwmef92JP4yQXXF+GPd8yo8vU1bq7yLamlIGPjKt387gQwHbDkhMzdTD6trsqVHJDVuBeWoMi2/14wdfCeBKtucrFmhhIBHcfiBrb7PQkrwmUUl7s5z2ZjRIH3y7iMJEcLbIDrVwFe8wGGn06rF3t57GP3cKSSxZEsFXvxxWjKtV/I8zgXpGwpdcFleeKslCp8w5d9GrF7qE4UjgutVRfPjiBGTgQelSJfTi1sHeMAIpOFwR3PgBP2Yy8rDRJJZOimHJJWHMkX6Yu0qcTFFJAp/6TBCX0FFX8gdLDY3fRRFcrKPxzV11LEio3Ho6LD1JY+4UUTMnhms+48VVLGOxMBDCUkxntyaE730lhqkFCzlDNIQvbjMxYhmjmfYzUmVEvpPGIZUjLE5HAitZp5/4YBj1hgzGYfNGgdRyDLd8fABf/FQAt6wiSSpjnbJSPV4dOg/r4e2mIa6MY6aWjjcrhBBJb7tEaGNV+XFB8hPTY/tWPXz5xaqE2Z7EBR85gusvCmAGI1+BQhAXhPDFj0dw+YpcwXPYfMiIpq6xifnokPR0aJS1Th35us7WwfxpbI907gIZ/aoiwZ7OiJbVoSDB0LRxqxmtjKpPOOR+WqGFz6vHjm16JY95yIjZtV/sx00rGUGTjAlMTjrd5UF89WN+zJqcnwOg/yQxWbvLhN6B49VnGkZTFFfdFMC8uiSc/O6qIKEmWZ7LSJ2xSA50WpYk7iRBvXJJErUMAEzsd5OuCOECS0bps2MjDbM1go/d248vfiRI+QRKSV7TJLSefhO6DhoQCDC4KU1gJq/OuwVZL9fjmWhbmAhISrtIuoY5Z6BhaRS3fYIBG8nMDFnorZwlsauJYfldPlxBIlxtHlv2+k8O4HrK2ikrsDMAXHFJCA98KYYKkq48vCzfi9vMyrqp8cGEo00GtLYMtycLr2Ew+IEA7pieQjW/Z+uPtm5+BGtuC+KGCgYrehOOiGzzCNmr+TtlL5gx1A+L6mO4/oYwvnhHLqLLoYX2/60DJ7JISaycG8Xnb4wP5qWoPorVc2mPRtkwU8XYGMNrqHj7oVUe3+yURRmD/VOPA1ts+I+/qcJf/sNMfOIvqvDRr5Tjru+4cP+ThmGjLDKlcVynOY/EoD6Jmew7g0qVD2P1+3JGEYtjWETy46SDlsu0/GypJHHR0BBnryJIEAwpNNRnYKeVksXCGl0aJmsSk9j7TGP2VSmvDh0s71C+kyijAV6yiOnQUeYXHguJ09PAO6YkMdk8RJgyjNJkdEIWfobtadicNIo8P1iktJaG3YI//lsJPnlvOb7xUwce3WpAZ4QGlffRSV5zl04crIM487/Djgd/xvt/tRJfvn8G7r2/El/95yJ861d2/ORlAw7JQta8BHUkOhsyvxOBrEnQoa2ZQV5ulEEcgskYx+L58vRFBvq8YlkoecLFVpNCTVG2TvJI9Oow4OOR+z4uiH48Juyh0W/LC5K4oiqEmSSyNXkPzXPaqhideBqTnLlzSea72YjGLjqrwXyfDdAyksvWZ3KQr6RQVJTA8iUkHdaC9se/ehPbV00ck0hIcg81IZPSIC6L/cMaBHPnjkFRCvplrBNnCsWsH7mlxky9sd7q6bdlwCcLtkct+0xtBk6eVNom+53ezPqtIkEeY2ohD3ZJWEh+G9c78J//XoqPs73fdW8F/uZfJuPrPyrD3/3Gigff0qOF1+aLm22PuUK+I9DBN0C9D1v4wfJUJ7BwLsvEYE22CMjnQHm8nPVuYr1oKSuP/h8jW5XAAsrKtgjKQ4mEIsf+76J9qJdptexppGkXoq169BX0wbEhNzMwwNShX4Z+B5HAjGkybUabwTQLHaL0MSPtiIkNRUNZ9yiy0yk7fSqvKxgY1bIdmIpTKGUbmM7veROZCmgQ6tajh5+HKPQIMCB1yXSi2K/cKa2O7daVQi1JViHksfwemQ5XMSoKdaniHYUMLWsQGVzPItDA25d9PPqt7S68vtGK194y47VtRmxlhDA0wnNilJPYVNDRDRnTE0A6T0kaRezzg91DjI48osyPhQ1DHjOVPcJk74w8xOCYheyM2bdy5R3m8NjpaZyK6BjzhmsQNCQgsaqV33OnlAl2Gi8hN0F9CnUzYriWEU0tw5msweD9/Tq07DOx7sx47nkbfv+QA7982I4naegHF+JNFDLN02rFS4/Z8Zs/2PCnF81YJzra5sKRZhM6Qlp4xfiy/DINfrLJjISs3QmHZPFk7gTrS6ulYXPSuBcYz0HQgJbQ6A8ble7RIeBju8p9HQ/SdA6+QyYcdDPSz49yyDRX1Iz1zznxi5+78IMf8/iJEz/4HytebtKhd9CD8rqwQVkI2tY3UqlnElKPrE+2v6F+JEQ9jRLX8LasQL6XxlBlZJ1mz2RJH8mNvOR0zFEpNkRNaYoBwtCIidxLIyMWrI7C7pHtR+x3gydJhuQc25FuNP3mEdEhdtiKx3/vwG8eteKJVyyKnXhjkxlt7WZ0xqhzJp4xsT3y8uPFQG8rSB6VvZwKmYUzieLStDIydXxokBBSklsHlUVaqR/naLK0C5oKkh8Sh0EbJ1N5tA+9vM8JebW0gZAJHgZc/fk2Ls21JIEq2sH8Y/NjQ0ZWmeeCUUDJr51kzTaaLANFM9vFVH4cjP/k6atunbLIe/iYTgHYbvTU47CnqgibjXmsGK5ZefAkkpsuVHEsRnZxFacVMv+fwMpLQrh0jRdX8++1l0ZGPS6WtQf0+mM1ZXFy1tww7rsSUjASHIn0Cmw/IAtm6UDTMkws618+GMTV5/tw6XlxzKgbblj65amtdTb88REHfvu0FTt7smseJgZG6yE66xfs+ONjdCRvGnDAQy5YGsfylV5cd0UQt14Xxvuui+CmNQmU0ykdzy+9o6Chl9GcYemTdIhTHz/h4rVxLY7sMKJdNk/LnVV2Hxuw4ZVnHfjv/3XiPwcPO57Zp0PrMG+ixaFGPZq76IRzZ96VyNXnsPZHxymjH8Mn/04nqBO3ETuetuO3j1rwzBYDmgMZFNfGcfFlYVx1ST9uujaA910bxRVLkpCdCE6bUY9knevgMikBG6OMeLztfYLNUWMgyeffwfLJKKnYB34cl+UL6RFIaocTIZJCIZuFJPRtATMpGzcKsRHTpkDyS3skJmmiltpE2+6gjVcxfpy2fqBConD2/WG9PoWZS0L4/P29+N7XG/HjB3rws++7Rz2+/ekgrm+gwgZ7ytkOKS+N3LDyZqPp2LDoJwuZgkp2yv42Gvhy55RQuD6JUkZzSrRmSqJoWgCf/mob7v+CHx+5Jo6FM1OoYaRYRCuS3yU32K/Hnq02/GaPBl3Dn9EcBplCkk0Nh42QZWS43ITf/d6IbV1aZXpHK09VLfbhvq824etf6cVf3eXDF28I4WY6kyl0iCeYUTgGMk13TLoC5l/PMheOaslojtRX4RRlHimPHu4AI+fcdwWVKTiL0qO+oHVUyP3DBmzfqRu21mei6G404kibHt0FZFJH/UsbKERSiMIoUyVSJ6mTHAKTukmOwj60mtyIV0FysktxlAxsZN1nJP0+E3qiuqFRL/F4dUmUMAofWjtzmpHWobON7fH/jNgbJFnnKV1xAnMuDuCBB/rw5U+34at3ePDZayK4em4KslZ1osRC6m/k3jfjAutHbNowYtDP/uPRoeeEQcUY9oH9QtY6jURGRk06Dejk74NdmnZBOzmJCpKeEw68CHRp2gjK5L4qDKNHBzdJvfeEbU9G3Cg7ggXJ6NNoI8TpIElUnw7N/DxYHEcGxmraK34cHOVT8Y5BJTenDWnY6CSraH2GnJcBfXRQuw6w64x0dO96SHnTqK5jeQdbGZ2xV4+d+8XJ5E7lkIxq0L3DhEbZOyV3TpmqonMpY9QyNFItglGUTvfjjo+68fN/7MPD3wrgCzMzqCmwcLLOorVLT0c2tsP2M/Js6tUpCzMHwXwk3Xq0Mpn8iLmzNIVZi+OozEVigohXh/Y9RhwgWTsOfxoV/ogWTTSqw528GPok6uqz0xRZ6GjoTdh1UIPAKIn0NxpwtFuH/Ga4CsrpiJ1p5X1P40JMi1i3CW81a9A/bIpggugxY99+IzYczX0nSkqYFxr0QrR5tAohG47s2g33MJY2frj9WrQds/ZAFuHSkdSzGQ3+pIfXb8DWvdnFwoVIM6J3H3LgcGDoMXh5jQFqSG4sGeSXGJ12hLRKW2vlx7wPlbUc8qi0TEfmixZkO2hje5AdgU/IK0bAQ0fcejILj10puEZOi9KmdbFP7RvarncMpOF0pVExTJjkpU8/qmyceeygfTjC/jk4RUi7oKF9qCBBOiG5ka5WHEeZuWDaUYExu1v6sE40EtKGEyhl3yoeJmxEUytl23NfCxAisWk7SPvAz4OjmY40jBWFi5ZVvJPQffzjH78/EolgtCMajdIJpekoksrn0a4Z6zhTsrFYDLL9+6nIymsYjicbHEjC0+jCc/t1ymJDBblHwa+fHYJTHx5VLjYA+PpseO2oTukugih7al8nO0B5hE48Bm0ye20gGENHlw6bX3FgfXOEEfEASnTZ3zyH7HjzgAmH+oacRPF0NxbW+engQ8PSVA6yha4jZjyy1TQ0AmCPorhuALfOiyCTypc3gX463c3POHBE1isoFyZhcwax4tI+FCciSCv3jMHnARrXu7B7gMZGsbppWGxRzF3VhTpDBNo49TiQQUDK2yKOXLkZoow++zsycJRG4TKz26ciGOhJ4+BWKx582I5t3fnH5Gmw7Aksu6gN59cFYQ1rcYBk4rk3aeisCZj1rKtMmPXIXGqi0Hjt2NhBB5XTh86UhGtaH1bUBGDXhhH3peHrMuOJnQZGqTmdxWlswlHMmuWmmQojxTxHAim420146TULeiSK5GUpTQIaYwirF4UgLyUYaNNhy+s2PPxnGw74GW3mlGkuiqByah9WVYWy92Jdxf1pBCTdHQbEeD8F8RQMoShmM12TJpduJIxoiO2vz8Fy6NCb22JA3j/mZuRuYl1ZzUEln0F/DJ37LXjkUTte3WtAbwGBm7u8C6tn9aPOku1HJ+oLvWyLW18owyN7s9GroiZXFEVLevC3H+3GzVe4ce0lnmOOZZUa6sSKw/kFyBkNgqYITA4fVlYHlHRT1P1be83Y2jIUnmcCOuiMERicAyg3SD9J4dDaIjz7mhWvUX9D/CqJ2uk+TJ/mQaVmKL+Jfg1aW814Yd+Qe8hEqWtNCA1TPbDqUmzP2fJGqfOo24bX6YAiubqPkdD2kYCZ7H5Y9UFoUmH43Ckc3WHBH/7kxLZ2Hdtz9loD+/SSC9qxZnIALul7Ayl4Wyz40xYjgvk6t8RhrvXi1rkRWHT5fhRX1j1tfsaORpKTrDNOwWgMY+VlbpRrQ9Ao5Ykh5M/g4BtO7KEzzK4FycBgjGPeqh7U20IwhjJoazLh1Q1msMsp02NJXRxWexCLZ3qhYz0PtFqw7hW7shbnaH5rCsJaHsTkBg+WVASH6s+rQQfb07PsS3lkoin63RCmTvfAwP4Yj2WvDXjS6DnkVOxcvrxGewxl7FcX1sdgZj6CPWx/XXbsGIxI6NjlvXM9KQSdPpTqQkhL+2bh3Ie02PWSFXuNQRL5GAxsC+5eC95oHSJWYcr6KCvtyK4PIUnZftrHXRus+M2f7NhN/cdytsRZEsXyC9uwpjrEesjmeawjGo0gmYoi3OlAm9tCEpu9h7Aef58GXtrbpM2PKvZzRaYvSTLFQGwrD2M/irQx6Hw2NJPE7+7J292sbDTINmDzoSgnK4+Av/GKDY+9ZEFTwX5M1ZN9WLGsC0vKcv6h24Bt+2RrhQKqY4tgasMAFk0dgI7XSN+VI9CjxxHa/RcODtWVtTSEOup3RdWQfgsP8WMiK35ttN+Pd5wLsrovf/nL98ueLqMdGo0s+qIjye2TMdo1Yx1nWlbepSPPu492zViHVqsdTPd4skgYETkq5EYPz4h9bm5fpkFN0ehyJrPc04hDbxiVHVIlwpIX4QW8evQOGBl5WbB9pxVvbbNhwzY7NmwhidlkQ68pgYr6BOaVZ+8TbXFhI6OCg71D5KZ0TggrZ6Uwq0I7LE3liJow0G7DnzYbh8iNLPxriNAoh2Gz5OuKDjhgxvanbWgaJDeMvosSuOTmKCaZdHQeck8D4mETDrzuLCA37Gy855IrQphTrIPTmC2vyWKA+4ARbnmygWknpbz9evT7GTGxvNtYXqWcW4WwGeFN5Pbp4L3K5kfw5RvDmM0yWZNWHN1nw5N/tmJPpwV791mwZQfrisemPVbsPmLDfkaMYWVfiQysDnlPVRCrJ7NurDpGSqQlITPWrjeRPOXWUPB/GTqffh8jzX1WHBrQI2HRoZr1sfN5CzqYF3G2aZlKoyEOeM3YudOGjczveupoe7MB9D2DMJckUUcnd9VMDSwsv9S9QWNEMmzBq2+aEJT1G3LhyHS9rE+LBtPKtTTYBnhaWF/9OmUTR9kaPzxA/fn1aG42YdceWdgs7cKBN3ab0ebLbmwmGwhiWhQfuSaEi2cxwmQ58u05/8K/Y9oF22LfUTteo1PfSKeivO2bcNXEseTKAXxohQ/zZ2gwo4F5m5wZdky2mBFjfbx6eKgNxkkWXYzml65OwqT0Ixs6j1jRfMAw9PRWjOSVBr+j04DDJGhSljfWO7DlKKP2YY+8pDF5bhSLFicw3TGUZ0PGBA8d4kYSDNGNkmWZGmB9drsN2L/fiaaonuQFmFSqIzE3oO8Q65P9NMx6T7F9BDx0qrIDeBPb+i62P2l7WxzYwIDBw/ap6Miegm12BF+4MYSFNRrY2fZ1CRPi3Xb8cYtBeQ2GAtm7ZEqUQUIIpY7sHhvSP9IJ6Ud2HGa+8u+vMpqTuPjmCBpcWjiU8uhJxNiP2Y/2MFAZIjfpbD8igSw1m0i+zNjzqlnZjVa6GmMRRP0kwF1Gtkcn3trsxHqSs32d+mFPDdlrYpg+J45LppHsD9afGQMeMzZsNCrXKn2N90syeOjx6LFnj42EjNfZNKjSm+A/6sCzJDf5fW6M7JeVc0MKuSmxG2Czm6HVmNAqWxjwd6m7hLKzr04ZhWk9lOunYtPYb97aZQZmeTGtQo/qIhN0Wrb3gyZlQ1PZv0Zk/bQP3SR7h3KyIree7WQTSUCAGVZ0zr42eXEEX7wujAbaG7O87DRXxrGORCIGh8uCeNCEjkMkk3IfIhrMbhra0WXAkQPSJknKt9qwfjNtSrcetvOimEzCWeYyI0Vb6mkdaqsi6xNZEpUDOVnpm+uZb3mNxKA+quNYuTqMD18YQ3W+PftI9GgDXz9UMDfnSGDO3DguWJQioZY8J5Q2hYAdHU12PFewU721Io4G9pErZgzpt/DIy0r/H+334x2nIisE46yQ/frXv36/fBntkAtkYxyXy6W89Gu0a8Y63o2y4gzGI6tLmRClM32a0e7ITfw+usaEyeWmUeUsTj0jLl7KztHiZSemoU3JPHOCJKmNHemgAzv2ZY9d++3Yf9iCVrcexTOSWLwIWFydvU+smUaCDqNwE7/yBewQ87WYX5NV7rCDhtbfYR2+iV8RHeC0BG6d7UdxkTNXXjM7PiPtx81oHCQ3EiFlcMXtaUy1Gkla5J4mJKOMYF4hqRgkNxnYXGmsvC6FhWVGlPBaCzuxozSN0qgB7TR23rAGcd5XNiTrbLdiX668uxttOEzDEsxkiY3FKTurRnHBNRF8aoUWxTammTaj9aAVz9FhbGmyYdeBobraeZB11Z0nNhJdplA3h47+1iTmVhjgskie6XDSjH62mJWt7cXRyaxsgkS1+YgDe3i/Dq0epVOBC6bQYG03YX+ARk/xJrwuYMIhXrOL6e1pssAb06GsOq28/Tk/pWgpo0NemMIN8/SwK2lm081k9Di6mc6J5c+nm0wyXToOSbddo0PJFOCy2TrYq0gm4wb4SXy6BtgelVEELTx9Zhw6zAhZynuA5W2lkY1miY3BnEZZfRyLrwvi4+cDc6uybUACA4lgHA6HsjHlsDYhR9KOVrazPz1lRAfLkG0aaUyamsB1t0YwwxJGiXN0WYfWSCdpwNot+tyLEYmoDi4S+4YL6ADTERRXWBjCs66OGJT1InlEfEa0H7Xl9EcCxEIYyZFcEgnniLK0p6msy6UrgDlFhWmTgAfpXHab0ELPIS/klvoJk2w3HZZ+40CvE5g+VYfl00giytMoihjQ3c++yjzIW7PTaXkE2Yr9jIQlD7sO2XCowwg/fxP1mNl+amZHseq6ED7N9lflyqWdMiPZw370VsEmfvYMzKyvW2cHUF1qy9WViW3GovSjQ0wzv+DWZEkr/WgmCWxxrjwako09a9mPGKjkn+IxmKQfJbGIfbmC5CxNsjbA8u6irZEAAUkdQiSW+6Ut8Nh71IwobZeD/VR2N87DUcdgZ0EaV8/W5+qOh0kCE/a/nSQkrD95Y7nUXyRSUH92DRqmanFeqRFBktM/F27i58qgemECF9aFUFFkRXGlCU7WgaHNgKP9mlzgQLIZI6lstSntW9Ez++ieFpLxEDD7fA+WTDFjUpWJZCODYtqHZpI7P9OQHaLjMXkNyJDs7sMMbHoNij2S7NqKkphyXgSXXhXBXUtIPsy5sh3nEKcnfaG0Vk/SwICDRLCRaUr/kVU40YARnc35NsmDbWNfhwlhawYrrk6iXhtBRTVtsdiikB6HaW/k7elpeW1HkH25QHbvEQvaGbAqxIbVZi8JY9aFYdxwWRLXF+rCTwJ0iAFX4V4/DMrmLcjg0uValPIaybO0KX3Eic7D2Zcl52GrTmHGwjSun1twz4JDRhHFrttstlF/P95xKrKS57NBdqimVJwGpGjwo7jz6yFcQgMxjY7fxc5jkLUlIyCPiBoZjctrBIpoPGwTXSV4VoD5Lk7g4s/6cf1FMSyenEKZ7DY7Wnm1LC+Nf3FpCrMXhfH+a0P46jVxZb8LBWyp8iZtB+tC6mVo3RIhn+VJCnmMtCiFKfNjWHNDCJdV0XDmR3xJPm3VYVy1Ko6pFSQQvO/oVZoiAY3hqlvjyhbsLuPwJz9EV05GrwsZEX/g8oSSl+OC6VqZ7hWSbiXTZX6Or8oUFt8cxLU3Zt/0rTzezzRkX5ThYHlZH7J4eMr0GC67KoBvvy82uNHfeJDs0qPrqBGb+FmMvAID22hZAudN58cCm3sMHGk4S5OYNaw8jIZ9emzeI6On8j2JmfPiOP/SBCqZT9mtX5e3OPyrYd1ai2nMl0Vw9WKS8/zOgMeDNYGqqVHceBEJCB2jjXkcO5tsK9Ykzv9EANddHsMy6rPMyTRHth9C+ptMQxUxPzNJrG++Joi/vjGu9M8zC+a5Mo6rbkkory+ws74Ly2vQ04YUJbCa9XfN6kEtjg1LAhVTWL5LUqgtZl0ct/7GgxSqJtOm/UUIF84i6Shhu1BsWu7nPKhvHdurje3GzN+yD0awv9fGcfnnA7hxTQLz69IokVdOjNJBZPGxyUqiSnsyd0kIH7k+hHsuGUd5j0ESs5dH8L5PhrFSFvcWMU/mwnVZOfC7wcLfbCSvzE+2vZD4L4riyo+HcMOiJBqojyKWdegFp0PQ0U5Y7GmUVySxYHkv7rnej5vOG2TuKk4DVHJzumGg86kM4sv/6MV3/4qR9uV0erWMdYYZW9m8jZ1wSgwfumsAn78hisvrcz+96yDOIYbbPunB974xgL/7QIRRX2poQzoFaRKbBGadH8IXvu7FP30tgE9fGofsWTVYLQ4a94VR3HJzDDNZLxZGt4MQgkHiVL8yjA99th8P/OUAvnFxcogY5WDiPea9/yi+II9zT0orT5aMBr2VBvuqfnzz/WF8dE72CZQ86qsSuONDAdz76QCuqGTS4+hBRjvTvY3pXhnEbTTgdbnzY4PO6gov/vpvPPh/94RxzfQoSsyFpEXqNIVJC8K4/TMDeODvffi7O2KYRnI3cn+M46GjgxHo4Tz7y2FKEkVz41jIjyN+GQ57EqU1CaycxPIVGPeeAR3W7jIjlshqzjEzjEs/6MWPPh/GLXMykMEcBXQK5jkJXPa5fnzjcyFcvWT8hr9oEgnTXdTPZQlcXnqi3X2z7e/6D/XjO9/04h/vDLMvpWDWFZIWkkdDAlMWe/Cpe9347jf8+MLVJFH85dQc/9sDU1kc06734AcfjOBm9p38Xm7yNNrk6gA++Zl+fP6DIazJ7z54AjhrE1j1ScpcEMFlJUP3O2kYUzBNDuAb/8q+d18IH2Lfqx++yhhwkbgsIgH7QAjLJpPUDD5imIbBGMFHvtSHH3x9AF8nqV9RpQxvFiANa1Ec8y8J4rP3tuAfv9iPD61KDG62OGFY42hY5ccPf+XBdz4dxrXLU6gc+XhhOYOk1TFccW0ES1lBQ4QriepJtN/39+I//zKAz14cw1wGZMPBAKE2hgtvZsDxfQ/+9i4fLm4gUc79quL0QNPa2lrYy4dB5t3cbjfKysqUYb2J4FyWlU3PYm4j9nVpEMwNJafokHzowSXzi1AsL1Y6ITQI+3Rw92vR7U2js9sPh9OpTCUIdFpG7HQExWT+5RJdMOrJI+Y24GiPVnn5nSzc9Pt8qJphwbQaLcoZaRyDuBYhrx7bmrXKTscKZBdVVxT15l6UlZYow3iSp3hEh9bdevTRl2aLJk/vpDFtQQJFdOTZ3GkQDWVwcGsYAb0TKW32rJH3lBc3yosuZZphJLLz6Tp09WbQ1B2A3eEYKq+O5S1Oo7KcRlCJlkaWQ/KmhbsXONDig1bvgkab05GkJVGWTM8w8i6jIZUIdySSyRT12w99tAw+v1nZnC0/9SaQFzBWVtCo5bZ4j3n06OnRocdPPafSlPExf1ZU12qVEQBdKFun+ZceGiSyJPmZVcbfCsovOpJ0dZEy+JmuLEIflm4RHUwlI8GCreUFKbazYL8GBw4FENc5kNYOLQIVvcg0YGkZo8MiKe+xes+m60ZRUZGyBm0kIv1SPj1YnUOwsf5o2GeXZ/vCWLJKG5AN3JoNaI+wbvPJk3TqXXGlXVWUuhRZKYe8Db+nl+09BETFF5A16GRjMpZ7EusyxfbZ3alDRzjNOvIzYraicpIGNTUp5UWsIyFvZPe3857ybi02VHkiJZMWHflRPsWIhlodqkc8qZWUd8J5qc8+tqMI+86wn6UHuzG1wYbqUgOd2bH1Ke86S8hb/Vu0iOYHDYzUdVEMk1ne8hKnsl5P6ibFa1v36JXF3tl1F/I0XBrTFyRRzL6cL1KS9zm4NQJfyoaELntWx+vqZiZQyX5gybEreVRd+n17t1ZpP8o9eTIR70fDdBOqXSSUtCe72oYanrwHSup3OgngSMiWDM27gwhF7YiQEmfzmIW1LIla9oMqE9sp09xLOxfNcU89+5i9Mk5i0YfSIrsyDTAEtlfWr1sO9plQ4U3ZPk0sT6krQRvCtkFZ2zBZ2ht52SztYa+8VoX6GQLrjvI29hOjto95s8Ilwy0TgLzvTNqz3T6UZ3kTvLylvNerRX+QZRycXyVyo0zl0jdJXgKUdRTIMkvKOjy3vMBzQANfbko8CxmFzsBVkkZVWQrxQB9cDtuIuiLCbO/sf4cL3xHI/lMptqCG9plf+/r6lDwb0nZ45Umywfe+sek52Dd47Uzam9Eg5ZUpLTkminNBViU3BThTsrIQShrxycpKuiUleYIyfqiy48eJiMLxoMqOH3lZWfeWJQrjhzxhKbJOBgmq7PFxKrKjEYXxQpWdGPLk5mRkJd23iyhMBGeLrEpuCjBStq1Tjz0Hx3ePVDIFfyCgLN7UHzOBe3yckiydgd9/srLZKPmUZNnx9KO+G2BsiGyAstJpT1bWRlnDycgGZFTgZGUDymK10ymbpqy0jdMuS+cn7erkZDODoy8T7YODsjRQBuPEZaVtiHE7KVm2DYtFFgSfbtmA4rwmKpuRujoTsnTY0jZOThaKfk9JlmTMOPZL7UaFyErbECJ32mXZNkwmM4+TkQ0oAcJEZF3ONNYsjSm+7O0iChPB2SKrkpsCjJR96Akb/uqBce/1qkKFChUqVJxRnDcvjid+1aP4sreLKEwEZ4vsKCsjVKhQoUKFChUq3r1QR24KMFK2u1eHQ0fHdw+ZWpIFpzKHnV8kO16ckmyKsr6Tl5XFyIULmceLQVkHZSc8TSOyMh0m01IT01F2Gi4/HTYx2bTU1SnKylTaRNuVTA+Jfk+7rEwtUUfZKbwzICvTfxOcesjK5qa0JrguKjuVlp/SmuAUAGVFv6ciKxHjRNdyyfSQ6Pe0y2Yyio4sZ0pWpvAmPE0jsjKlJdNDE1vLlZ1Ky09pTUyWwop+T0VWprQmuv5MFi2LficqKy/YlNEb8WWFIxkTwbkgq5KbApwpWVnoqi4oHh/OlKyQKpFVFwWfGG+HrLqg+MQ4U7JCFET2ZBa6qrITg7qgePwYKatOS6lQoUKFChUqzimo5EaFChUqVKhQcU5BJTcqVKhQoUKFinMKmh07doy55kbmZWUtiaxPkLdtTwRvh6ysP5GXWU4EZ0pW5lbj8bgqOw6osuOHyEqblAXfquzxocqOH2+HrPLmZR4TwanICqQfqbLjw3tdVrNv374xyY0s7pO3ZMtGXhPtAGdKVghKKBQ6JVlZkDTRyn0vyoqOZKGbKnt8nIqsOAPR0anIyoJRcWITgSo7fois6FcWT6uyJ4bU86nISsAsgcJEocqOH6JfkXs3y6pPSxXgTMnKUzzq01Ljw5mSfTueAFJlT4y8rPq01IlxpmSF3Ijse+WppTMlK1Cflho/RspObGhDhQoVKlSoUKHiLIdKblSoUKFChQoV5xRUcqNChQoVKlSoOKegkhsVKlSoUKFCxTkFldyoUKFChQoVKs4pqORGhQoVKlSoUHFOQSU3KlSoUKFChYpzCiq5UaFChQoVKlScU1DJjQoV7yBCvQbseaEYv/htLf7lZ6X4/n+58LNHrVjXDiTSuYvOMaTiOnRsqcFvfpMtrxz/+j9OPHVQg75I7iIVKlSoeAehkhsVKt5BhNwGHFznwu8ercZPf1uM//q1E7951oK3uoHkuUpuEjp076zEnx7NlleOnz9kx0tHtPCo5EaFChWnASq5UXGOQINUXIuQTwdPP51oWIPMmC8WUaFChQoV5zJUcqPiHIC8dZ6k5rAVz/+2CN//kRP/9JoO0WT2VxUqVKhQ8d6CZseOHWPGt/JyNXkhpLzM8WTesK3Kjg/ycjV5Xbsqe2KMlI312dC8oxI/32BEYEAHr0eLRGkQM6/uxLcvi8FS8B7SM5Fn9yEX1v9hCr6/EQgnsufq5g3gmo+24FPzAcsJXox8qnmWNilvXz6dsrGAAVt/MxP/+aYe+9zZcxZnApffcwgfX5LEjOLsudFwpvL8bpaVt8WfzBvjVdnx4VRkBdJ/Vdnx4e2U1ezbt29MciNv6JXXiNtstgl3vFORFaIgr2t/N8rKG0knqph3q6zoV95WeyZlw6127HyuEl98xIhIjjwUTw9i5S29eOCqOMnDUPM+E3l2H3Ti9Ydq8d03gVAuf5Pm+3HdJzrwmQXjIzeio5PJ89shK2+MFsc7EQi5eeuXU/Cj9YXkJokrv3AUn1yWxMwTkJuTTfdUZUW/8hZzVfb4OBVZgejoTMkajUYlUJgo3muyol+RezfLalpbW8ckN8JW5TXiZWVlE05MlR0/ksmk8mr7k5WVdEtKSpSGPBGcC7KhZjO2PVWMux/SIxzPXlMyM4o1H/Dih9clYS2ozlNJV8i6yBYVFSnGdbzo3WfFq78pxd+vo7HJkZv6RWHcdI8HX1p8YnJzsukKzpRsxK/D2v+sxH+8oRskN1ZXCtd8tQefXZnC7JLsudGQT9flcikkZSIQAiqyTqdTlT0BTkVWyI3I2u12hThPBKrsxCB+4WRlJV0JXOWYKM4FWd199913v/JpFEgHEDYkF59spKvKnhhvh6w0/vHIpuIahIM6BHxa+AY06HYnEE/aEAzrEYxokUhrYDBmoNVkV7IUIpWibEiLwMAosjwfi2mQ1gJ6HiJ/DJLZtDvdGvQpslYEY3okSK+Fa6TjWgz4tfD6dMpff5BHVAPhBFoWTe6bL68RNgSCBnS3G9F80ISXDmoHnz4yOlMonxTH4rJsfoVUpDUZGLVDdZVO6RHl/YMBlkfS418fD798D2oQYV5lRZoM4ElZxEiJrDiC4VGjBnHeR+pTyXfuHv4I881yRbwGtO8mwWkhAc7lz1WVwKxlEaysAgy8/0hIPUekngt0FEtYESqsZ+ZJ1D1aPUs9hpiHbk+2nkU2mtIpMsaM3FOHft57IMy8M0/CXUZmY+zyZpGMyuJt3kOmAvNl5v2k3iT/bZvt2NSmRV84e73BnMH01SEsq8ugbBQ7naZcLCx506KzL4Fo3IJQxMjyahBleXnLMcubRz7Px4vsM6wEyXuA7StAEubjX0X3fqmrGNMxQ2vQU360OhGCrFGmP0eTTabZriCCGRhG64oSRlI3bpbRw3tInfkClB2IwmIzwqgzIBYR3WTbv9IeWf5QguVnZoy8p6ag/IPl1VOBaSM/sw0yX4OyPIJsm1J/MVagTpeBjvfJ8HMipENrVwKRmDlbz2yvMd7TLNkflgb7kDebJy/vq+Q5yHadDMFqYZ4lGGOdpqM6dPfn+m0u34EUSS37dSapVfqhcg+2md6+ONujiWXSg/8N9oFUYvh1+TYledfk6lTKK4HJaEFgmvmIxyjjzeq2sE9LPXsHYkyPsibqd6RyT4DjpXsinElZkXuvyqojNwU4U7IyonC6Rm569trw+itmbNxoQHO3DgdJFjL04DSfKK5JYPmlMXz+o0HU0uiMjNd7+kx4/WkrNr5kyspmKKvJyZJQzJ2VwOobQrhmYRIVjlGaVYsVTz9nxzf/aECashqRLY/hkqtD+Mvb48AeF/77GRPW76FT9PJ6kixMTuHia/z48IoYVlWnB8ub2DUV//2cC4/u0NEo0gHQMudT1NCI6ykrozZip2tWBXHjDUHcsyyWq6tydBxwYNs6E3bsNKK1RY9GOnnabCINkzWJmWtiuOmqMM6fmUSdfWhEYfhIhtxdhz1/dOL5F0x49agW5DBZ1MVxMdO8tIrO9OmJjdz0uk148zkL3nzBjJbObD2n6NU0LKHLkcScGUmsvp71vDiBatex9ezbY8ezz9jx3RdIaJR61qBmeQjXXRHBXTUG/Pf/uPB8I0mTJYbVl4Xx958Jo5Jyhf74+CM3OrSsZzt6woqntulwiGeUtdtlScxYFcb7rqPDfbgSv9gw/pEbX7sJe96y4GnW44vNdMh0VPLPaef102JYw3Z1NctbWzymuVKIr+T5eKMRkQE92nbY8OenjTjcaEATiWy38kuGdRXF1CUp3HJLFDeeH0O5cn4IUTrw1lYTnvqVDY379ZQlgVR+ycnWAktWU++XRnDpbHr2kRDCvNuFr/6vGS/tzdW2Lo10dR/++ktJnF9lweFNdrZrIw61kgdJeylJo3JhFFdfE8CnF6RQZBoq/2B5k8Vwtxfhje1WPLmdsmyEiixht2YwsyGB+qVh3HFpFHMnpRDtMeLoi0X48iMkJHT68s9eG8eCW734zhUpVNgHexISEQOe/acS/HaXDgcCco5BgjmO933lEN6/zIIZxWSqfgNC2524/ccmtJJQKyhJwHZBAA9/NAqbx4bn11nxx9dZ323Mt7TJ6iRWXBnCh64P44qyrIjnsB0v8Lo/5K5TUE2btJJ5vyyCK+Zk+/5YIxmBoB4HdpvxzIM29mkdDjOQEzMiedZokmioCWHVlQlceWEKS2lXxotTGX05FVmBOnIzfoyUVUduCvBulpXGP7asBkE6zNd+WoKfPmPGszuMONCjQwcjvQAjSRkJiDLiCdFYR6JA7bIoatmXrMrtKOuh7M8o+7gFz202Yn9XVjZIWYkKFdmwDj1uAw7sM+PVAwyLHGnU1aQxzMX0G7FvvwmPbdYjlk/XmIKdoaKp1YofP2rG5gM0uB7ej5FklBF2lBFc32Ej2gJ0IPYkZpdl13Kl2ktJgizY2qpFfKSdYrSpjAQoeeO9q+OYOSuOVXUS6Wqx9hflePhxO57eY8TeTj1aGS16eV04V5ZIhNFjL8uyy4j2KGPx0iQmk6xJuoMjGTE9vEds+H/fc+IP6414q12HdhkJyqUZZbTYd1SPlkMGdAX0OEInnzruyI0GEZ8Rr/+iGD9/nCRwown7OrL17FfqOVvXIUb2vW49Dh6gTg5qkbCkUV83vJ4jndTRHhr5PbpcPWthrErDEGceH7Hh8UN08AO8Fx1r9ZQ4rliZgINyhcHsqCM3MvTTb8XvfuHAr9kWXjrMcskoQb7MrEcf67OJhLF3wIgjdHT5qcKxR2502PaIC7//ox2/W2/CrjY93EHdUHlZ/r5+Oq2DJqxjeaN07lPqU8PbVQ7HH7nRoelNlv1BJ35Mcr6liXn36tAXFWKc1XssroePUb+1nIR2RgKTBhOh7AYbnvi1Cz9+WtqoYXTZoAFt7UZs22fA680aTJ+dhJO8cDAnMvzSacGjGwzY0yplpCxJSMwSweSEFbs22fDQy0JssiMNEaVO2f969Gg/aESLluSOZKfclr2djEKFu0x44g+l+M2fSQz2MF8dBbI8wmzLfQNaNEdJEkkOJrEdaFm/nv1WPLJNjz7qT67LsB2Vzoniyulp2Ae5LMOWJAnqiza8RbLQ5s/eM5lOYc75HsyvNVCXjCBI+uJtZvxqnQHdrD+lXPoMUpVxLOm04U/PWvDYBhKqTtoblkdpk+wrnlYDehkk2ZjmwEvFeJBk+dE3DYPXKfeR6zrY/2mvwtURlOvDcFpHjmTosOspJx7+PdvlS2bskH7H/uehfvJ9OhrTUT9GNLeYsYnEdH8/MH9BUgngxjOII+1KHbkZH84W2fHoVcW7GuzkzSa88agDv3nFjHW7DTjcQ4PHTh/KXZEFozSSCR+JRT8JTnaKRwNPiwnr87LbjGikw83LDsWQlE1mp2WONBqx8U0r/u8pC57caICfv44daxOMtlr2m/H4izQ6JDY9/ZrBqBOSBxq5/hYDtrxmxhubaOR46rj3Oy4kqtSj4wDJ3X4DGmkwe0ii/Lxh4VPjaTqhAAnEYRKIV5634qU3GJHy/BCHIgE7YsKzD1rxzAY6SjqqdpmSyf2qgHXZ30oyt8+I7R28/3EDRUaY7Sa8+YgDv32Z5HALHRzJktSzjCYV1nOS9Tzg1+EoCd8m1vPDT1nxGB2Cj78er178zMvujRb8mY63lUqJjT9wzYEOgs5h7e9seJYO5M1GITYj8sdIOdTLeiOx2t6qgY/taGzIqIAeO//swKOs42e3GhWH38t6TBcUJJnSKOVtZnk3s7x/YDt8Yucow13HhRaH1zONp20kFiZsIylrp1P3sg5kKmYIJLYyneHTkPTnTuVkn3uKsmwH20gg2km4R5Wlzru79di3y4xXXrbhJ49YsIP95bj7FgphHLDjzbeseIEEYF8L216Yp/N1kCAZ6Gf7YlDw0p+z96NfJtgW4uxrT5XihTdsWH/QgKauEbKEtDuZIurxsp2zTKdtd4QQCc9eKx56geXaxrx1kmgUtgcSDl+HAdvfsOLXv3Tg50+a8cJWEuPRriO527nLhEdfNqGLZcmbB6mDNMnXnufseOI5BgTU7S4S925e46PtGLpOIPfVo5Pkc9c2C559wYb/ZDDVzDY8qGoV5xTUkZsCvJtlxxq5iXsN2LXehv/7gxWv9tHnKqQlA1txCvWM1GZPDWDedBn65/fSDCqsaUy+IIJZTsAYoEOk7O8fpmwvZRWHmIGLsrMoO4+ysynbUJWBQysjD9qsoWCU1NVLo65ltD4vjhpGwMo8vpek4pARz+4qyKfMs9OB+RwJrFycwNxpCTRUZmDWadBHJ5NHnM7IZE+jdkkEVWlG52k7ghqtsj6ojOWW4XUG7gqMjhQqpsVxwYI4ZvF+8+bHsWhmAjNKJLJPYf9bdvSmtXBMTmDBjDjm8LeZU+VIYnIZYKfBdNNJZGgQQ3QsGqZRs5TppsKwWcxIB63YQYf3q9+acWjQiGbgLGI9zmW0OofpTk2h1s7TjGrb6VgK/M0xIzfxASPzZMVvf2/D2h6mmatnp4v1PDeGuVODmCP1XM2617OeGYnn67m7jw6N3mwGy1rNMJTVhmg3ydFBErPGodglLusO6GVDNXGsOI91wnqZNSWBxTOTWDI7CRlMGaptpj5i5CYV1qP3kBU//S8rtpEAC5mSPBoMTJvlXTSbupvB+itnW0hky5xQypHFyJGbVIR1fJhl/m8Hnj+sQ4cwAEb7BlcCc2b5sXBWCnMnp1HnoD7DTI+VnGZ5e4OMxHUprFqYgJ0cZ/j6kGNHbmR9SbSLpO5hB554i+RB2LaCDMob2CaY9/mzmCY/T66ljo1APeukgXqcas7L2vEkZfcWyE5i3c2n7ELKzuDnSjtpQ4R6icvaLw1SdO4H2rSomhrHpOoUiiWYFCLTbcZTdOISYGTBczEj3OwrRbUJLKMe5zQkMamYxJFET0YeBMooTa8W1Qt5v0lJVLHNR70W/OY/HdjSnSM8rD+9K435y2Js1ywT2/S0KUnUVKahN6eweim/V/NzUAdvI8u1h20nd38T21r1/AiumnHsyM3BV63YTuLUl2NzekMKCy70YEF+5IZ6iXea8fu39Mo6LgVJtnnaHo8+hbrp7GdzEphOO1HE+3kLgqdYWIdW2oTD7JcV9axP1umcOubFqIVbiEyuDSVYvV42uvmLB1BfboDDaECK6QZaLPj9rxx4dp8ezbn1XVptGtNmxbGAbXI+62H6pBRqaM+iQmSYrzQDhBBJ7L5WLaYviqG6KKO0peNB2pU6cjM+nC2yKrkpwLtZdixy495uw0svW/HgXu2gg5U1JbNWRHDzXf344FVt+OgNadx6dQLnC8GhbUrR4U+lYw7vtuHll46VXbw8gk99wosPU/b9lL1sUQbVWhq/w4xqGb0r19LwkIFAPymK1TVsaGLLRyM3vNo0KY7ZN/nxT18O4I6rIrh8PslNSo/Nu/XKgtcstDCXpFA6JYS5jjDKp+qwZEUcl89hnuMmPLNPO2gIXVPiWPl+L/71nhBu5f0uI2maVZZhXUkHSKC90wIHDe4l1wTx6VuC+OBNEVx3aQTXXhzDqilAkceEja3ZxbYZpmskaXFNCmGBKwyH1QLfPjveoMF/+KhWGVwSGK00+OeFcffdfnzxjhBuvjKGpeUs94AeuxltD5XjWHLTLwuOX7Lhf3ZpkcoTNN5v/nkRfPKTuXq+PonLzwPq9Fr0NhrQSaekFFfqmQRDMymCVaxnWXQ6GrlR6rmazu1GP777xQDuvCaMW5aQUNanYbUIjRuOkeQm1EEC9jwj7L10TrnwX9Y1VdRF8YlP+/HZO4K44/ooLpqdRjUd+7ZWHcIJOpLspceQm3CnCfufdeFf39Ll3jeVgbE4gUnL/bj7gy24+wNx3H5JWqkjc4cJW910hHIzkjR5vL9oaRQzSXwKF2SPRm7EAbY9V4RfvG7Att5sKWVxqtUVxyUfCOBDHwniE7eG8f7LwlizpA+LbXqUsx6ttUnUael4ny/Cf79hxFaSzkLZW98fxD0fDeCTlL3m4gjmlIaAXhM8Xj08LLdMjcqoJKpjqK1OYqasMxqV3AjScK4M4X0fDuAbdwXx/ksiWD1Fh6Zm5p3XJQeZsQ6uqVFMIwmabtUh1mXGI88b0UoSoPAO1rG5IYbPfmMAd98cwh1XkqxcFCVhSsFEQjGL5LOyNA3d6SA3hN6QxqLL/fj0JwO4+/YIrpmfRn3AjE0t2ZGxfLFkjZxzbggfuTOAz9/J/nh+EueZTVjPPj0QybUhklQtyUvdUg9m1eiVdKNuA5qeKcK/bWA9MbgR6PRpuMpj+Ngn2CY/FMKHbwzjqjUxLK+jeg6yrcnUMe+lrFAP6ZGezECuioGIzMseB9KuVHIzPpwtsoU9TMU5B72yWPZI03DSM+fSED74IT8+NpsRDVtAtimkUTojilW3B3BjTQYlxjFkLwnjujv9uJTRvkJYCFctScbVYXztrjgMBRFQp0eH1/eYBteajI4kFk6P4T46s3pmRJZEO2tpjOZFcTsNUqHzOnUo3hG3ktR96VMB3LIqjoqybPTv8erQ2aiHt4d5qIxjJs/ll7SFGJG399IQKuXQob1Vj6bG4fUy68IQrv+IX1n0KASD1hN1JIFX3BTGh1gO0/DLC8D7tdHZjbzfBaznj/hw5dzkYJ06q+O46MoQ/vrTcdhISPLoYd5f3WVSotKxkcLsKVH85R0xTKUTVPyXnQUicTsx6GTotHdt1yNRMNYvo2PXft6Lm0gyK52SnzSKJrMNfSSA26dllHVboyN7vx3beL/BOYEUZs2M4ht/FcLyKRlG5jxlT6JqdgxXXxuDebC8WkToTDt7KXHCrDPyj+uxk/ke8A7VjcmawaWf8eITV0RxRXUa2fXNcv8opl/Jtn0xy1BM2WRW1ts/JGtkPi6924sbSRxmU1agpUMtm+nBPR8O4trzh2dq22ESzY7jDQtIuqyvK0K4ZVlCyYuW5K2Czv7GmUmsOM6eQMeARCB5RIftu/ToH8h2HKMxjckMMD5xJ+t1ahJO5ezpAAMbYwzXfyCGRQyanPzuKItj6bVhzGS7G+ISMvqXwO13hnEly6+M1DGIqbsqhMtsaZBnjgESM78eWzfrEWW58yiuS+Dar/TjpjVxTCrO6sdoS2HSkgC+9GE/FjCoyUPsktinDtopFeceVHJzTkOHfrcWHjqCISTQMJmOZDqjPNrcwgagZQQlEbaJJ7U5WfcI2SmTk5hNWXKfQUg0a3SlUcxodwbtTN6npRlRhjt16GHEOua8Ng2QoyKFelNGWXgpZkqj5TkHDVw1Pw/ZLYSjGnTREOWnnyaOrAM2xUjcttnxqx+X4qNfLseHv1iOL/x1Ke795yJ885d2/PglAw4mxdVlIelliY2AUW8/I0CSoCEkMLmO9TJjeL1oGeFWVCawZGEK+uOQG9lVuS/72E0OCdTzfnNmZu+XrwKlnp2MTPnbNN4vT77SjJajdKC99Ktj1vOkJErnJLBc9MsbKvdUKls+nAjyiC5JWEshoUihpCiOZeelSbR4Re4+Gl0aVkcCi+bH4GJeRwfvFx55Px2a91vxH9+swNf+fgY++dVafPhL5fjo3xXhvoeNw0YERB/imE7cDLS8v57psB0OLjBL05nGsGxRClVlrE+lrQ9BZ+Q5A/sBG14qJXnUIDJCdsmiNEkx22uBoJbltlSRjBWnUJs7J0j26ZTH27NP7YwC6hQk01WsqzKS+/wttfokKplGsSt3IgePj8QwyKuYT21ZCpVsB4McMkNyEzFg3YNF+Na3yvDF7xXhJ8+Zsb8/A52UideOS91vB1ge3fIoFhWlUZ5LV8M+bqxJoIbkbehZGJZDy75ew3ZtZ/3zQmnnejOJDpmNLbd4+lhoEYuyHx9lbxnkKyRRbHurlsm95L7Zs2JDpPxWBgd11tTQU3Cs+gTtkzdEopQ7peLcQWG/VnGuIUiCEiBBKVz5WJxEeSmN4gmftJOol6Rk2KpJcWQZ2EeTNdPw09g2aEiacqdAo5Gk0+2iERnT6dJI62j0hj/9koHFQgdSKY8x504Rsrg0QoJz7CTKOJGkle0swYuPOfHgH2x45GUzXt+UPZqOGtAlazuMNIQsnyyUHX3xpdQLEBtRLzK14zjGENOYs3yuoiFDeyyy9Xzs/UjwRjPsJCeG8iSm8H6DaqDjT7br0U2HX7gWsxBO6qaK5FN85cRrTxw9617WIQ0yirRCAoqdNCIjbijk1EWya6ATGx0y3THyfrJ/jB57NlmweYcT67dYs7rZZsTGJi3ioyvj+JD9YXwkKLIvS55ESXuT+ium4zzuyLes4dIqeRxaDE49akjinUKAcqcKQUdebE+DnHwIfVoESW48ua/HQOqOfcco2xdkz+SQQUlpGs4Rj/pH2VYSMu3FOjbYo7jk6gDm1iYGR2RkMXzfUSO2bzfh5VetePQxB372Kxd+/bwJLb2n0dyznjVscy6Wa3CDCiavYfu1MPvsiQUg4ZZ+N3hSyszrrKyT4RcOQ3bfLZZ5kEOzb+jTKGEjP2aGXuq5JI4K1nXuyXNezpOdepIbTW4NmYpzCSq5OZdBZx2iMczu35IDHY442uPYjJODGC7e2yh2N3eK/k9hCOKXxnJzY0FIgcMxnNycGugUIkY0vlaBPz3pwJ83GHCQHsdSnsCFl0Rw09Vh3HZDGO+/LoIbz0+gnJ5muLM5OSikICKOMnfiVCH1QeWJbx2qZ55k9CprM8ZKxk6nUmQdayTl7YWUNRLRKWUfP5i/sgRWXhbGpRd4ce2lQVx/eXjU47LlccwpGceUJRteJqiFl/kZJNcyUkJSpi9sp28X6MhlqnZYu5EFrKyHQX40AVipLzOd8ehgGYwJnHelB9ddHcR1a+JYNjONIgfLlStYyKvDoR1m/PlRB379iA2v7dOhe3AU6j0IIZAMvobZPvabFPvP6ekZKk4n3vb+reIsQs7YDuvMfYxUGEm6C9ZOjA6SIJEfJqxRHtMefFS7AGkSqUi3HkdpJQZHD2w0JrUpVNORDEZvpwGyKDc+0rFmZFdmMx570o6dfToM8JTWzrwtDeLvvu3BN//Ci699zIcvXBfCTYuSmEyiNtpeKqODxIlO7Nh60SAU0qKjXVcQXR4L2X1ZN8wjZqPz0eo5Q6IUYz238H65h0NYz2noJqVQxfsMrgV9x0GHTacQjTFPIxhVKqVFV6dB2adoLChTD8LQBtWUQv3MCD7zd734zteb8P++3YWffM8z6vHAF/y4dfqJX12hWDfWybBkmKc0o/V2Vl74BB5NxghlbeLQqFt21FDKPNp6n5RHB48/v7FfDhUp2ItTKM19fVuhYQFcXtx0lxd/+40A7rsjipVsu1NrUihn37Pk+q6Qq9bdNjy904CtPSwPK0NZb13QRUSHMjo2QpU8oUGS7TBzgro6E9CQqIh+hgIgkhS2Sdmrq/BxeAX8nuozoYeke3AUjfKgfSpm/zl9a5FUnC6o5OZcRkkKJYz+hu+0akQznW2TbNxyXLDTl2RQOkzYiJYOHQ4PbsM7hIhHi/Z9RhygcSl0uvoqOl1ZK5I7dTogrz440iOEosB6R2mk3Xp00J7lyZezNIWZi2KoLRg6jzDabd/LctAhjD/INaK1k1Fyc+7rIPTodxuwfRMD+FGIShYpFJWkUVaR+6qA9+vi/Y7mvhYgMsD87WH+SKYG82chCa1OopK9+fSRG5JknwHb9jL4HTZlpEMibsKu7Rr4hEGOijQsbJe1k3j1IHnm/fx0vnK/MetqgshNQdUxjaGZVC3za2K+NcqjxWNDyH0SNZNkeiR3Ki+7b3RZb5MBzR16ZU+kQZSl4HDlFy2/UyCBqohg1VX9+Ldv9+Kx7w/g21ckjlmM3Me2La9QkFHRKvbLwikf2YzwYJd+hC5JBNOyNwyJ4Fk34iOjWinUTSF5FfaqQAd/0IhNu9hPRszPyqP0sgPyEbbZweVyYh6qkiQ3GWW6VsW5Bd3HP/7x+yORCEY7otEoG3eaxiahfB7tmrEOVXb060Y75HrZ7v5UZJPJ5LGy0RD87WZ09Fqxv8AYBzzs6AMJxOwB1NvjSImsJ4mu3TrsfNOIbQYPzClSlH5GuD1mbO0c4sAiG/YmYHYEUGFPUDYBd6sOm9bZ8IenbTgUGBriLa8NYuWqDiwvDyMRY35IOPYeNOPl/YPWiF4ngvp6H5bN8kIn5cnlPdDDaPOQHc8d0Of2xKDjLgqjepoHF9XHaduydRX3peHrNOPxHQYk8qM1sTSM4ShmzuojTYggFec9Aym420145TUL+mSUhZelNPSihiCWzvFCk4jA26rF5tdteOjPNhz0awYfyzYXRVA1zY0Lma4mE4e/04SObhv2FjjvoIc6CIVRWeOFMR1BLJrE3lfteOYJJ55r0w7b7M5RFsKU2d2Y44ggGQsjRtLV1WPBpo6heg72yz2TrGc/ymxxRt9JeHifLW9Y8dCTzJ+PZC13w9KqEFasbsfKijDSLKuvzYD9B61448iQ97JV+dEwpR8Ly4LD28gYx/B2RX14MvC2F2G7lxF+Th+xcAae1jgJQD9MmjDrOY62/Ua89GApHjuoRw8dZX6AQ29KYfLCDswuDpFohBGl3qIeG9a1aBGlPgSxsAa9JIixkghKLHGlHiUvoVAUHSR729bZsf5QHEfjXlQYjs2zHMP6AvMdpmyguQj76Njza89kJKOvWYOALgSDKQAn8x7hdSkS9KMbHNjVnkC7bgCuZBTJHju2dFI/uUeN87I6bQgWcwBmyoaDMfQdduKpp4uwdpcJPbnHqwWzl/Zg9WwPJrOdSxqRNouyQ/jRvpxuZJrMGcaqRX7UuYLIFJSl/4gFWw+YsbOg/zkn92NOvRdTzXHq2Yqn1hqZXgoZXRiGTIjlD/NzECmfCUd6TdhXsM7GUd+P2ZMGMM2UgJ/5+OMWoxIIKEjwOq8e2nIvHMYA6z7Gfq3H9ifK8LvtOrRKcKBcKCNuceVR8AZXjHYihogvBV+rBX/i/Xz5+5kTMFT344YZPvZB1q9SpjiC7FdbnrbjcIBERLmQJEsfxorL3Kg0hKBVroshFExh3+su7Oym3pQ5RRJVfQILLvBgarGky7r0U9duO9ZJ/4pn000wnz1NGpisfljZt3XpMPz9SbTusuAPjzixpVkPX669ycj04gvasabBh9Ix2lP+kDYlRyzG8o7y+1iHtMOTlZXjVGTFn7yXZXVf/vKX75f9UUY7NBoZHk8oe6jIvhGjXTPWcSqyWi0jpHeprOwLIs/Zj3bNWMc7J6uFzWFCMmJE+97sRl/iD2MheRRXRwdtQGujAxu327Fhiw3rN9uws9kAy5IIphdpUe40IpMwwHPEiE5GQnlZH2U7eww43GhXZN/c7MD67VbsaDEM7cZaGceilWF84tIo6pw61ifzE7ThcJMFL+4tIDe2JBpmxnHpsiSKmGd9Lu/poBl9R+x4dr9ukNxYyhKomxPGhZOisFtNSnkNMCEeMuP19SaEaLQUZ8r/pZlPz4ABe/eScNFoJyw6VJtN2PqCBV0JjTJ6I44q6me99BqwY4cNGzZly7Gd5aDfHoS5JInaXLoOqxF2g5WOyoQ9zJuUVy6N0zHLgtjOHiN27bbhrW00um/asfmACfSVyjV5uFg3s5bSoNfoYDboYJGVrSnW82EjuumAZUg9HpYXAA7V86Yd2Xp+c5sN26gjyZ9yz/IE5i4P4+4roqh36WBgPSfdNjSxntcVPMbvqIth9pwYLmiQFygWtpGxD2lX+T02zDojLDozdpAAB1h/4uiSdDoBEmAPy71vnw2bmcc3NpGAbLGiiRUjLw7Nw2DKYPqqAJZN0pAU62Ays53ZTDi0wai8+kJ4h7zUVe7n9hnRdtiCHbuoE5Z3A+ty/RaWf5MNnRl53DyOxZUnzrN8N7B+XWUWdB/mfWVxL9ORl0HKehTPgBZtzSQAe6zUlw2btruYjg19suh0ZhIz2G6dxQYMtBvhdutATj8oK7txN1N2F2Ulfxu3FimvA2kZYB6kwHScmBbF7fJI85w0SqzMn5Y2hc74+R0kHsyLghy5uWR1EnPqNLAVlCXW4cDORhN2FJDe4ukRZdPFReUGpPrteOQxB7Y3mrGLJGjbTskL64t/tx2wYV+HAX3BPNFKY/6aEFYvYrlK9cwfr3/NBA/7icL50gxKwiQSJOytTSRUrPs3qcs3N1uxu5/9ZHBaSsiN7HPTj3k1epRbWc9JI9I9Dvxxs2GI3FhSME2J4o4laZTatbkyGRgcmLH5KZIbP9u3ciHvZ0zg4puimFaigVO5jiSLlKhpvRO7GRBl99cRcsN0SW7m12bTNZr0cJSwjIeonwB1K2SaNiAg04PUQxPLsV3akLQdHhv2m9Ab0WZJmjUNw6wIPncDg5t69g/zUL2PPMQXSLuSNiVta7Rrjne8G2WFJLzbZdUXZxbgTMmKUt65F2fqcXSTBU/+tx0P7tLDSyOVjcBGQxrlk2L4zA88uKUug0qTFt0HzXjtUSd+utaA9gDJzThWRjpKE6hfE8bN14Tx2eUFqR2x4XEati//tiCflVFceX0I//DZsPKUSd6Mh5rN2PrnYtz9kB6R3DRFyawoVt3ah6+v6EFtRXG2vDEav8NW/Md3XHi2nZH/4MrRIdRdEMD7bgvjk9N0+N03ivB/R3VoY4R3LDJw2lnu0gya2obWyRTPiGLlbW58Y0U30y2CKWXH3jdt+OXP7Xgit9nfqDCl4bTxfiQche+WOvbFmVr00RC//ogDP33ViGY6mOjYShqEvYT1vCqM666O4Murc5VEeEky/vyEE3/z9BC5qVkdxC23+fGNi8ehQEJGQKRdDb44M85Im9H5z3/oxKMHdWgfa5pCT2dlS6HeqEcPvZe80FRw7Isztcq7tJ77Fxd+s9GAPd4s4TwRFlzlxwfv9OHjc3MnCiAjp5Ln4S/OFD0bsO6/HXj4WTPW5kbRxkYKF73fj499IoirlClZHXY/41Tej/Q0iV3v4Jzr2DBQ70U1ccy8Loi/uCKGZbU5xcvoyI4i3PMz89BGljr+VteH73wtgZtWZFA4k9S7rgg/f9SKn785pMep1w3g0zeH8ZE5dOJH7fjK10gqe/M7Ro8OWd/krI/gE58J4OY1cUyzktCEjPjtN1z4/R4DGkOj9QUZbaNcSQrlJD1dJO9+pYllYLLEcOc3D+LOFRbMKrEAPgOCm124/t/MONqXuxcDEfslPjz96SgaSvIuhoQtbMYPP+bC0/LKEuVcGmZrFPf/egCXT04pL3AVnSWiBjx5fyl+uUWP3QoLyrBe47jzGwfx4dVmtiF5AJ7BTEKHLX8owoMvmvDGEa2y+/GJYGL7LJ8Rw7zrArj/sgRqlT2axoZsDintSn1x5vhwtsgOhQQqzlEk0bAgig/cE8aa+iTqZV8ZCx3QkL3Mgt/18pi3I6043OzjvWlUzYrhik8GcNPSJGbWMAKls2aQcwxk4zGLneSoIoXzGCHefWMYHywkNu8UTCk4aiO48VJGpNUZOMgNR19nmoLVFsOF1wQxfXISrty+OnnIY8suVxKL58bx/ssZ/RuOY/CsCUydE8GdN8YxuTaFImsmt3FfHjTEjP6LJ0ex6LwoblqAEb+PBOttWgyXfzqIm5YnMIfOsJQkS/YhGgkZSpd6LmM9L14VwiduCNPYDxGbdwzGFGy1TOvmGBbPSaLUSac0In86g+xZxDpZHMb1C9OodOR+GBVsZ/YYbv1CCJeviGN2uTxGzXpkvY98Qk4Wjsp5eR1FCdMVHY8fosc4LnofSeB11EdlCmV0ZmbyYu1I6yeLyFm3NupzaNPFFBZcF8I1N0dw8ewUqktIWKXtHGM5xfnyt6I0Jk+P4+IrA/ib26KYlyc2bzdYR/J0op35tZhH6c/UjY7nbayvqroklt0YxMVzEiQ28mMaekMMqy4LYdbMBEodbFOFuuRnI+9bNTmB8y8L49aGDCZN3LeeBmTY5pJY+eEArruKAci0FCpY/3a2lZHbE2T1I+vbUpg5L4obrg7i/lviqDgBsVHx7oVKbt4LMCdQtSiAf/ofD77zuTBuXp1CzfBVxkBpCrXLY7jqxghW1NBoDg6u0KGUh/HZv+3B//uaH1+6MoaF5SOj/xRcFTGsZCT0t//kwfe/FMIN85PDotB3ErJ1/JKP9+NL10Rxa1162CZqhdCRlFRccATfvDW7O3PhdfVVCdxxpx/3fjqAKypIdo4xjsNhro5j3m0e/Oh7PnzswhgaXHknJsYyhfoFQXzmEwHc98GoEo2euKOl4CwO49Nf78W//pUPX7k6ivNIYIaDjl12eaVh/tYDrOevhHDL4uQ7vFh1CDoStsrL+/G1r3tx3/sjWDosf4yGp0Rww/v8+Ne/CGGGkLPcL2NCpm7KQ/jUN7347t8G8Jmr45gxaeSGh+K4SVwnxfD+D/nwuVvDuGFq7qeJoCiKKz/sw/d/6MM33xfD0lkkwoXBoeSlJo4lV4Zx8aoEZgxrvHEsv3gA3/pbN/7z82HcNjeBShKgIcjnOOrmhvG+Tw3gH+8fwHc+EsPs8dTBycKYhpGk/sqr/Vi+OIry3G68g6BuShdGccltPvzDd3vxz7fFsYjkPw+N7Kq8sgVf+YQbf3VDHCuqcj8I2L8brgrhw1/x4h8/FlXI4NmNOK58Xz++/a1+/NPHWCdTUgrBGYJsf8HAbmE/Pv5FNx74lh/3MTCRkeKJjZOreDdBnZYqwJmSfWenpQqRnY/uG9ChP6hBKJyCz++D0+GA3qaHxUaDV8TopzSt7GI70iHH5J00spvugBb94fSQrF6v7GzsoIGtKqOTHjWyJSJM263DvvaMIuugrMGqQwllptWlhj3pk4poEXAbsK9HHu/MnjPYaLRKoiRNrKvSkeVl2br0cDN//WHNsDcxm4qSqKCxr7VndWTLlGPAZ0Wvf+g6Kx13aUUSZQ76ubAe21tld9vsbwYro/nSKElEH0pLctM0hDw+G4uzPjplrYIWIdlcTUEaVpKdqkqSPoMW/g4ttrf4YbHaFf2aHSQCtdmt5mVH1pGISz33F9Szz68MTRsMemWqQOq5siwNF/M82l4vyQDruU+Pxt4hWXu5BuV0WlOKx+eojpmWKkA8oYW3j2V2yzRAvgAZZbi/hPmqLE6ha28E3oSdbierI50+g9LJcWUK4NjN86gH2Y+mX4fugQy6eqSubDAaRFZGcihjkX1wqCNG5g62tdEw+rRUITRIxDTwefTokTd/RzTsP9lf0vznj3lRW21BTaUOxY5jn/BLU78R1m1vrxYetrH8Quh0hrI+L0qrraiu0qOMurcbR8mjnAoYsJ/twZNboJxhur6YGwvmmFFbZhw2mhgf0KOjV4eOgaFGIuvOasrTqGb+pH02NwYQSdp5mNkWCxoT68jI9uGyUx8MXJwsTOFoRr6uzLoixCJ29LG99eendGTEh3agsiSFKosG7iMGdDK/sqZF0Yc2DUtxJxqq7CiW7allrZtfjx3sM5F8Hki+dGwHi2tSkNdPZcHreO3uDSGENFZkjNKu5Km0NKbOI0mXPGcvRCbN9i/pso8OpqthuiVdTNeWTXcEkjH2QR/106eBR3Q7+LSkVHwaCXhQP8mM6nITrGyP44U6LTUxnC2yKrkpwJmSPX3kZjhU2fHjeM7+RFBlx4+8rMvlGoOgjI0Tk5uxocqOH2fK2b/XZAUquRk/Rsqq5KYAZ0pWnO47QW7e3GJSnuoYC+JIAgGJ7LOjLxNBVjagdLwzI2uj7MTqKp1Owe8/c7I2m23C+hUn5Pf7T1pW9Gu1vttkA4qBOjOyFspOjPhmZOSG+j1TsuL4JkrWxemKjszmd5tsQCFjb7dsw6QE5s4cfe2ayIqNVcnN+HC2yKrkpgBnSvadIje3froCW3dNLHJWoUKFivcaPnVHAH//1dF3nVTJzcRwtsiqC4pVqFChQoUKFecU1JGbApwp2Xdq5GbXPiP8wbH5q0zxDC0Knli6b4essqB4orIyxePzwf4ukpVpqaFFwe8W2eyCcbsyHTaxKYC3Q1am4bILiseP7MJeH6zvIlmZWhIdSbQ58amWU5HNUJZ5PllZ6shqkamliY0Mvx2yMophmqgs/4mOzGPI1lQlMbV+9K0rTmX05VRkBerIzfgxUlYlNwU4U7LvFLk5EVTZ8UMImciqi4JPjLdDVl1QfGKcKdkz5ezfa7ICldyMHyNl1WkpFSpUqFChQsU5BZXcqFChQoUKFSrOKajkRoUKFSpUqFBxTkGzY8eOMdfcyJu9ld1nDQbl80Qgc42yDkWVPTFU2fHj3SgriMfj70pZ6f/y5vmJ4r0mK21D3kSsyp4Yquz4ocqeGCLT29urrO+TtZQiL9Ds27fvuOTmZDKoQoUKFSpUqFDxTqKjowO7d+9WNjpduXIlKisrlWBOcNynpWRFfSwWUz5Ho1GFIalQoUKFChUqVJxpCLF54YUXlM933HEHZs2aNfi01LjJTU9Pj7IvggoVKlSoUKFCxZlGU1MTNm7cqHweSW7UOScVKlSoUKFCxTkFldyoUKFChQoVKs4pqORGhQoVKlSoUHFOQSU3KlSoUKFChYpzCiq5UaFChQoVKlScU1DJjQoVKlSoUKHinIJKblSoUKFChQoV5xRUcqNChQoVKlSoOKegkhsVKlSoUKFCxTkFldyoUKFChQoVKs4pqORGhQoVKlSoUHFOQdvf34+xDnnTpgoVKlSoUKFCxdmOUCg0yF+0RqMRYx35V4erUKFChQoVKlSczdDr9YP8RWu32zHWYbFYciIqVKhQoUKFChVnL0wm0yB/UdfcqFChQoUKFSrOKajkRoUKFSpUqFBxTkElNypUqFChQoWKcwoquVGhQoUKFSpUnFNQyY0KFSpUqFCh4pyCprW1NZP7fAzS6TRisZjyuaenBz6fT/msQoWKk0EK8XAQ4VAYkWTulN4Km90Ku8WgRhqngHQyhliwH/4oP49i0fRWF2wWM6xGtZZPCekkMvEg+nxRpHIVrdEZYLQXw2XWQqfV8EwKyXgMof4odMUumI066DVppBIxRPw+hHROOG1mWAwT1QXTY9oDgQgi8RS/a6HRWOAss8OkZ9rZi95eZFL8Lwpffwxamw1miwknbELpGKKhKMJ0nSaW38LrlWpR8bajqakJGzduVD7fcccdmDVrFqxWq/JdJTcqVJw2eHHwhT/hlWdfwquduVN1V+HGmy/BDRdNQ1HulIqJw9+6Dbv//H38ahMQIMEZidrL7sYNl63CZTPsuTMqTgrBToT3PoFvsqK7vWHllLV6JqZd/yV8bk0pSm1CMXrRuXcnnv3BRlR87XNYOr0UNeYQPEe3Y/3//hxPVd2Fj191Hs6fVqzIjxvpBHDwcfzoj+vxxt4uniiG0bwKd33vFiypKeK3dwBxLxI9b+Kn/7ILzsuvxfJLFmOuI/fbWPDtwlvPb8G6bSksuu9usFrg0Od+U/G2QiU3KlScSaTpbWnwnv7ja+jU1KJ0+jxMK8n9Fu9BxNQAR/kMzKvOnVMxYSSjfgR7j6KDJiqZ7sTBtXtx5EgK5bddg4UuOpeyOlSUFqHE+o7E96cRXWhctxeHD8RQ+oHrsYhlM52uwSjvYRzZ8RZ+9dQRVF5yOeZU2VFmjCLoaUPT5h2ILbsLly2qx7QyLzp2b8OT//AmKv/mK1g5swzWjtewb+cGvBFdjQuXz8XcuiIUWSewSWzCj4RnFx79+UEk509G5bRylCcjyAQ64am4EnMnOVB9ItJxMiChysQH0NYcgL60HM5iB+wnIirJAAbcfnj9GTim1KGIxdSPOnLTjSNv7ceBrT6UfOgWpZ2+65vnacbxyI06RqtCxTuKJOKRPhx87QV0pctRMmMpzjtvERYtyh0L5mNGXRlK1f0yTwl6sxNF9Yswb4HU60w0VFWg3F6OujmLMH/hIsyeVHoOEBtBBP6eLnQ2dcATB1JjhqZvNyLwtB/C0cNHkZpxGVYvW4KVSjtegiUL52HZTCt63tyPls5+jAyBIx3bsbupHTvj07Bm9TIsbiidGLERJCJI9R3BjoAJ1prp2b6zeBEWLluMGWUm2N+pzfS1BmjM5aifPRU15eMgNgK9A0VVtWiYWUfyNxaxEZAYunvQcagdbuoyedp0+d6A7r777rs/9/kYZDIZpFIyt5l9Z0N+FEeFChXjRCqIcN9hvPLQWzCsZnR23hzMKJx/oiG0Wiywm/k5w74W68GRvYfQ2NiEI62t6OjuRcRUAYtRB4MuQmPYi7adzeLi0Hi4iZHLEXR5AvBrXSim89ZqEvB3HUXLwb3Y19SKVt4jqHHCYGJWfJTd3Y6Iqxgmg5ZGl/fzDJ0zGsLwtXagp6UbQW0Erbv24khzMzxRDSka4d6P7XubcLS5BT3BFOJ6G4otOcIQ96C7+QgO7j2IJqYp6QY0DuiNFlhO+1tcvOjc04aenjScq87DZAZyyvIORtT+3lbs375PyWNLa4D1qIOZobUu4UXr1iPwJ0Po7elE8/6DONrZxbovhy7Qjq6WQ9hz8AjaOrrgSVNnZgPM+jjC3l607DiKsCmODurjaONhtLp9ij6KWDfKGhSmG+hrY7p7h9LN6GBiunpJd9sRuL1daCUx6HInYC41I9q6DYcaj6DxCOuyh+djZpTZo3Af2ou9m/bjcNcAIk4jYikjnJYEm00vupo9iBaVQFSi1QThbevKnSvmOT96D7ahu41l6XfjcFMQxnI7Eu5GtB/ej32NTKe9A61hI8tmhI3tbRjiPWjasRcHjiQw5dY7sLLKkCMUbJdGI1wlRhx+8QD0DTVw1Vigc3fh4KstsC+qgaftAFpDNpinrcFN80vYjk9iAUoqzK7UgvW7+2GtqkFVeQlKLCZojMVw2ViX+hAGqJvOI+6COig8l62DPiESvW74YgNo3pnVhy9tQSYZRqT7ILbtpf54ri+qQ8ZggdOcQSY9gLZtR3kdmY2FeQ+50by5CeG0n/3jqNJXO3r74dXIuiMd9LowBjq70XmYfbe4FGZdDP62RjQfOsD6a0VbWxtCBgN8zY04vG0fDrX3Z3WZZJ2ak0h5+tC+j/0u0sN7+xHntSaeT/S3Y+/WPYpdaObhDiaRNpfAyb79XoXX60VHR4fyef78+SgrKxt8bZRKblSoeCdBpx/qOIhnXnRg5hXzMW2KE7bcT8ORRjrhQ+Dwq3jyjy/h5dc3Yuuu7di7fx/6zAtRXWalE3Ojc+cmvPCjp9Fh9mHta29g4xvrsKupBy2YhsXTnDBl+nDgzRfw4pNP4uXNe7Br1y6Ei+ehtJxZadyCF3+yDv7zlqPCQQempxHdmT+3jOe6ceTZV/Hms5vQaglj++PP4K2Nr+OQT4dQgmHl4Wfxf8+8ia0b12N3VwYh8yQsmCLbnNPJt27Cm8+/jKeeWofNe3Zi1/a30JWZBFtROSrEiZ+EPzt5jEZuSAD6GnFo46v408MvYOPuXdixtRcBkxNF051wRg7gmX98FEeogwOH9mDz87xm1zZ0WuZA37MRu95ai6dfehO7dmzF7tg01FcXocLlQ8/+rXj2h39GR2kau19bh02vvYYtTR1oSU3GnHoXSWkaCc9hNG5iug89n0u3B34jo/sZJKQxto0HHsXujgPYfLCXhAqoXVqNwBs/w3Mvv4VX39qObQdasM3txLJZcTQ+vRYbN+7Bfr8bXW1HcTBdixnVdOKbtmDD84cQWrIUkyxS3nbsf3E9Njwn587juSZs+tVzbC8bsbO3C29tCKFmZQPih57GprXP4anXdmDn7h1Y32nHpOoy1JbaMIyD+Buxf+cAmvpqsOLWmaggeRgcxNBqSQR08O99C7GqqbCXOWHxd+DA2oOAsxtv9VSgdMoCvO/CyRAOf1KQxBwahNa/jtaICVG9RRntTOutJEuARtOBg2vfxPon9yG4dDnq+JtRmz+3l+eW8dwRbPvt89i67QCOxPqw7bGnsWHLmziaKEYs5IF/3/P4/dPUMc/t9tqhc1ZhZo0GmcRBPPdPT6HNVAZzvRmajm146juPoMM4gPWb2O6p910HjmJfcgbmT3HAYe7B4VffxBuP7UZA8qLrxN6Xn8RLz76AV7fswe49exCvrkbv+i04sHkH9gWoy5bDOJSqxpSqKKK7t+Ll/30eB5PtWLe2H/qaYhTZ+uHe8jJ+/+AL7F9sQzs246g7jqh9BqZWm5X+pTmtfezsgEpuVKg4U2DUHgl0Y2OLFfOXNaCOTsOY+2k4fAh6duKJf/w/RFbehSvv/DjuumEJVkzWYMOvXka0th6OCnbankPYvWE3Xi29Ap/44M34+EX1dJABrH3VjSmXzUJx1wY6KAvcU2/A/Z//EK655hosn1mFSnsIvvZONG3phf2iVZhUJOQmAO+wc0EM7NuB7Ts7sRuL8PF7P4qbFljgObwFL+3oQGjBJ/CVj9yEm+aZMNDiw6G2BCZdMBklOITXfvY4CdYszP/IffjCBy/FNcudOPryTnQF6WQapqDmpL3ayWA0ctOKXc+RmOwAZt37NXz8lmtww9wQQtCg0WfDvBIv9j3/Kt7qr0DNisvxkQ9fhEvKvXjkj4+gybociy/7AD5741Ksrgjh+ad64Zpdg4o6PdJdTdiz9i2sC8zExbfdhA/cugSzzGHsenQzMgsXodTZi+aXt2LnlhRm3vdXSro3zgsjSkd0cMCGBWUD2Mt0uyZfjuXXXoePXjMLlWYTyqedj+UXXoOrr1mKhdR7mPeLLr4U88+fggqNEeZoLVb+xV/iE6vq0VAaJclqR3dnAo7VSzFFKa8XXfva0N3Bc2uW8JwbrW9uREumBqWX3I6/+OgSTHZZUF67APNWXI2rrr4Al11Qg8Tjm5CoqIOxphJlhSMC0S4090TgzpRi+fJ6yLLsoTUNKaSTfrRsfBq9jrlwlJeiKHIEe158Fa83d6JssUxjLcbMIi1r+2RhgFZfjqmr5sHY8iq2Pf1/eHzzEQRqL0FDEWDWD6DnYDs6W2JwnL9cqQOjNn8uynPLlDpo37gJWw+F0VeyHHd/7WO4YVoCezevw1ttGZiXfRRfv+tGXMNzjSRy7rgRNedVojjVx7bRBEydgcqpLlgDzdj70ut4o+xS3HDjTbjn6tmYogvgycc7MeWiaSh1xeA/1I6OoxHYJd3Ol/CcuxqWxTfj63d/EFdffTWWNDRg/tJKuAxmGDxlWP71b+Gu1Q2YUR6Du3EfGg/1onf5Z/DFD63AihkxdK1fhzeeaYL9rn/C3Xdcg1svroe1vxu7XtmHxOKlqGL/Om1rr84iHI/caD0eD8Y6/H6/cpEKFSpOAUkGCJ39CMTiiOROHYN4DEmvH+3huaiaXI6aWiusRbUorl+KC+a3IJMKI6g8nGKB2TwJl6yYjdqqUlgnTULVpArMpfPxetOImeywew7Bv3UdHtsfh5bG08TQdvwzAU5UVM/AJdcsI9lxwjV9GiaXNGChqRzTp1fC4bTBynNTSs2oi3jg9tCxefrQF6yBqWQSpk5jvu1FsNacj8Wzoyixe9B/NjyHEBigPWvHvsb1eOq/HsA/f+8BPPDLp/HEhkPo8kgGxTNUYdHK87B44TSUl5XDOWceFmRYt1WVqK4ugZWG0zlnFhbCDY0/ktOHCQZjPS68aiVmNZA4lE5HTcN0rJl7BL5gElHe2yfpHn4TTzPdH0q6//M0HntzeLqT6mpQV1tM3RqgSyWga38Dj/3mJ3jggR/j579fi13JBEJpLbQmo2K8DTo9jBbWtUmfe/x6PChBWWkNpjaUwWo1MtrXQNe3CxufeZDp/Bt+8C+P4I0+OvV0GumcxDAEIki4faSOMs44EpKHKjhsVvA/wgS9oR4X3HAJ7B0H0bhhM/adkjuR++thsFRh7hV34o67P4EPrCzG0V9/G8/v7EN7IHvViVGM+mmzsebiRai22eCYPRvTbJMw31GBKVMq2HbtsPLcDEcGpaEBsEuOAiO02jqsXjILU9j3rNU1KJs6CefF2hEeoM4LxwBkOMXBftS5A53bNuGFpqSy4NUkb682U5dG6kGb1aWFutQrumQeLDWYN7saRUVWGKNBhHxGBHSzMW+BFUXF1Hv5fEyZVoH5k1vR2Qck8ltLvMchgzB5/qI1m83sUKMfeQakQoWKk4TeCr2jFJPt+9HfH4R3LCOcTiETp2HM0MFZDKAPo98zQWcuRnlJlEYypXAkWeOg11pRVebgNXr6EBMNowlFiCERzyDtmI4FS1fj8kUVsLU9h4d+9yBe3NkxAeNvZPoOVNWUwKyjM7XYYDHaUaK3wGk30lbT+CrndLCl44gzzUycf9M26E0WGmXeQkOHbSxBkSsNsyFxdhhekoNkygZT0TTMX70US5YtxdILrsIV/HzRdBcvEKdiQUlZMfNthYHOR2t3okhjQ7GV9tAk8zByzo5ibRyaRArZQW0dtDobKmtKYbcYodORSBq0MGkirBuShLikSwc1LN0rccWapbh4xlC6sgePkkYyiLhnP155phURUzVmLF2KRfNmoKEcyvTLqcHE5mKBXRbzyvquYCO2vdGM1j4LJjOdpectxqwaE+yjreGwlKLIkYBLcwRNnSOcaTKKtL8L7e5S6Iy8vzLvKvVCojznAiybbSOJasRrL++F7IBwas3BAEflFEyZvwqLFyzEeaVd2HG0A90D2cfSTwx5a7QLFRUuGNmWNTYGAwa2byXfOX/Hc/LRTJJJ9Y0CHfuBFRXF2bVXEILChl+CKFKJNFLDmB/1WzwHy1efjwtnmJFufBr/+7+/xtoDXvSOmWUSVh1JjEPaE+WTSbY1PZKyP5CDqQsf1pMA2djvHVEwZhp1b6f3IvTso3n+orWRvY51WCzn1iMcMs0mj7fnD/muQsU7Cj0danEtliyMo7dpJ/bub0N3MPebIO6BPxBAf4QGk4bSqulFKBBDRPZqSUWQDDEq7Smn/TSB/u/EMNegYfEFuPjSFVhSHEDv/tewtbETbQM0inS6ZlsQkRgNsDjmSBjRUAAM/KD46ZOBkB0aEpPOj0QkiICUTRxntBt9HisSKTscZ8PWMnRABoOZUW8dGtZchxtuvhW33XYbbrtsOdZMO5UdhpLIpAPwDAiZYbmTfoT9frR1VbDcOhhtTJfEsMhViylM9/rBdFeMvs9LIohE7z68tE+HsjlrcN1NV+CyFTNRRR479ugbnasxTXIZQSSSc3TBAILUb3/2gmORoQf2HsTWwxGEnPNw9S3X4aYrz0ODk+1stOkNczmq6hyoKx3AjteOoDdCx6/8EEVkoB2H129Cm74OVocLxYPzrryRdTLmLl+ImdUaBA9uwau7u+CN0Vnnrhg3kjFkvF0kBElERJiExOKqwJRKPUKREB28hnWQgcEcUvqOUgehIELhMDzKDc4QpH9Y6zF75SW4aM0CzLF40LrzZWxq8qA3MM5aMBqgZ5BgSHrg8bIqRCwxgIAvAY+vFCVsRvpTJr7nBkwM9vL8ZbRmfE5BCEye1MQlwswdiQQjSh4qyVHxzkKedKjE4gsuQLptPba9tQ7r93Whqyt3tOxGU2s32oIWGIpLMLW8De6WDhw9xN/aDqP98B7s6FhOA1aM8vH44EQIAa8b7oge2vqLce2SBhRZxSCSONktqKz3orutG53tvP+RFrS1deEoxSbsbPLQ0qq6KlFTNoCUrw2Ne3nfzjZ0NW7A3tZapA2TMbkyd+2ZhK0EJaUpmJNN2LiuEW2tHdn6dw+gPzRqeD5OJEgUe9FypJl1yXs2U2et/WhLrMHUOjOcFcVKutY0032tMF3v6Oky7M8wFA9X6BCL+OBra0Z7WxuO0kNnR+7E0Wmh1YTh7+tGN0lVNGGDq1QHZ6kHbUd47w4eh4+ipdeNduWmo0BsXiSOqFODqDaCcEcbOlsa0dSbQHDUpZU2VNXPxJTJdeh+9SXsaGnGEaUNN6LxwHa88vRhGFfMw6TaMuS3cBpExUIsIkG7cHo/1v7pNbYLDwZIcEad+hoLsRBSHTux83AbDrdKui1oaW/B7qMxTC4tQrGtHI5iPYrKWfdNXejM10EPg4PcLc4IxLXIrsr9fehPOWFrWIMbl9bDqGe7YQXo9RrodGH4ervQ4w0jHB+lVqxFKCrRoNTYgv1bu9i+WLajO9F0NIK2wHmY30DuOfpCvvc0znlyI+QlwnBG1g/JMTAwoByyIWEwyCiWv+VJjgoV7wiMNmDmzfjs3bdhue4Q1v7zvbj33tzxk0PY3QfU1TpgK1qIm796Ewz7H8VD/8jfvv5v+KffNGPa527A/KmVKMvd7rhoXYenH/yhcu+/+MYD+M4f7CiqKMfU+jKUVUzB4iVTseOhb+P7f8v7//YFPNECLKXYyU9Ai+QMXHj7lZhkPop1P+R9v/rXuPc7byK2dCHmXzAXddkLzzDqMJcE88KLyxF4+Dv49jf+Ilv///Igfv56W+6ak4EF2nQFKvqewu9//G3c+9f/iv994whqP3YTZjmscDDdOUz3osuqEPrDd/AP+XR/+CB+uq41d48CkIQZZ67E1YZ12PC/D+BvfvAwfvWmF5WTAJ3yeFItymuNsFnW4Q/f+wa++buN2EHvPalhJiZX6fDaT+7F3/wV7//nndjeDcxTbjoK5GbTVmG5sxn+V/4Df/93/46//lMfdK4ULMqamVFQOgszVl+Cb98RwUs/egB/p7Th7+C/Hj8I46e/j7uunImZ5aN7WUvdEsxZfjE+XPo4/u93a7HxYC9Cud/GBasBmQYn3L/8Z/ziG5Lut/D3P38Rz9Z9CreubsCsijLUTZ6BhkkWrPvpvfi7r/Oax7diUxcwP3eLMwIZxTzyPP7vJ99V9P61v/sJfvDnGsyYUY6aygaUVltRXLIBj373L/A3v12PTc0DOcFCVGPastW48LopaP/ZvfiulP9v/4jX3GYsuutyzOYV7+GnwcfEOb1DsYzQCHmRfEv+Ewkzy5TncxrI+oHychNKS12w2+3KGiOt9pzneyrOFBI+eHo8cPcHMRgcm0pRzui+vNgKvRjCxAA629zwhWJIQNZv2FEuu5yadDBqY4j4/OjvDMPICFr21MieC/BckOcmwZXxot/jRS8j+mzs4kJVQzmKHGYYkyTygT40dvqQlN3fLBZGkCY4ImkYp1DWzEi+dwChMLNVV63srKrVMDDoHse5JPPV60GfJ8CyyfyJGSV1NShx2c7Arquy0Z0PoWAGpkn5PPN0KoyQrx+d7f2QWT/F8FmKGPEXY3JRGr2N/dBWVMBeJHlOIi173hz3nB/unVvx9A82ovjz78MkJuRACgaLA0XVDaggSVDWRzDdsN+LjjbP6Oke7oemvJz3s8OmS9MfxuBtb4Y7mEBUa6FdMsGpTcFYVQen2QBNqBcD7m50B3lzVy0mlzvgkj2QBtw40p1bXEV7ZknrYJORw3qpA9nDyIu4zgJLZSlcwkkRR6C7Ax5vAP4072vifag9U1kl7A7Ji3Kn4WDeUsFeNHb4EE9mA0KD2Q5XzVSlvHrFfMYRCwbgbvYp7cpJYiJP8qRiQQT7jqIzVo7yymIU2U1Dj5OfEClk0kHWfSe8sdyUmN4MbVE1ZlTYlHdLyQhJyOdGU1duFTDrwMw6sGf0ME2uydZBO+uAbdNSVcY6EE2E0d9WeE4EQ/DyXEw5VwynjjqnjlBcCnuxCQaWo++IN1s2m5FliyMeKjyXRqLfB783AWN9LYoTvehkv/IqQ2J6+h0XamZUKLrMBN3wuzvR6WcDddVgEsmhIRKGv5+y7OPSdpVtFFJRRIP9aG9xK22IPZbBUCnJEfu2kuf3Js6y1y9k0LvzSexo6keHzwJbcR3mX34BpjI/Zn8TDh48iDf39yhXFs+/HEumV6O+eOLaSyaTuZXTfvT2+hEIBFgeIzIZaSnMRa7UdjsNgM1CklOEmpoSZUGgChUqVJwYXWjdRnLzwy2o+ut7sWpaEapP6yPvKlS8t3HWvH4hGWWE2fg6dh5qwtGObrjdHvR7g8oCsTRIQvY34tCORhxhVNLnPoRdr+9A41E3Bk5iSlymmmQayu32YWAgjlTKdAyxEQSDKRK3oPIki+zpozwNokKFChUqVKh41+I0kpsUogMd2P/Mz7HPcilWvu8+fO1rX8BnP3ENlhYB1tQRbN8ZQli/DHd97V781V9+GOd59qGnqRlN/omth5EFwjIl1d8ve1sMfwZ29LXDcr2M9ESVkRuV4KhQoeLE0ENvssFVWQKbUV5nkTutQoWKM47TSG68CCcGsKfrVly2cAqmVxUugSLjOHoYTaUW9E+tRYNs0q2ZjeWXmpE0BdEm25yOE0JsZEoq+zSUkZ+H0hmd2GTh8QTR2NijkhsVKlSME2Womn0h3v/APbh0qmP4jr4qVKg4ozh95GagH8GuQ9hQ7sXG//kRfv63f4O//t7P8aNHd8FD0uHp74XZqEORy8FMCbnQo7S8FKFECm7f+MlNHvlHwGXhcPa78mcUZH+Qa9PpzOCiYpXgqFCh4vjQQCs7BVtNyssgVYuhQsXZg9NHbhJxJL1e9Ld0I1o1HZMWLsXsygz0Pevw8j4/+v0RZetpo2Fo/bzBaEKKhCNesB3m+vXr8fDDD+NXv/rV4PHkk08qb1otRJbYDEG4yuhH9qkpflIOjeyuqkLFOQbpD7KmTEY0Zco2Go0qTxLK3/y+T/L7yH6j4vRB1dHZj/HoSGYO1K1FzjxOryeXV8bHijDloitx6a234eaLZmNRcR9e2e1GMDK+Tbllbxp5b4Tb7R48ZN8aaVgqVKjIPuUoBlaedBTDK4c8OZg/pA/J04PyVw45Fw6HB420yKnO9J2F1KnoSOo5ryPRwVg6kkN+z+tJ1dE7j0Id5UnMSB2NPNR+dPbg9D0K3rcHh/ZtxV/unY9//+AcTC2zKucaee4v9szD39W+gj2axbDWL8cHz8tuS57a83v87EAxdJULcM+F49sKLN8g5W2hLS39JEIRnsv9eAIUF9tx5ZVL2TjDamNU8a6CtNX8kY8q88ZV+nG+LeevyUNGLWUaduShvCOJh/KSRh6Fa9HUKduTQ77u5ciTTzlGOr+Rf8fSkRzyLh1VR28f8vqRI68j6UP5fpQfkVF1dHbgrHkUfGxoSCzKEIyn4PHn19dkMNDvhs2oQ6nzbHg5jQoVZyfE4IqDlGhSAhAZyZRtEOR7oXGWI+9I84RHDvks5+QQgy5HniBJBJqPRvMGPm/QVYwfUmdSryN1JHWbn9Io1JFceyIdyVGoIzlUHZ08xtKRfC8ciTmRjgr1k+9H0n/kPnkdyXWqjt5Z6D72sY/dLxU/2iGKEdYpyBvKk4YxgVjYh54/bYVl/hw4ioDgke3Yv20PMPdGrKoZQPcOL+JRAyoWl8GVOYr1v9uNSPF0TJk3FXX28fMwaWTSGH0+Kcf430FrsRgxbVoNG2VCbXgq3hWQPpl3bHkDLP1WDjGg0hcSbM+ReAjBmA/BiA+hWBDhgiMUDfBvANF4lO0+nY04C9ae5Q13/m8ecp2KE0OcWd6xFRKZQgep6ChBHUVPrKN0OkX96JT6z9sp+VuoJznyowkqTgzRR74fSR/KE5lCHSVTCdZ/mDryj6kjOWKJiHK99CGdVjeoC4Gqo7cXMkPT0dGhfJ4/f77ysm/pY8JfNPv37z+uF89X/KnvUMyG427BwafXYlvIhKReOjMNsLECl910O2Zb2tC2YRu2H+lGm1mDUvQjGl6AOauXYN68apSP8zFLaTDSGNVpKRXnKvJtXA7pyHIUkhkh5/EkHWgyilSa19DYBqJeBCIDiPGcQHm2R+xthv9T2rkGFqMNRfZS5bCabAxsjLCYLDAZzEqQI7YgP10l3+WvnFON8+jIO8ZCHYl+lOg+xaieOhJHmCJZiSWpo4gXftERz2XVM6QjxRHyn9lgVfRT7BAd2akHA/VmhcloUj7n9SH6UXV0YuR1JGSmsB8N11G2H4mOgtEB+KinWPx4OrLAZSuhjsphM1NHOgPM0o+MZhhG6Cjfl1QdnRxGTktNmTIFRmP2/Wan9/ULqRAy/v149rHNOOoh2y2diqq5q/DRVbXZ3917sWPHLry4Pfse15mXfwxLZ1SizqF8HRdUcqPiXEaWvGQdZmF0Ke1Vov9EkkaahldGacRZxuSdNIkwnWY/fOF+xUDnTLLSL5QjLf8DzHobiu1lymE12mmQbShxlsNlL1KMtNFgVBxo3mEWkhyJQNU1BFmI3RCdjKajPPEUnYSifurFi7joKEkdUT8+6kl+G1tHJDc26siR1ZEQ0mJnGQlPCawWG4loluSoOjo+8joS/RTqSPqWjNDEE1niGYqJjqTfZHUkfWqAeoom5LWfo+vIpLdQR0JASW6MDphFRySjoiObhf1IiKguSz5VHZ0azrJ3S72zUMmNinMR0hbzBlmmOIYZY8UgJ5WhcXGW/ogH3nAfvMFeRBhQJNM04iQ12Qg0wZtljadyTxpk2d8pk5YX9OlpmK2KcTZoTXSeTlSV1KGyuAalrgoUOUpgtzkGo08xxnLIZzHOqmEeWv+Un944VkchZRTNRx0NUEf91FE0GUIinR1pE4cq+hpLRzpFRxaF5Og1RjpPJypLalFRUoMyZyWJDnVkdQwSHFVHxyIfIOSXWhTqSEbRpB/JKGdWR27qqBsR6mioH42uI9GP6IlUhSTTovSlrI4cSh+qoJ7KXNQRiU6+H43UUf6vSnDGh+ORG9199913v/JpFIjSxMkLTnnNzWmENF6JmtQ1NyrOFeTbdL4fFpIbGbERp+n2d6DN24hO3xH0BTvgi7lJboJIpEhqMinIMhpZA5A1nkOHrA0QW0oXymtlVEHWfgQQCvswEGSk6vciEosoztFqttEAZyPOPMQQS3/JO873qmEWWyk6Klxbk3eaQmxkvYboqN17GB0DTegNtsMX9SCcCiijN6lMcmwdyXemUagjGVUIRvzwiY4CXoQZlIluREcyFaLq6FiIjqT/SD8q1JGcl36U1VEnddSEDp/oqA0DUelHAWUU9Hg60mhZr0wjo2EQcoyOBpR+FIqEFAJjMZH4SJCgyGZ1UaiT97KOJoKRa27KysqUp9IEKrkpgEpuVJytyC/yz0eaipGOk+yQhAyEPXAHxSCT1ITaEEwMIJGJZo0wnV02MpS/Qkrk4Hf+KMZZWThMG6qRfcHFmMrBps84VCFE8QSdtSyYjMpoUQK020r/EoiBl3sLCg30e9Uoi80ZXUdB+KijvmAXOug0hdQEEv3UUYw6YqTPOtSfQEfZOpW6zeorqyM6a+oolozldBRUdCQ/iI7kRcEiL1MgeeT1817VkeimUEdCbGJx1l9OR+5gN3V0BL3sR/645yR1xL+56lV8aCatjMpFREeRINOLZ/WXFg2KjuTeqo5OBiq5GSdUcqPibIO0w5EGWQ4xyAMhN3r9Hej2taCHDnMg2otoKoiMNqWMssj6C6PBDKNe5vgNigFVjLM8aSNGOWeQs0aUf5UXn4hhzhlnpi19KaGsQciu5QmFggiGQ+wjKeVeJpNZMe6FBnnonu8NjKajvNNUSA111EUdZUcBZKpwSEdG6kgWbB+jIzo8cXpaqcucTpR6zf2T7/Inr6PsOhHqKEYdUT9irxPMg9zPrOpIQV5HhSM2Ume+kHdQRz2BvI4CSGMUHempIxKb4+qo8OA/aR/DdMR+FI7kdMS2ouP9ZMGxqqOJQyU348TxyI2/bTsOH27EgcMtaGk5zhFiZzCa4DAPMXEVYyEA95EmdLR5EDSXwWnK2mwVWSjEgsYvv35DjHH2SCgjNt2+NnQOHCGxaVVGAlKaOHR6rWKILWYbLCY5LMpCYIPeqBjRvEFWpjp4KBAjKv8G/2ZPK0MD8od/ladF4uxTQR8CAb8yQmDkPR12p9LehyJXud3wv+cyxE4U6ihPbGSKQ3TU62tXRgK6RUdxD+hO6Rg1ypMzoiN5Ki2rI1NWR3SaesVhyiFkUw6C/xvUkXIoyWdB/YiO5BFx0VEg6IdfdBSLw6Azwml3KU9T5Z2n4L2qI/ELeR3JIaNqvX7qaKAJ3YEW+GNuJDUxaBUdmZRF9TLNN6gj1qdCQEfqSHQiSiKyn3L1WlC/2X6UHQ0NsB/ldSRk6f+39x+AcRzn2Tj+AHcH3OEKDr33xt47KZESSdWoukmRY8eOYzvJl9iy4xQnju18ye9L+eJ8+Sdx4t5tRZZkdYm9F5AEwAIQJED03nG4OxzuDuX/vrO7hwUIUKREEm0e8sXuzu7N7s6z884zs7Mz0XanyKcLlaP3CylubhI3Ejctp36MfQePYf/JS7h08QIulRXj2OGTOHe+HJcqK3G5nMIvkfmTkJoYh+w4i/pLiWkxUotzr7yC48fr0JO9BYvj6YGU+VhAc8havtMcMudH/pKDX0Vx3w0WNp5gHyXcqPgEkgWNLSoaDqsTdlpGRpBTVlsFxGskcshKHwFOaMVCSa4+8qEnn1a0dcUxc78RpWUgKMRNJGKj42G32oVgYggnr7P5DD1H+tYA5og/Ie739ghh0+FpEOJzzDAiCkguLG1RDkq3aB1HXGgqHCmFJqVnKP1uwBFBrNOfCRz5+BUViZvwCMQ6lQ6s+leIC4kjIWKmyEfs5zkftQrx2QBXsAcIJ460fGThfDQVR8orqXCoXzdp7GikjI2naShIXfKKxhG33gTomozhJuIonp4J/rRfqRTruZnvHH0QSHFzk7iRuInOWo9VWx/EAw8+hId2bcVD663oKB9F7o6n8MRnfg+feILCHyJbm4echChyTvKBfE/0V+NS6WXUeSyIXbEFSxOkuNHATnhyEzqb6Dwc8KLH3YZObyO8wy6EGcaohhklBE1sdALioxMR6yBnaXGIVhzx5YwoNJXEFc82P95iQf90j3ponfepG6G/IkzJX7xkceOkGqfDHrMga50aR2yTOeLPubs9bejwNhFHfYIj7kTKrSj8eX28M0ks7VSAmnn8Ey40SXyE0z9KNTI1scV/+sMhyiK0ZCj9NsRhE/5qHHFrkJP4cdiUlgE+x0LiiPnQOGK+NHEjOngHfYIj7l/D4pMrCPx6yM75iPJPvJPyEYv3KCdxZFG+biJhI9JrTOWITPCjJL2Awg+/jhKbtFT3i4USyH8VjsZI3Cgc2dUWNj1HnKcY85mjD4IbiRu1XVrivRBOhUSkOUp8ZhZlsVDtixwF1a6M/D7WooazRXKzsnwQbwqUsfnf+Ji3EhrYAXOBGXLGaqHJo6Ny/4D2gQYMDrvBDSZcaDptMUhLzEJWch6yUwuQScvU+EwxHorVbBc1T1OoX4cidsJE7VPte0NL7VWV2CZnKkz7x+v8NQgbPd78dU+3qx3V9VfR1FKPAc9AqCLEYKc93x0y36/WGsDrbOJ1lN+t9IUaaMRg0EWFJlTxSRwlqByl5ItlWgJzlACrEKJRIY6U1gFdC8EkfhTOVF60f7weMoWjnoEO4ugKGlvqiCOXKNQZzM9C44jzEG9z3xce7ZnzUQdx5An0k4OnCkKEUkFITchAVgpVUlOZo3ykE0eismBmIaq2hIrPuFWOtNZQ8W+cm1A+Uv8xKRM4otKXhwDg4QCqBEf1cLn7xXVq/LBJvD/IlhsdbrpD8Silw2ADio+1w5iZh/SCDCSb1X16kHOBtwrH3zmEEyeLcbasDGWXr6HM7UB6jAXWSKWZeJSH867aj3fPe+Bzt6Cr8QLe2nMMZXx8WT36YEFkjBUmXxuqDryCQ6dLUVxC+yqbUdtrRGpmDEyUWVipDnZWo+b8AbzZZEdqRDvqS8/g6IFjOC3iKkN9gGohUVbEWJRzhzDUjubKEhx86yBOqceWtfjgDrMiS/eKrb+uGJfOl+JUTQApxhrsO3gcJ041kCMPgyM7BlZ40HByD06eOIFjZ9R42HqMiDBbkWiPoOTzwFN9AHuPnMXpi/Vo63Ojv78DzVfL0GtKgdlqg8FVi9rze/EW3UdytIUci9aHiaWQB/Wn9uJSkxs9YTFIcShKvav8HRRfbMC1tgFYhq7g1bcOo6SkC14SprZECwxecvQHX8Xh0yU4fU69roqrKHPZkOykGtss6SfFzk1rtdGEjXimAz70eTvR6qoTtc3A2CA5WQMVjHYxDk0aiZmUuHQkOJNFUzo73GCQHDs9zyIeKtjY+L0/52vuo8HxjtKzzkt66Cc4VDF2B9cxeVM1sUscz69khuEf8pPIN8JmdcBKz5U2Oqi+c+R8BKcn86PnSBSkQZ/o6N3Sz1+uNcNPHBmYI7NNtKqx4NRzZKB04k6mSuHLIonjYY4UzkfIeEqMMbFkbpSqQIgjEcYrqvFCXRcc0XX5fX4qaJkjO3FkE60DzMtC4kgvQHm8pz5+ZahxNOohoRJOHPGAiAlCgCYzRzHJiCZBykIzEFDyEaenwjXxw/FxXmJuVOO8NIEj/j8FR0q4wtEw5aOhIZ/CEfFjJZ40jvQ8SVwP2XIzExgZhK+nBucP70XJ5UbUt/agp6cVrU2XUfzOARy7xJ1BFbE4yvP+1B7Dwf378O6pi7hQ20rH8vE9qDt/GKePHceRE8W4cPEULtV1o72T9zWh7koZivcfR0nzINU+lAzl621EXembePXEGZw+ewW19a3o5Li6O9DTcglnjx3DmYt1aOwLiuMF/F1ouXIOpWdKcLG2B93i3PW4UnYGJ46V4VyDS2RahrvlIi6deAOv7TmMQ+UNaGzromMHqFZIDmSE7qevCjVN7RSuXL923uKjR3HqQg0a+gIi84+QoHMNeKiWOywKYJ9LOd7tIwdCenqorwn159/B6+db0eUJiHMr4Pv0ouUCCZcLl1HZMS64+64dQ/Hht/DWodM4ebUZnd0cpxteinM44Ia/uxoVDd1o61CvrbMZrbVlOLznIM5ebUen5+aF8J0EVyK41UYRIMpMxOxEh+g56fd1o8fbhsHhAfKPo5SRIxBFBSc7Yac9TjhnR5RTvI5ihygcK4sU/TJk6gm1pR4ijB2q5lRpKf7zH46XxdYgukmUNrSS2OpuE31x+Fr1jlhz0PMNzI+eI05PhaNBhaNBSo8g5RuMiNcZ3HmYOeIB3HhEYW7F4VYAdsEaH0JkquvCiC9aUbfp0Ml8iTDBiAplTUlz3j0Kniag29WBprY6dHQxR54FwxELGs5LLEa0fMSCnl9H8QB9Pd5W4qifUmkYRioQLZyPbJSPbLGipYb5Yo44hTmpBTdT5CUmRyx1TIQ4IvDvQ3u0dBZprnLEr8dcXWhqrSff3gaPx03nUvy5xst85ehOQrbc6HD7Wm4ouwzUo+niYXzvJ6VIfuTzeOSJ38Lju5ZjeVYEgm/8Gm/3xMKRFI+8FDvCePyDhmIcL61FjSEX2WsfxP/62EPYunUrssfO4EpJBU6eKkerfwBxO/8CTz14D3bvKEKmoR99Z8/gZNgyLEu3wRllxFB3HVqunibB44fXnYIlW+7Fwx9+GPdtXIOty+xoOboP5a2j8NrTsTjDCgM5X1/zCex7+xQuuxKx5rk/xice3Ypt27IR01yJa6VVODKYiO0rkmEKD4O7sRS1lRdwqSmA+pQH8aknduPxB9ZgWWESHMFBhDUWoybxYazc+gCe2LUVWzcp5+09eRBX+0zwObOxKoucRsoyrMiLRLCjAz5DFlb99p/iM09sxdL0aDgpLX09DSQ8zqME67BjUSKS+FMqNW15nrKmcyfRimRY04qwIlVJ/J4rB1B5pRZX3Q748h7CV557BNvvWYL8NCesnk4EuhtQlfkcHt11Dx7YQde2fhGWpYyi6Z1XUEnpHh2fhJy4m5zE7A6Bnzvtqw6tNYDDRG1zsBud7iZRcI4gQMKGO6cqwibemYDEmBTRAZKbw4f8Q3B7XWQDGPRTfH7uF0KiKch9Q8ZrsVz71Apn4bBDTlu5FnbSykJdFwWucq2isODrI0q4EzP3v+Gvp7jmpDljzURc8wR8L5M54rQIDPtFB1XmqNvbIr6M4rQQhSZxFEccJQiOnKI1YAJHQ+RfA0Pi83HRksPxjmpxK88AF3ic/uOFrHItvNSuS+GL93MAc0THD/Pvw8SrL9H/xh69oDjSWm00jngaki43VX68zRgZ84tXTJZIm+CFW0BDLTYGk/L1meDIBR9xxPlI4Yjy0QhVmrgFh/gReYHzEfPCS5UDTlLmIJS0vBSmhvF+NuKbhSq3wvKXU+LrqYiIec3R7YBsubnr8KCtphynDl9A/cbfw7ZliciP4XAnnLFL8eHf34y4zk60t/eiTRyvYTm2rlmF7etT1G2Q0LkXeVQ4R0bFwZP+YTy92ADlLVESUrIKsHpzLJouVVJGpYwsfkEIGoGGZGx4fAMWr0qDjcOMUUD8NjxwfyESvB2oKalELRWRo+jB+b0HcCmQBOvaHXgwlxSveCqysHrLGmxYlgD/+WpcpQzLsxIpSKDa50Z8+unFSE7QfRUW6QCKnsZ9ixJQEKuGGei8cduwfnU0HDYPulxudcedQhbyMtbhYw/nIcKke7wdGbAtehhPLjIhQRmdm643EVEp63H/RgMCIy5yejynz8yBHRc7Y622qTlkDveTcHSRuOHh4LkvBTdV8yepkUYegyNSvBpiJ8o18z53L/oGujHg7ReF5hCJGxZHPKcRO2RuRh8d4wJPiVucW+eA1RBl3xS+lHysuuQa7Zhw/C3tTejoahej5GqOWAOvax0j5zoEF2rL2mSOuBOxy8ccdSkc0X3zlzAKR2biyCTSmUep7RvoQa+OIx4BmgtSbsUU8YoCU+VIcKNwITgK0aLbUAJC4OTXjMpMeEhAtXY0o11tvZnPHDE0jvTCRnA37FOnJ6HKDs+zRvfNfZw4D4nO9yQ6OY2Zk37myEUceYgj4mwiRyxslHg14/gVozQXfOiI0a1q4NRnCgQNZN5BhaO2ztYFwdGdRrj2+mMqmwtzSc1KeNvR09qChi4D1pCadNos5Oh4Bz2slIkiUlOQHN6PMbeHMo74hYKkeDidNjiN4w9weCyFRVmQ73RiWX4BIg38wIs99KAbYCDnN1rXjj5/YFx8mEjcpCUhjs5rJaWiZA/6SwVgXF4hUp1GWKj20tPj5+YOVNUPkHhKQl5mBsb1QDgM0VSDcEYg0d+Jrt4xcgbqLqsFxtREpEYaEaHLfOIcYhwINxpPvYxff+ur+OpX/wpf/au/wff2NuDyNQ+G+gfQT0dOyue3D04HLIkxSKIb0V8Z994Lo7SIMPSi8s3/xg/+Qbm2b/7Dv+FnZ/xoq++H1zNIsnTmIJzvFMKGMcyfj46QgCXjVx3cn4YdMbfScOHHNUke4r27n7mi58/VBZe7TxRqLDj8fnbKAYxw3Lr4uTWAlwzNMTM56mnHeQqtKGDa2Vjc8KSCPG6HZ9AN/gRa6yOgt/kmbrRCU0kzJXG4pYULTx9xNMIc0T0rX6kpr544bXicoJ7+DnT1taO3f5wjpVWABKjaIqD0vVG40TjSziXOx/814+viCxB/JoI54h2CIxKhfC5+DqbiSP+VzlwGp4/GkT7dGKMaR8NeYmiY7pc5UvIRpx/3q2ExI/JRXwflo07ijDgi4cECZ4jEjcbRqNrvRjvHZI4ELyonYl1ZvQ4ixekPjzTN52GO+ByTOWLMF47uFPgNk6Zfws1mM6YzrXOgxC2CHEmAauD9vS50Fb+M3/zqJ/jhD3+o2E9fwA9fL0NjXy16PZPEjZlnXeZp13QwmWCiB9pGy2ibVc0JOlDBhkHKyCNjlFlVCHGTCGeECZNH2zFZeSZhKhgpcwa4n07ATRlqBL3XzqP03V+OXyfbi3txoLQSAyNt6OzmDqRqJJzBLBEkbCY2/Q37+tFy+qd0vz/Du+W9cMUsw/r164UtzrAjxkTOgBSSrrfP7Qfdu4Hum59cfVINdtei6vCP8NMf/wKHWkwwpq8U17Vm1XIUJRkQRVc1MjxyZ6/tPcAOkR0yi5uQo6R/SqFJAoWc8vCo0v+I5IL4y86TC8IhMTBYP/oGetHvprR398NNYmNwiH4X8AlnKToWi0JTKTiV1oFpHDNHzJjKK08K48KX+zGwuOFXAeKLHEp8vVPWHPV8gL41gI0hOKI0GApxNEZJwPev5BA+XnnFwRzxfF3EERWabq3QFMJG6bQqxK0qQN83R3pQsjNH3HrnGfSA+0YJjniXjpP5VGhyGuorCQyFI2V271A+4meUE4jST3DE+Yg44XmgOC9xPhogscGtbcqrXX0+Gu9QPCVHaovbzfJEvxbn51YbNr5+hsaLuNZ5xNGdAI8TpOmXcKvViunMYplcNErcCljZD7l70NeraxHrc6NnyInMlYXIyYxF9KSPlm4LuJbssMJsDIfy9lEHcqJDlGnGXzEpGB7ywqt26g2ZOwzG2FQsXp+PFHO4EDPTQu1AXbLnNZy+1IYBxyIs2fEknnrqKWHbl8UhxaEee7cRdKG34RLO7N+L01VehGVvxobdyrU9/sgD2JpnRPRUX7vNAPTOUYCWwuGScBwkIcoOOgQ6hI8P0nPmJ8fr8bFQHRDO2Uvr4pWUXthoTll95cG/1Uw7J59Wb+IkKpRtHbRtei7Y8ff196Kntxu+IZ8oMDRnPJ+EDUOfZgxKNaVlZIg48g+IGaNFgUnGx3Dhx2nPIpMFoMaREIOh1gBV2BA/Ckd8Do2jycJG4UKzcSLU7ZDp0pxW+Rlhjrp7iCOf8gpWz89840jjRwP3t3H7XWIySzGrN4F54qPEV0tU4eMWTq/giFsiVY6GPIqw4RYb8WpXEU78WkoRT2SidU3jh2Lk/+rpFU6UDTVIWYpw5TnRwAK4z9WLru4u8Wzws6XniJcS0yMyMjKkX2RK3QnwWCLc0hKfgCWPfxG//8d/iq985SvX2bO7VouB6247RGsOf72ka81REejuQC9l4AG6vkgjZSqjGZER4UhbtQO7f+fLU17nH3/u03gw3yg6+k6LQC98nZdx+qIRqRufwyM778GWHO7cwjmYnPUwZVOlAnXz4J8G6bfkGEI/ZSdBTioQYGekhr0XfM3obqnH5eZELH/yC3hq2xIsTuKOw+yIeKRSJdqZBjtFdsoMrbDhyxoa9oq+Nlx4BrkzuwruWMpChVsSuObPzpBHpuWl6KBKDplfQYRaA1RnrNU0QwXmBKesGkOEKUtxITqIYGVVwEfn5K9xWttbxNceDH2hyTYfMBVHDNEnyteDAT9xxF8Nqokjjh8hAUocMEf8+kkIT0ov35Da0fsGLTYKRxOFjfgjVrR13XIS9EHcitfZ3U4cNcM9iSNeautzHRpHvGSIe6L/3PrJc325h/oQYI5U8PMv8pEQoJSPBEceYVonYoUjRdgoLZ8TOdLOp3Ekzq2uKwG8VNaVMDIVulXxTHR1d6KlrVlMz8Dx6Dni5Xzg6G5Aips7AWsK4lJSkZ84gvaubqox6GrbdwMkbHC6AvVuL3rVIA0NteXoHTPAmZ6FvPhIhMUvRmFGFCLDqAB1f9DOvtxOlIkYZySiQo1+rEB60N8zjEGvEnLTYPXS3g1XIDje0jQSEP2Eqpu86BxQw24KVhgNaUiMC0NEqDnLT06KarLtYwiM+7oZATtHFimaQ2YojoyTYRg+Kjz5U3B2sOwN+Sj+DTtZzSn7/IPCGSuFpvLljXDIXHBSrZTjEbVM+o1wxuTUQ05ZCBz2vbzUTLkOJZxXVJsCfhJRLGrEfDm0zo5YjLirKzS15VzFZI60gobviPtE+YLcCqNyRODDRIsA7VM48otOqcyP4IrWQxwJfnQc0bk0jiYYRSpMxM/r47Tw+o04Yl48XoUjPi9fu8aRxot2T3MVnCZTcxQmxAh3+vYxRyRWOJ34MG51UfLRsEgXFjMTOOL+OxpHqgBljsS4NhM4Utcp0gkc8VIYn1DdmAYBunZuLRoYcIU40uchvUncGFLc3AmE2ZCUlotlixPR8Pa3sO9CG+q4F60Al6LVOHq0CnXjgbcZg+Rti/Hm0cu4XKuew09KoPoNvHmuC15HLpYsLUJsGA8lnoCV61fAMlCBsiNv42A96YdQ5utEU1MVDhyop8x/gxzJiIyE0Un3HdaK0ks1qGvtE8EBdy+uvflvOFDRhNrJYsQRDbvZgkhyHt19/SGHxLBHxyEnKwfhzXtwsZrnUeJQKhzczSj+zZu42tGNgfe4pBCsVphtRlh8Tdh/uhrdLqVJ3t1yBRXv/ABv1fjRE/rUbGbA984OVhMbEx2ZOILCxUJZjk4UN/yZNwscfsWh9LEZUr6OYmFDptU0tXNoxudi5y6csGbq9Yh/tFSgbvOa+CMCFajbvOBr1Zyx3inzkgvSuQxOCz1HDMGPeo8MkW6cFsIU8Sj6cqniJsSRaA0YUgpNwdGk1gCNJ37doZpIfxH/uGnnFInP6+qKCNLCdcYLhuDGMJEnjSPtXuYi+J45LTntNCgc0T3p8hGbSA8WI9z/jNJ7mIQF88Ovpsbzkdaqxn3ylFeGwypHobw0DUd8Eo2D0FK5AjVMW1e2hTF4qctHkysJc52juwUpbu4IjDDH5SB79XZ8bFk46orfwK9/oXXU/QXZUTQMUS0w8g512ObBwQrXYBFqUHvsFeW8P/k5fvjyfvTFb8OKteuxNssGk8jtEYguvAdbVuYia7QG7/76h/hRqFPxGzh4uha+aLvqGG6AcDui4gqw46nlsLeexenf8H3+ED9/6S0ccZGQirMinqKZAFMaCpYUICfJj8r9v8BPfvQj7L/UjlYP7YpOQ/LS+0DRob3kLfxGpN9P8MKr+3HVvhYpCdGIv9kuYYY4JOUUYvOONODsm3jnhZ+Ka/v1vjJcCBSiKI1HkFWPnSGw82NnKZygCuGUVVMI4D4cSididsrsWIWzpQKShYyfHLEQObwU/QOUQlPpG0AOX3PGmlFE+n4CmiknYKNTqqsC6nYIk7a1a9UcsmaTnfRcBafNlAWnZipHoTTTCVDmgl8RssDRc6QUnEprgMbReKGp8qNxpC35xHwCXhdLDmAo6xwUgn6dIK5S44i/5NLxoq3z/rkKTg8t/UTaEPQc0R8RxuC9fIzCEecTlSM1H3Hn4dDrKFXYiLhvkiNxfl4XS3FKBfpNXtHvY6jXyqNXa9zol9xpdi5zdLcgxc37QbgJsKShcO0y5GfGI+a6XrsESxyic9bhyUd3Y1EcPa+DWkfdATIz0rPpd3HKgCthJgssqSuxZlkWsuJt4kufcTiQmLcUBSsKkRlNx6qhDENULGJzV+CeewuRHm1GqHyOoHizN+GeQirUI4eU87q86DGkY/XW3diyIk/EFUJsAVas34Z7VxcgAfoO0CN0qw7kUDxaZopKyEPuktXYsCgRVgobf4Do/LYsrHz0Qdy7OAFx4T4Rh8s3jMiCR7Bt+07s2rIUS7NjMD5MXgzSKK4VG5ci1zqI/r7xEYphjoEtcy0eeeB+LE6kQpJHFO1xwe2PQOL6R7HtvvuxdTkJyNjxxLenr8SSZXyOWN05GHbEpC3G2ge3474cMwx+t7i2wfBoxC57DA/u2o77N+STyLJPSvu7B83JatCcsUh3Ne0VqM5TPV4pOHmUZyooyUSBSTVQRdiQsUMeZdO1CoScstpiQw6Zt7V4FROnEuvKOXldXIDii5VgBdqSwGO76J3yZMc816GkhwI9RyGK1HTh40RtXnyVxgKUX02xmJmaI24NmMAR/5b5Ubka52Xcxs+lnI+Xei5C67pwvkw9R3putKV45uYoQmmjQuOH71n7J0CHUBIrzz6lMecjFpqKKZWF8QqCyhGLGjUvvX+OOEAJmxIUrnGk8TGZI7a5zNHdQlhjY+N0ySyI4/eNjI6Ojjkx7g0/POxIeOTChgYey8UnHqybQUyMDbt3rxVfEvDDHnoQ5xB4lN4zB36J7+Cz+D8fWorFyWIIP4lZDn5meYwGt9st1rVnj51pe18zLjUWo6nnGgaDA+TkjGJIfx7Ej0dX5YHiwtnxaVKTfsq/F46XluyMtW0tLNRio23r1pVw5RjtOK12OjqiLocpLhKhY8MUf5C2g0B8dDLWLN+AB+5/BIV5hdBGCuXfM7hA5zmzOG/NRUzHEfe/aO9vRkXjWTT0VMEbcE3kiCfCpKUy5o0q8G7AkSI2mSuVC1pX9ilpH+pgzMepx/Dyeo7UdeaI1wNUj3EkYtWSdXho16MozC8ScxiJy6E4GMyRNvLyXAQ/WxpH+r43vOxgjppKUN99BR5/3ySOiB8xYen0HIn8ExI0tM08iCVzoOOIt9XfTOZI29Y4GqOl+NiCl5yPiKMYWzyWL1pDFbvHBEcWs9JEzXEw5jpHtxM1NTUoLi4W68888wyKiorEBNYM2XIjITELwDWxyTWzUO2MFuzX9M6THSx/9SRabrhWSY5OqWVyDVMxLjB5KY5VB4RTnCs7Xs2U+ISjFecg4xqtej76K/6TB9cC1fXxTRGkhoWPUQ1TrWVOrnHO1QqDBuaDXwlo9xPiiJe0X6SFeBWlpGeII+JBee1xMxwpv7uOIzVOha/xdFe2eUW7ANXoWCVMXajXxa/Kwsa45UbhZzJHynn5F3MT03EkeGLQvSncqPzQM6lwcGOOtOMmcyQEzmSO2DjdQ8bbvMLnV65BrHA48aGuCm6UYznLT80R21zn6G5BihsJiVmAyU55gmPmA9jxCSPHKjpAKs5VOF12wMIRq0JHbCsOWTtmwhc4wqmqDp7Weak5YGH8T6wrTpfXhQMWznfcJjhlYXylanO6cdwxa/c0150yc6HnR88R/VHSg9NSpK3CkcaDZu/NkbIt0j8U1xQcqcbghVgX5xdBvKqGq2GqMUf8MplH5NW40Z47Nr4OLd65iOk54idT44iSQpe2E/PS1BxpAueDciSMuRDbYqEsmRttKfbzqzTiSBU4eo60c0vcGFLcSEjMAuidslZgsvG20RABs8mCCIOZMqwyhxQ7NxY5itBRHfA0xs5QMfoN/05dKo5WXepNDVMKAjWMrpGDQk6Z11VHzOv8aizKHAWb1QELLUVzPzlkvWDja5nLYD709xPiiAohk5ifiDgyjnMkCiFefgCOQjxNZyL9eX2cl/ECkjfUbVryNAOCIxtxZBnnSCs0+Z7ENfPBcxh8T3wveo7EdCUqR5GUj3gceI0jtol86ESNauP8qJxSGt0aR5NM44jiCOUp2uY54iyRUWICWn69wq92NY60+xLXwD+QuCGkuJlniHQkIaVgI+4tiEO0ecJEDhKzGKKQVB3yRDMgKtIKpzUOdnM0FaIRwrHpnS2b4oBVC61PdMiiH4BmFIeyVNc14+PEOjtcbams84p2nOKQ1f3klNkhJ8YnIy01DTHOmJBT1pZ8f6HfzlHoOZrMlzlC4chhcZIIjQzdq56DG3NEx0/FEZt+PRQ2zoEQmWr4OC9stC745KXCUUJ8ItKJo9iYWDG9jp4jvo9QPHMUGi+aWNObme4/2hoLe5TKUSjNFZ60ljaFD40fZVsJHz/21jkaD2eEjuH9fJzgEHSNFiTEMUcZiCGOeMRdjSPtnvTxSEyPGRM3o3433K4+dPb7wN2iBFXBQXhd3WIK85aWVnS6hjAUlCTeCmypy7Dqgc/iSw/kI/WGQwpLzDawY9YcGK+LbVq3WRyIdyaTY44jcWMWzlC02qiOVt+srjhmWhdL2qZSTTtOmOoYp3PGyvq481U3lAzKC9UJa8cJp01hDls0MnlgyNw8JCQkhApONr4nvpf5Ar4f7Z7YmC+bxY746CQSOPEwGfUcKaZxMz1HOhNpy+k6qQAVYYpNFDFiQ4TxkvlQ9iumccStahlpmcRR/pQczSdogkafl6wWG+Ko8hdjo3s3WkS6jac7r0/iiMUOL5mfSRyF0p7XxTantRomwjlgYhj9EWG85FU9RwqvxBE9Ryxs8vPzkZSYFBI3mkncPGZM3HiqDmDPy7/AP/2qFN20Lfp9t5fg5Mv/jueff17YP79ejvL2GR5dTULiLkIrONkU52xAhCkS1kg7LCZrqDldFJ7kVJUCctwh81KEaQWrWKoFKHlR/W+0gjJkwsuys1XWtTB2usJURxx6HcXGX0zRcfw6JsYZS4VmIux2uyg49a02fF0i/jkOTcywjXMULjiKirSNc6R9sUSmpDf37bi9HAkRpIZN5ii0HTLiyBAJpyMWiYmJcDgcouDUt9rMF44YE/OQypGR8pFZ48g0gSPBAy2n5IjDNK4oMTnded9EjiZyNYEjzXR8hIQNb6tLHj3VJDiKQVJC0rzn6E4jXBnPZGq7c59+N+BqWRWulLbDHySy1LCy4z3w+Ffik1/7Cr72tY+i8OpZNFXUoOZWh+2XkJiD4IJTq03rnbJwzFR4WiLIMRvJMY8pjln5HFtxxPql9spDa9ERzluEK9vjDl0zClOdL28LB82OX3O+wgErxyrOWw0ThUMYIg1RiLHHIdYZB5vNFhI2bHzt/OUJf547X5zye3EUZbSRvLmzHLEJLjSOeKlyRCWqGk5L5miEObLAyRzFMEfj4lPPkcfjEXHMdXA+0gsCvZlI4FgirIgyTeKITM+Rss4c8bbG0Tg/gg9K33F+2KbhSMsvOo6UvKNyJD4FBwkb5iiW8lH8hAqCxhFfE3PE55GYGuxnNP0Srk0PPpVx4t5+jMFbU4becCNGYtMQo4ahowZXAuFwJRZg8/JVWL58G9bm8ARmPWjokq03EvMfmlPWHLNW8+RwS6QVsY54xNoThJgQDpQdsa7wHDfVIWvLkDPWHPK4YxbOWHW4485YDRfrqkMWzpgLTsUhizFUuLl1NByOKCeyM3OQmZkl+nLw9bPv4Ovnc/FYWTwuB8cz13FjjlSRZ09UOQp73xxpdh1HIV50xoXmhDDaFoU20UPGBafd4kRWRjbxlI242LjrOOLReJkjXp8PmJ4jC3EUjzgHcUQVBRBHE7lQ+NF40a+HOKJ1fXq/L454WwhPzseK2S38apc4yspB7CSOOO75lI/uFJhvTb+Ea9ODT2UWy82Ob3+TGA1gzNeCy1VuGBKSkVGYBm2gXH9rIwbsERhNJQcuJmBMRMEyO/xhQ2jr9igHSUjMc4japeqUeV0z/gIp1pGABGcKbGYnwsaoUBJOkZ0yO1XNOY874ZCJMNXx0rbiXNmU8FANksJCzegijIzDVGHD2/TzUIHJBUNEeCSS41NRUFCE7OxsxMTEhJrSGVqhyYXEfMG0HEWqHMUwRzHq6ymFI56bTeNiSo6EjXPENiVHvF/Pka7QVHjibT4nc0Q7iSNTeASS4lJQkFeInJxcKjiVjqp8D1zgz/XBFacC88H88D3qOTJHWIijOCQ6U2E3x8IQZlIFxp3gSOFiIkdqmDgnGVUSMBImWpESY5ORn1uA3NxcxMXFTckRt7DxOSWmBqeZpl/uYp8bemD8LnhqT+CMZzFi4lKxOF7dRVy5B/phMYYj2qqMLkh1JNgdMfAFR+HyKBMdMvr7+9HW1qZ2Olass7NTOFAJifkArqlpxg6ZlxGmCDisTiFuEhzJlFdsYrwSLtCEI2bHrHPOyrriUJWCUNmnbWtOWnO6E011wHwcxRMKY8fM28K40IwUrUn5uUUozC9EagoVGHa7cDB8zVxYskNmm2/g+9O3CvDSRBzZrdHEUTISolNhMdmIIRahnI7ECbd2CV6m4Ei1W+aI1sVxzInKkVgXrzqo0CRhwyPe5uUUooA5Sh3niK9/vnOkmZ4jW1Q04mOSkSg4st9BjtgUjtgUjpQwsS626TpJYDltccjNLhAcpaWlhfrbMEd8Pi7fBgfHy0GJ98ZdFDdDcPe04tivziMtPxlxKfrJjW4eL774Ir7xjW+EOh2zfetb30JFRYV6hITE3AY7Ya3g1BwzG49RwrW73PQipMZmw2pyIFy04FDFgV99qA5UMc05q8bOWt2viCHFQSvOmbeVfdM5Yy1cOU4Z1ybOmYBli1Zh29ZtWLRoEeLj40VzMF87Q3PI3Hoz3zAdR9zClkAFZ16GylEEcSQKT601QEtDNoWHkL1fjkJhZKog1Thi8bm0aCW2bt2KJUuWiK+kmCOtZY1fdTBH2jQ78wkaRxpPmsDhV1MJziTkE0dpcTmwRTrfP0e0fR1HtD6ZI7YQRxzOYcN0jTAhxhGHJYUrsGXzFixduhRJSUkLhqM7ibsmbobaa9BWVYKyoqexODUWyZb392noo48+KgTN1772tZB95jOfQWFhoXqExNwEeWP0ovy1b+N7v/gN/udcmxK8QKE5Zr1TjoiIFB0Os1PykEcChz9ppVCM8pw0VOPU+nbc0NgZqw5Yc7rCGVOhqDhidvBKuNJCM958LuYnCtI6nc9stCIrLQ9bt2zDpk2bkJWVJVoE+Fq1zqk8v898dsh8r3qBIzgyRRBHMchOzhUcxdmSYESkMm/Q7eaIw1SOBE+CHzaFI+73k5GSI8Qnc5STkyNaBPg6NY4GBgbmPUd6fnibW28cNieyUoijtELE25NIYphvniMhcFSOdPyEOBJhfKwaRkshanQcjXB/KOKJO3qnJWZh25Z7sHnTZvFKSuOIW9W0ebLmY8vanYaBhMI31PXrwERp72E5kT9IJmirqMCZd/ajuGcI3pZKXK24hIuXa9DY0YeuEQdSjc24OujEmDkBq9KVyR699adwxeNEVFwGVqZZRRgTzzVEVreaae+QNfCDx7VGl4ubW+kpuklYLBHIy0uljD8+4drdhLf2OE6dPIEDx86grKxsktXiWoMf9qJkWMLCqFCbb6DcDzeqD72JMx0GBGNzsSVP6W6+EMHv2dn0zyFv82R/PNIqF3IDAy64PQMY8g+BP1EVjpUOF78Ry4kmPktUa49iXQtnB6yGc7ziGN7HS+GoaclOWTjkMYSPcB+OVKxavhb3bb9PtAiwsGGHzH0DuMDkrxX4FTL7jJnIS3cDeo54qYXxkPlcgLIfYn7c7gH4hnwKR6IA5PRVlpN5uiWONNM44qVaaIaNmJAYk4KVS1fjvh33Y+mSpYiOjp6SI/aV850jDdo2pwN/OcUduN0eNwYER4OUzCNKmnK6q1xNy5G6FPt5qXEktvV8kek5YpEToGsZNYqxkVYsXomdO3eKVhseAJOvjcXnQuHog4AnyOauKYxly5YJbaC1eN21lpuwyFhEUYG1PCaAoNeFvn43PIM++IM+uAb8MEbHIozFSEcPBsSoN72or3KRnmZHujBmtva1lOHc0RM4cvoK6ok0Jk6z7pY61J4/jgNHjuBwRTNa+mUfo/mMkAOmjDq5dSAy0oxYZwJSEzKQ5EyDwxyDiHCLcJZjlHW4hUVrfRE1SnamehNhioUKRArn9fGWGjbap7YCiP4blBejIhxIjk9DUf4SLF+6XNQ0+fNvvi4uNLk1oLe3VxjXNudTJ9XJ0HOk54eNW9lioxOQEk8cxaQh2kwVMOIofGycI42D6ziiwvA6jtR9U3LES+ZomK4HJuLIjuS4NBTmLcbyZSuowpY3ocWGK6qaX1koHE3OQzwLOLeyxTjidRzFEUdREznSeJqKI5Wf6zii34Q4YpvM0RhzZENSbCoKcxdhxfKVKMgvQLQjWlznZI74ldR85uhO4a613DiSk7FoyxZs0WxFHKwRsRgKK8InP7MJqZYhuM63wzswhGAqPYgD5Sh+ux9R2YtRsDQd8eMNM++JudpyM9h4BheqLDDn7cCzX3oOj1M6bVXTa12hA/HBMrz+2n6cbDbB5ohFZqIDkcb5MvIreQsMouncSVQPxcCSWrigW24YWi1Ts1AY/WPnzC04PBdNuDClGTtIzy6P2SFqklyDnFyL5MeatrXaJjtpcay2n4+lLC9Mdcr8NQd3HubPnLNT87Fy2Wps2bwVGzZsEOKGW005v3DzeXd3t6htLpTxOJgPftWhretN4Yh8WbhJ9OngARnFDNTB4es5oj9K+iv2nhxp6yGOAGMYcWSLRVZqHlYsXYUtm7aI11E82i1/UsznYF6YIzZuGVgIhaaeIwZva0vREkqCgvsn8ZxgnI+4hS1IAmN0mAfMowM/CEciL+k5ioDTShyl5GH54pXYrHJUUFAg+tnwObisZX66urpEnpLCZnqw+Juu5eauiZvr4G9Hc7MLTT1mLN+YjShzMnJje9BZfxT/9e0XsW9vCWwPfxabNy7Cohgeo0D93U1gboubIIbsaVi+KQcJFKbdttGWgPicZdi12oqOQwdQ3R+BIWcmliTNlykW2DNIcTMZkx0zQ/QbMJpE59VoRwxiY+Jhtzow7OcvX4bgDwREvlWcrGbsbDVTw/gRV9dFDZPXVWcsap6Udbjw5H493Hy+vGg1HnzgQey8bycJm42iDwd/csnXyAWlVmhyM/pM5J+ZxGSOOE240DSrHMXFJMBui1Y58iEQ8H8wjrh1gPgRHAUVjngMpGWFq/DALuLo/p3YuHGjEJ/is1i6Pk18cqHJhcJC5EgTNgyNI5GP7E7ExcYTV06MBKj8II78fmUIg3F+2N6DI16KPMR2PUc8Pcfi/BXYvfMB7Ny5C5s2KuKTWz/5+jTxqXG0ECoIHwQ3EjdhjY2N0z7hnLCaoOno6Li9IxYPc2c2EiCDJiSlR4uRbcKG+kVzdkuPMiRxNNUS4xwWWJVrvSlwhuVmPb7phoZeqkX6lIfvJhATY8Pu3WvJ+SjNgHc783cf+3f85E0v+lM34Nkv3I/FFDZB03GOCfbj1M/+DnvaMhG98mF8+rFFobGC4K3F1ZKz2PvuBbTTprj6rA1Ys34TPrwmmbdUdKKx9BxOvHQc5bSl3GUm8lavx86PrEUWbYnzeutQVXoWe945Px5f5gaspvg+slYfnxdd1WUoffdtHKcDKU8riMtFwqpd+KMdmYgw6Jz/iA9wXcBrLxzH5eZeuCnIaHMgeduDSDz1I5SOFiJ23aP40905yvEYQP2p/Th78hzKetQgRsZ6rKBreWZdihowf8F5UTN+Ltl4fXhkWDhhl8eFuqZqVNdeRVtXM1zuPgwOeREY4fw7xXOsBolHnEzvqHkZRmYKt4gB+hLjklFUsDhUy0xPSxd9bNiJ8HWwsOF8y06ZfQS/nlqIuBFHLGYGvAOoaySO6q6itaMJ/Z5e+JijYT9RcOsccYEaEW4WE0HyV3QFeUUhjjIyMsRrDs3RT+ZoPn7BdjPQ86Nf8kzgXCnwDLqVfEQctbQ3ot/dS/nIQxwFiAJO9EnQaGNOJnGkCR7myGaJRkJsEvJzCkMcZWVmiX5Q2mC5LD41jriCsFA5uhXU1NSguLhYrD/zzDMoKioSs6kzZq7lJjwCkRau1fD082phajTDYo8JdRSOjjJRocg7bg38sM63lhuBMBIIhihYfddwpc6DnqANGUvykEh5I4yESPnJYyip6IA7dhmWFKYhPd0Ef2sb2hr70G1OQGES1eDCBtFWfhJnz15GiScR69cU0nHpiCM+nDFW2IsywMMPcXwVp47hXHk7Bq6Lj0SjJQEFIj66wv46dLS346ovmTIsH5eGtDgDxrxdqLvSimB8HhIcEYgy0fUPdsFVexovvnkQTSN0roxcFOSmISnWDmP3OVy7Wo/G8AwkZulabrou4lrHELrDU5CdRXGnkTkD6G9rI9E9SCIqExkxJuVa5jG4ZqfVPtl4nfsPcOdVcyTlHbNVTA5oi3KIwcoMPDSYgfIQ5SseE4e/AmETtUrNCdO61ieAa5bWSBuirTFiqP60xAwsW7KCnpEN2LB+I1avWS0mxmSHzOdmf8AFJdcy+VUUO2euWCxkTMuR0aRyRPlXcGQXg/7xYIw8Fg3Pe8Qc8euqYX4dMhI2DUcmMYdVtNUpxkbhfldLFy3HOuJoIwn9NWvWCI6cTqc4r+IHJ3K0UMWnBj0/eo64Dw73Z+PZw7V8xHzxK0WejZ87IPM656H35CjCimhbjJiFXHBUtExwtGHdRqxduxb5efniQxhuOeJ8xOJT44jXFzpHN4vZ+VrqDmLeihsVlsEmXLzciY6gFRnLlyArigr+8n04cLoebaZ83PPE09i1fhEWL05BTF8DmquaUdzjoIyVDnOwBZcPHURJHdUKNn0Mn3l0A5YuWYy8ZAcSE20wOqPhgJ/i20/x1aElPI/i+xB2beD4UhHb34iWqiac6o7GxnVpMBvImXt7MBRuR1jOvdhJxy1ZvAiL8pIRHexCx6VinDWuxKpMB+KsYxhsv4Kqk3vwg5JRrNr5FHZu34xNqxYhPysJzoFTuHixC62GTKTm6cTNQBs81hzEFW3C9rUU9yKy3DiEt1eiqakVNZYl2JpH4ih8/oobvTOebJpzZkfssEfDGR1DSyesVIDGOGLFp8k8IV/YKHE1Fo5IowVmk1ksI0wWsWTj8TYyU7NRkFNEgpP4LliG9evWU4G5FosXLRaD9HGtiPMX+wN2LDyAJi+5OX2hC5upuNGMOeL+N+ZIC+zEUQxzZCOOLHbERschmjgSInSUjifBIziibcGNjiMWnZmpWYKfghyVo7XrsZY5WrxEDNLHrzjYfzFH3AKg52ihF5pTcaM3zkcsQnmWe8ER8cKTbXLe4AktmQse9TlMy0dTcBRtj0V6CnHE+Yg5KlxKwoY4WrtOfLXGLZ8aR9xZmLnRXkNJ8Xlr4DST4uYmMFfEDborUXKZVH54HIrWFCErsh2nX/w1SkfykLT2fjy13EEZlQ+0I946BF+/C5cuDiJj1zLE+apQeeoSGntIGK3chsUZkTDSwRFUG7dSbc8xFkTYSBtO//ollAbpGtbdjw+t0MVn82OIaoIXL3iRsXM54kyUyaPiYY9JQJqV9vV2ord/AC5fGAbd3fC5ruDM0CJsW5SABJsPbVVlOHG4DE3LP4Xf3pKJ/HilSdYQYYQzJwmuM1fQORaP6FyduLGnIi6GxJHRC08v3Xe/GwP+CPj7qtHt6UdtWD52LUsUr77mr7wZx1ROWRSeoo8HFZ42BznmWCTGJyItJYOWSWJUVp4w0M6jHMcmKRaXJF5nJJElxqUgN7MAK5evwrq1G7B65RoSqUtRVFiEjPQM0RLAToP9gfaKQ3PInNc4z0mM44YcUeHJfaS48ExQOUqKTxbcmJkj4iohNnEajvKxYtkkjooWiddQPPUFv+JgjriQ5FYA5oi54n4+kqOJuBFHFspHNqtdCJqEOOYoHUkJKXBYowVHnJ+m4ygnIw/Ll64k0bkBa1auxRISNItUjri1hjliLlhs6jlioSM5ujXcSNzMXJ+bOwQWJfO2z42GKy/jO7++jCpjIR773Udwb9gxfOefXkF//uNY99BvYXeurn+L6xLO7T+N1/e5sfav/gT3JF1D+Y9+jT1vt6Er5z78/j8/jSUmA5RRhAjDbqDnOP6b4uvN/S2se/gxPDApvpIDxXjtXRfW/jXFl2xCrNAnPni6qnDi2/+EN2oC6OAxp8ZGMBJuRTDrafzZH96LNfEdqD60Fy+9ehUJv/cv+PAKC9Ls2h2yCO3C8W//X7zVn4O49fo+Nww3Wi8cxZFf/BhvNABB0Rw8jBFrNuKWP46//pN7kBrJHysvbEx4ZjlpaTMQDIhxPHjMFX6PHx6uOvIw5RUKf8XD61aqTSbEkwgl4z417ITZUbCz5+M5T7CQYXHDLQJc4ZmJSsBcx3Qc8XgrPCaOP+BHGHHEr1mZlzDiiMfOERxZrYiPi0dCQqL4vJv5YZ70HGmvOZgjLkAlR7eOqTgKMkdeD+Ull0hjjaMwNR8ZOC+FGRAVZRVzQyUSR/wKdzqOWIAyR7yUHL0/3KjPTVhZWdm0qcqE8edpDClu7jxuVty4ir+LH7/ejc64NfjIH2zByv6j+M9/fBXlfeQIY+Pg1H9ANeKFu28AvrF4bPyj/4MnioIwuxpw5eRJFB8+iWu2BJiRjBX8dcXm5Sgwk7jpPopvU3wXe+nsFF/MpPg8FJ93NI7i+/8ovkiE176JkuJjON5shiVnO+4pikGczYSBpjJcObMXb3ifwvOf34618W2oOngCr7zZgWV/9he4PzMCCaG4Wdx048R//bMQN/oOxU3HvocjpdWiT09c7gbsKIqG0RCGrvK3UXK5FVdsj+OvvnAv0ha4uGHHyaZBW+fnmD9v1WqFiqghx2xQRz+mgtNoVPru8GfdnOfZGXMTvd4Zc+2fBQ0LJM5jHC5xa7h5jogfLix1HBkER0rfHeaJTXJ0+3EjjniSzJHJHKk8sbjhT8uZIy0fTcURVxC0NyGSow+GyeKG+48yH4xwJmA6YwcnMZvAmWoALfWtcEVEwZ6WggxugVPzoT0pG7krNopPQEO25X7sevRJfOijj2B9igE2UxSiU/KwZNu92PX0Y9jFYyxENaLhzD4cPlKGax46i6rp7IlZyF1+fXw7Kb4Pf+wRbEgxwh6sQ215OSrrAojI3oatm9dh1aoVoolwUV4GUqNDl6eCX/kNwucnZ674iOkx6gfclbh4thxNAw7EFW7Bts1rsXz5MhF/QUYc4hfG+I43DU2Qaw6aM7r2KsRKNUq7zS7e99t4aaUlm7rNNR52zAx2uuyAubmc+2xor6C4JYCdsnTI7x83x5FqOo44PMry3hxpBafk6P1jOo64w/F1HGk80ZJbPDkfaWUnc8Svm/Qc8brMR3cGIh+p+iVcmx58KrNYLOpPJGYF+LPe3qu4SAokGJOEzMJUxIUZEWaORYzdiIScxVi69RE8+eST19kjD9yP1cnh6mf1ESSECrDkvifx+BNP4rceKkLiUAOaSs6j2mXAGMXnFPEtukF8O7GaxJJ1pBWdHX4MGgqw4p7duCffgWgzf+IWpIwdgF8/ka0pAkbK8xEj/ejo8iHA75ZCYGfio+NHEdS6dvHwuN46NLWEw5S4Bqs3bsK6DAvVkFgu+REMDCMwN7qB3RUoNcupjVsEtHX9sRzODpZr+lqtn5vJuZWWm8zZEWuvN9gZa7+XeH/Q0n0quxmOtFo/86FxxIJGz5HW+iPx/qCl+1R2qxzx60Hmh435khzdWXBLmaZfdJ0pJGYzRgKD8HbUoqXkCMr6EpGQWYTV+QncExdwFmBRbgwiR3vR0dGOgQnDI/AYG9xPIkCZkDZHfPANkRjxj2eulJWbkZuagNigB56hCIxFF6CI4xvro/jaRHzjRdqk+ERzrB2m8CgYjKQ01GaaYV8n+rra0NzJDkAJg8UBqzMOyZFjaG+sQs/AIPyi4kLOga7L212L1jYf3MowR1xtYikOQ5hTGUHUMP4VQcDTRDWhPnT1qgESIeidLdcc+euLycbh2j4WNdr7fxYzPM6GNh6KdMR3BreTI9mh+85gOo5YwEzHEYsXPUfcUqNxxPFI3D1IcTNH4KorxokXvoEvf/c47JsfwT0bV6JIvJIxksVj1YbVMPddwLmDb2BvLWmYkBppR319JfZSoHCArvMou3QVZ67w0HkqGmpR3zeGZnM84mK401uciM/SfwnnDryOPTUUX8h3dqChoRJ7KJCn/Ee0Ew4LOd72Guw/XauE8VHn96H44GvY30JCJ/TbJCRnFGDNpkg0v/1/8W5JI6rEoHwktnrrcPzbP8CJ5laE5gMn4YS4eMSbelB3rRrnKpRe8YzGwz/DkdOncbZLDZC4IdhRs3NlJ8yChZ0tN5ezsVNmh837+TiJmYHkaPZDEzxTccTrHCY5mh2QX0vpMDs6FFfgXFsYEtOcUPp8Kwha42FNL8KH1mTBmZqHuOioiSM3D3ajreIIjpy5iH1VASTQj5VGlCjE5azE8vt2YVd+FAy9x/HWq2dw8nwbRm0sjAiDBsQu34TlWzZgU0EioineMI7v8lEcpfj2XvVPiC82ZwVW7NitxBc+CFfNWRQfOY03TrTCph4Ylb4I8eZBRDafHO9QnBsHi98Dd9sVXDrwc7xRFYHBYQNsEaOIiDIjbfW9wJmXUWFcgozN3KGYx0oeRPeF/Xh77wWU1vTDovZuthdsQLLvIno7+mSHYgkJCYkFiBt+LSXFzThmWtz4Ws7jcm07mnqmmPHblghHRhF2FMaKXvpTwt2CxoY6lF7rVgMYUYhJ5Y7BRUi3EOG+FtRU1qG2sRva2x/AgVR6KLJz05AYqQYxKL6mxnqUVOubRyi+FIpvhRofBwW60dnYgIryJgzQJqdaVEoREp0mOL3VuOTNx+oVGUiKNotpNkaDVBNtLsO5a/3o8yqvmkwWK1JXbIS1pQydo9EwJ+VgXZY6scRQK2ora1Hb0A2PEgJH7jqkGrsw4nWhBbnYuCYdNkM43seA1hISEhIScxBS3MwRcSMhISEhISFxc7iRuJF9biQkZhyjGPZ7MNDRjJbmZjSztXWj2zWE2dkFMQDfgAuuLhe8dIE3rgIMI+jzoL+tB+4A3eeM1RcCGBroRbeWvsLa0d3vhW829/McDSAw6EJXazfc/pHbkH7D4lnrv23xSUjMTkhxIyEx4/Ci+9pxvPOt5/EXf/o8nn+e7G+/j++8dRn8MVioP/asQRMq3nkDr//3GyimCyTNcgN0obXiKF7+m+/jcP0gemdsouNmXN77C3yX0zZk/4D/fvkUyvld6myFrwmNZ97Cf371O9h3bQDdH3jogx50VJ3AS3/53zhUTaLpA8cnITE7IcWNhMRMYqACxa/+Cq+9W43Arq/jy1/9Or7+dbLPbsFDS0Zwjb98e98tC9yfqQYnf/Qi9r1VCv0Hch8MYxgJDotxhsa/ypsO/Jk/HTsUxPDY2Hu08txJ0DUPR8GZuh4P/8nX8Zdf+zq+9NFcxAzV4+jRy+ijI95bRHrh95Rjzz/+CAdP16FRP4bTnYI5FWkrd+KTf/4c7sm2q1OdfBAQB/RABYcCGB6dST4kJO4spLiRkJgRcFHqRn3pCTT1jCAibyPWrlZGXha2dBkW5WQizUGZdJr+4+8NLro86KlvRkd7H9wLe9JuggmR1nikFS7DYkrf1fesQo6V0uhKFepI+I0PWTAdhkmoudBxtR5dvV4M3o3XWQYLLDFJyFmcjQSrERHSY0tI3BTkrOA6zPSs4BILCGNBwN+AU6+fw0DMEuRv34G1CTohQ4VahNmG6Cg1LNCN1ppqVF66gur6etSTucMcMEVS4WcawUhgAO0VJaisrkV1bT06+vowSL/rOX8O58/VoJ2e6UGTCX5YkOSIhGG4B2211yi+SoqvieLzIcxhQSTlAf0IAwLBAbg66lFRUo5rdN6OgBftVzrhcxsQvXEVsugajcHu6+OzU3xRfnhaWlFzpgO2ezchwxkJbQSCu4s+tJY3oaNjFI5Nq8U1WxzDcF1thavBA+PaNcikMBOlS3tdDS5f5PtQ0nkANhgiwzDmbsa1UyU4V1YPl8WIwXAjxgxmJNkpxfwdqL18BVcrqyiN2tHc6kdEgh0RRh/F34LWqiYSl32oqKhEbW0d2lwB+I12xEZp3/cF4G6vR0PlRVyqVs87ZqXzkprxdKK+pB6DjhhEmAwY7m9E27UylFUqx9W7xjBqjERM1HXMkTP0Y8TTisqyclRfq0WLqxed3W50l7YLPtLjomAnke3uakTFuUvinuvqXfCOGkhUWaH/eFJCYraBPxyablZwKW50kOJG4q6B583qu4BDhw0wZxZg6bpkONVdE8HPYQCeutM4sfcQ3t57CmWXL6Hiwlm0jWXA6kxAoj2IYF8VDvzqpzh05iJKLl5GU38/go5otL70Fs63tqKxrwMtfR60GdOxOc+CQHMZTu8/jD17T6Ck4goqSnsRnpuO2IRoOA36pqIAfJ2XUXnqIF566QhKKivQTFnK1TwIKv4Qt3ElCYUAhhpKUXzgEN7VxReWm4bYRCqc29tmpbgJD7SgvqIV7f0RSNm8HOkWuo/GM5QuB/HWOydRdqUcFRfPoG04BWZHBIx9V3DqZ3tQRg61racVTZ4w+K1J2JBhxED1Cex78yAOHT+LsvIaVFV6YFmVj3hrJxr2H8PxV46hwdiPQ/uO4MK5UyhvDcAVkYGVuQ5KxxH4XU2oPnsIR999FwdLLpMIqoDXkY+YhAigqQzv/ut+uFauQbzTgtHG07hw5GW8fIiur6IUZxrJkUfFoSgzBqYJLTvDGPa0oaviAF564TBOl17AtX4Xeui6R+oHEM18xJlg6rtG/BzByy8dQMnlClw634EBEl6OgjQkT4xQQmJWQYqbm4QUNxJ3DdxyM9iAkvoIxGSkoZAHOFR3TQT3m6nC/v98BY3G5Vj5O1/AH350Bx5ab8e1d0vRPhiOiFgTopqL8Z8DO/CJZz+KT370cWzftAnL0pOw9P40DF8OiH4buz/5LJ5dFQ1LRA0OfPsU+h0rsOlzn8OnHt2Ch3LrUNofSyW+HTkTOnbU48Jb+1BS6kPS734Tf/TbD2Ht6GXUXWvAFSSgaOMyEgpVOPqdU+i1Lcemz3N8W0V8Za5YjJJOivF1z0px4724FydqBlAfuwwPb02BI7waR7/7KuqC+Vj6yS/hjz52P6WzAw0HL6C1zwTnxo24d0cKvMfdWPyhT+Lxpx/AQ0VGDA9W4vW/PwHjPU9h1yc/jufuL8SW1Hq805yMdIcfww0VJJS6UJr6ML72+x/B0yut8Da7UF4zhMztJGDQi4pXfozi1kiK4w/wZ59+Eg899BDWF6UixT4IN4nDqhMtakuLBYnJ2chZ8wAeeGA3HZcHS8k1+D0kZQryxdhT4+hC29VivPGtt2H40F/jI89+CA9lkT+vP4c36o3Ip/hy4rrReKQUpScDKPzTP8cnnnwIjy0bQiBsBBW9sVgzMUIJiVmFG4mbsLKysmlLcZ4JlWfXZMhxbm4MTVBJUTR7wbP78mSwvJxxjAwC3Ufw3f/sgn3NSmx9ciUy1V0TMOoD+k/hJ/9cjrGla7Huw1uxLHKUNI8L5178N9RYViJu6Qas8R/EP/53KeK3P4P7t63AWlEo8adJlXjj6wfgylyJoqd3Yn30EOA6iZ/+85soax1EIN4Ju4EKvMFutOc8hcfv34SnVyWKUwu4S3Dg3Wuo7orBjk8+gHwSBfCU4MgLxahojMLiP3oG95pO4cV/fROlzV41Prq+wS505DyJ37ovC2sCjdjzHxeR9NdfwJZsO5Jm5F1HDc6+8Db2v1qK+rQkMQr3qDsaaevXY/1DG7EhMRIm1yn86v9dgi9rGdY/uwMrzHQfwy6UvvJfuBaWh+gND+HemHL8+vm9iPzwR7DynmVYZO6Gt+UE/usbr6Ehwobw6CgSqX6MBn1oKfwdfOGRKBjOlKH4tBu23/8Mns63wDZyGSdeOoeSijAs+9Pfxmacw1vfPQ9XUgFWfHgH1jv06q8dTWUlePMfzyDpr76ATQWxSB2sQvWFk/jBnkra70NfkxFZW3bhvmcfwWbSpyH4alFTfhG/+J9+PPAnT2NxqgO2IIWdO42X/uMKCim+LSnNqH13L954sxz96SkiXcKH+uCKXY7UdY/ia4/kqJHNPNiv79+/X8yxJXFjsI/btWsXnM6p24PnCyaPc5Oeni50CyOssrLyhqWxdqAUNzcGH8+tWyxwWOhIzC6wSJ9VGX2MhIfvKt74j7fQn7EWhVQL3xin7tNDiKCj+N63WmBetwpbP7IWuequ6je+joqxZYhc9Ajui2tCWfE1uIYH0e8dQrgtDbnr7sHKpEq8+02duHGQWCJR9f1/LUWH2YHkVekInTZpMRbnpqMoyaoGEHqLsedQB+rdyXjqdzcgnoLCcQ3FPz+OiqtAxh9+DPfiKH7x76VoM9mQvDpjUnzhiKivnCXiZj9OHGyA/94NyKNbNIYlIr0oF/mLk+Hk14SUzj/+9yagaCm2fXwj8rVfvv33qAhkIXzZY9iZMEncRHTC23AM/+/vy2Bak4vkrFg4+EcGUgkpy7GhwIO2PSU4X+pH2vOfwXZKQIuhFiW/PoHzJRT2hU+I9HvpvxsxkrcE2z6xCQXirBomiZs0LwYvlKPsYgu6suKQBC9aS+oRmb8Gyx+bJG481aiuqMRP3zLhuS9uR3ZsFMwUX/P5Urzxf04r8SXUoWrPGRw41YuUh5eBZa2QVtFpSMjMx9a8GN6aFeD5nH75y18iKysLqampaqjEZPDEnadPn8azzz6LhIQENXR+YrK4yc7ORkSE0vIsRyjW4XaIG57inie4kwJn9sBmsyE2NlaIG56AcHa0rvHz4Ub1a9/DqY4oDGVtx+6NS5EZTeUiNywFXfD5h+EKRCEx/Ax+8U/nECxahzUf2o5V1hHRgfXEL3+G1tgVSN3yMLaqjS2ea4dw/OhhlPY4ELvj9/GJVbU48HcHJ7bcuIvxc4rPk70Cq57ejk1xN/i+2FuGQ29V4EqbA5s/+TiWUsk91nsSB399FuWt0Vj5R8/i3shivPytc3BlLMOqD+3A5gnxtaKu+NwsETcncPHiMNK/8GncK0SGuovBYpPS5QW6D0/6cqz52C6ssRFHlM6nXvwVmqPykLRtB9ZbJrfc9GCwvRjf+VoJnB9+DBvuXUpppDSLK6hByYsnpxc3X/wkpd8F7Pv+KXTG5mHxE7uwLV6ffpPEjaMSFw/VoaQ9AR/+813I9dfg6I/2ocOWg5xHJ4mboXrUXjqPX/2iFVv/13NYQQ+Xw1+FquIT+J/v1WEZxbc1jfh59yxOnR9F0fMfx/2JkbAaZ0HL5hTQxM3u3buxevXq2dEC+wFwJ/wQl9HcX+utt95akOJGjlB8h8HiikUht+JIm1ljBxITEzMLMzlnvWgUrFpDNf0OXDv9JvaXNaOhUR09t+Eq6hpqUd1txIg9CWkJLgz3N6H6Eu1rrEfz1VO43JyBsIhMZMYFMTLYi9bWFvSbC5CTvwKrs2MQCPJALJGIMI9g2N+H7s5OtLmHMeqg+BIH4O2swfkz18ZH7O0ewMDQpD5q1ljEmVyI6LqI46XK9dWVX0ZNWwcVuwRu2Y1OQmrCAAZFfNU3jm+2Iozug9IlNcGNsYEmVF2k629qoHQ+jcrmFIwYs5GVbKACNRKRUcMYcnehs7sX3f4wGJwJyElqR0t1NSrO1yr33tKK5t5B+ILvUckJI4XlyEVeYRAGfx0unR5Pv27uMzg5+QLDCJpH4bMG4WtuQmtdNerb3KBTXQ+zDVFWI7J851ByoR5XrhF/VdWora5BHe0Ws7pZnYghwWWnkOLDV1Bf16icv6MHXZ4ZG3HxPcFvFIxGo+hfMVeNWxhul3F8XKFuaGhASUmJmkoLG7JDsQ4fpEMxH88tNmxcw2CBw8bXIm1mjJ/dwsJC0cmMa3kcxpzMKjgykZ8bj4RgEw5+73v4zb49eHfPHuw570NvZB52b8+A3RCLrNwIdF09i32/+Dle2XcYe44MIPPxR7BxyyKqvTehp+TX+Oo//wivv/k2Dpz2wGNZjkc/ugopxjigdz/KyvbjtRM1KPFnYnthPgoKzHDVX8DxX7+IV/bS+ficrRZERcdjSYpNvTiGAwm2Ufg9Vfj5z36Og3R9V+0ZMHqsyCLh5Ny4FllRscih6xtoIAGkj6/FDIvTjNTRgVnZoXjih0C8EYP07Ej01pVh/89+ipf3HaR0diH1wd3YdO9y5JkjyLlEYaz3FRw6dhRvX+pHa1gG7lucj/wlEag/eQiH33gVr/H9HziKPT2JyEsJQ3hrF9rbRuDYvAbZ4rx9aLvcpIZx+pmRUhCHERK0F+i8P1XTr8mYC3uCE3avrkNxViLsvZXoOv4/+Omrh7GvlsTrsBcpeWmIyy1AxoT+vxZYI8zIiu/B/7z0Cg68+xZK+wNw2/JQUN+HGNFBOQnZKVbYzd0o/ulP8NbBfXiHuavoRiNS6FnRNwXNLDj/Xrp0iXx0HtLS0mAwGISx0Fnoxv7t8uXLuHr1quiT5PF4sHz5clitulfM8xA37FAsX0uN44O+luIHih+swcFBkW6RkZHzovl0LoL54FeE/EqKeWAOWHTOntdSOowMwuvqo8KuH6H54E122KJjkJpkV8adGR5Abyc9z31eBMRc7GbEpKUgxm6BZWwIQU83atoGMDLK90YixeFEYkYsuIF2qKcBPf0euEYsMEUnITchCsZRN/q6etHdy/GpsCUiMTYaCfZJr6kCbgz096KpS5mTPTImBhFU7Y8YMyCSO+eSWAkf0eLzTIrPAjv86Gv1wpSRBofZMEMD0fng7hqgStoYIlOTlY6zU2XLYTf6uUWmx0NXzTDDmZKMmGgreEiasdFhDHbVosNFz5IhGjZnHLLiIsVrxI6WHri8fqVFRLQEpSAj3ohwt5d8A503TTvvEDxdrinCetDT2R+a+d4an4FYEoeRQQ96m9wwZVL6kXgZGeima+xBr59uwOyANWwEFrsdlphYTOiLzBjxY8SrPBvB4VEYqbCLjLQgst+nxmciHqkS6O5HW0uveP5E7uB4nfHIjps9X0vpX0utW7cu1ALC/v5GeXrW5fc7AG6x4TGPmpqa0NbWJsrrhf5a6q6Km4C7Cx0XXsOpemCAcpElKQ8ZSzbgXu7dx+i7hsrKKzhxWTR4I3b5bqwtTEFWzA36BEzCbBI3rJp37Nghxc0MgPno6ekRac/N17Na3EhISLwn9OJm7dq1oVcynNd5H5dXCw1871ze6EVNe3u7FDeEu1eHGuZ5WdpQ3+JCT6+LhFIrmqoqcelUJZp99OCOUs2n8hquXaxFo4tqQK46VJw4j2t1VEsRVSEJCQkJCYmJ4NcyWqV2oRiLOTbuBsGVag5jcScrbuO4e+Im2E8JH8Dwsi/j45/9Mr785U/h8WUJiCo9ibJ+YNBXh7ILXniN6/C7X/4TfPlLv43VfZXoqGnANZf88khCQkJCYiK4MNdaxnmdWzIWgrGQ4SWLGm2b718zibspbiypsKesxr2LAZsYF9Au3hPHpvA6kVFXjZo4C/ryUpHNY7WGLcL6+8wYjvSgqU17Cy0hISEhIaGIGTYWN9yxmJe3WrDzb2bCPii0jtSayOGlbLmZiLvYtY9JNcBAZ1So9WLIOwZPTxziY2nL1QVLhAEx0Xb1ogyIjY+HNziC7gE5IqWEhISEhAJ9Ic5iQf/VkLZ+M3arx88W0wSS1pLDJoXNRNxFcTMRfdfOo6WvHe6iJciNoAd0OABjeBhMxvHu/iZThPj6I0gCR8Px48dFp7Lvf//7IXv11VfR2NioHiEhISEhsZAwlQC4WWOhcLdtquu4FWNorTV6kwJnHHdZ3HDfGR86rpxB+eU29FlikLM5H0kUqnyZ/t7gr134iyT+ckszrUOVhISEDmNUKRhqxbWycly91o6emxmTLTiA/tYaXDhZjsaBYQyN1yvmANi/9KPl0hXUVbeh+66NQaect7WczlvVenPn9fWit+EiDh85hsPn6tDS71M+Ib/dGPVjxN2EilMXUNPcB9fkk3ha0VhXi9LqrvHPwOcIuCDXCnMu8LVXUwsBfN/cWqN1JNaEjRQ347iL4mYUI8FBuDtqcPnom6j0pcNZuAsPLrKLvQaDETxEx8jIeOfhESKOx6Iw8rssFfwZ4Oc+9zl8+cvcKVmxj3/848jN1WbcmSMY9sDV2Yqm2lrUqtbc44U3IDtPS9wmjFJJ5q3F+UMnxQi1raFBdG6AQDe6ay7g8OvHcaU3AO+04mYYQZ8bfa3dcNMzOzwrfCpfbCMuvPYujh+8iJq71lWP82wTLry+B8cPXMS19zxvAENtFag89Bt89+cv44W9FbjWqRsf6HZieBDBvis4+eYRnL/WqRNeTJgf3oZLKD1dgn1lLWJ8nbnqffStIfoWkveyuQoWMZqo0V5J6U3iroqbISFsjv77r+BZ92nsengX7itQx7ehZ8wZGw9PYAQ9of41Y+jv64I1woBYh37E1HmC3lN46z+/gS8++6wYj4Dtz39ajDMNU42jLiHxPmAwA7Gb8eT/+hQ+8sR6LFXqETdGVDZytzyOP/jm7+H+TAtipx1iqgst5Ufxytd/iMP0zJIOkrhptKCy7DwuXhrFjs/+I/7uTx7Ctvx4MeDibUeEE+b0+/C7f/N5PHFPAXJCJ2EZU4NTF8IRZV+MTz69Qkx4qp9ua7ZDX5BrLTfaKxs99IX+ZJur0ESNZlrLjcQ4wnmgs+nsto5I3N+KvpZqvB57D7KTYpFmM4o+NhrCYuIQ29aHsLo2NHAD6VgVSo4OwRiwImPCcPBzHMMk3jr34cf/+gKuGFbjga9+G9/+//0Tvv2Np5F26Zd4+7U9eLNiQD1YQuIDIswAY4QJJiM5/pupqIZR7ddgRESkSeTP6X9ChcPoCIL+AIapnJRu9VbAtW4rjIZEJCdHwmI2wnDDtP4goFjDjTBFRogW8NAzMEYr/dEovGcFlm7JRbwx/A6d/85DK9S5JYbFjV68zPUCf/K9aDZZ3EiBo4CnidL0i+GLX/ziN3gE16lM/w7zg84tFeipQ9Pl03jjfDtGOq/havl5lJaW4lJVPZrC0pEcY4Uz2AdXVzVOnC+jmk0puiJWIX/FEhRlOBB1C/PRMMkzPbcUP2w8eiZPwa5v/gy4O9F45Nv4ZXUSstfdj4fvX4eluSlITUkCms6gossIjyUZqxbHY0YmT54nYD64f5bm8HjJz8XM9s0aREdlMUoP78W+U6Xi+e8KT4LZSs9OazXOv3sJ/SnporUyItyFnvprOP/ORTWsF22lFbhacgXd4X0oeWsvTp89h3p3OIJ0r2N1B/CbPSdx9lwJqrqC8EXEIS2aa7HtqHi3BE09QQzHRsHsb0LJi6fQ7W5GWcV5HDlyAhcqrqBhLBmxtkg6jxs9DXTety+gPzkdUZEBuKrOovTQnvFrprRsv3IVVw6fRmlTKzq99Ey7SRBZRhDZ34iSV0+jsf8qTp5uRXfQCFsCFapdFTj46l6cPHMOZymOquZuDNrzkBAF8QXl7QG3RnSj+mgdfNYExC3NR4rBh47Sl3DoWDGOnabrr2pC5aADefFRiKAC/XoMoquqBGWH3sXek8r9do7FwWR1wuxrQsOZX+PtI6U4c472NbjQOWpHfiKPbdGNa8fqMGiJR9yyfKSb6TnzXsPZg0dw7PAJnC69ivLLHkTljqDh6AmUHruIis5u9Hi7MEAiJ9ZmxljXJVSeehNvHlbOW9pBBZjJijQnx8/+yIumcwdRfPQwDtG9XLhUgf6oXNijIhFl8sPTVYfK/b/BfuLpTEkpGvqp0LNRpdHYjNKXi9ERFoXwaDts8CDYV4nDrx5GyZVKXL5agdqGdngdBaBkIVHbg+aLFH70AnqG27B//xGcOXMWV9q9cJsSkOG82R6Stxecf7W5pVJSUkKtNVo5xXme/e586385VVnE98hlDZfJbFzesb/Tljxq8UKcWyo2NlZMt8P6JZxvfjqzWG7fvCJjkQ7Y4jKxPZuK7IA31Bl4wO2B1z+K0ch0FKzOR1FhDAyuQQwMmJG+eS3y85MRP29KeXrwBlpQ9u45DGdvRv7iAuQ6KTicbtC+CBvuWY40oxf9tSQEfYo7k5hHcDeiquYazlW1hJ7/Qf8whkc9cLXW4NLes6jpH4ZP9HPxoL/1Gi7tOaOG9aPtcgnO7DmKw6X1aO/tR3/zZVwqOYGDVAifr+9Gbz/FSWEXzl3AqfPN6AfV5tCFWirsKssb0UFOMEAFdMW7e3C4uBKVTd1wdbegs+oc9u6/jJouD3xUgA601eDiu3TeviAG+5twrbYaZ3XX7KV4fIPkUL0+BMaGMeRxwz04BH9wAK72qySM9uLUlTY0c3z+AQx01+DKkcMou9aNtm6Ko6cJzVXlVEhfQoMreIc7LZOgHXLD6+Frb0dr/VWU7C+jgj+gprMGzm1D6Kk9j8tUgJbXd+nul4Qht06NDCM46IJ7gMNbUHe5HBeLr4q+TCMTMitVbgKU7ifO4WpVM5p76PjudvTWXSIx2IuOHi+GmIthSkfPAMVPBTLFPxqkgorid7n6yRpQeeYCKi83oZv947Ab7eUsRKtR3ay0qvPcaTzr+MhoQLzyr7lQjDNVHeiiZ4P3e4iTwEgAI8E2Ej2ncbW2Cz0BKvj66nH18EGcbyYh2+eFr6cZLdfKcerwBdT3+TE44kJX9QWc3XsEBypa6Hqp0tlyBZdLL+DY2Ub00R3eUcreA1zYawW+fl1fiZxr0O5jKpsKHK5vsdFabW70m4UAFjaafrlrs4Ibo+IQl70SW7ZsmWAb167EshQzLDxFb1QCknOWifDNmzejKMUKx/sQNrO25Wa0iwqsMrzx7yVIfOgTWL00E/o3bubIATScrkJv9xgsq9ajyMEZVt0pcUtgPmZdy01LMY41Uh0/YQs+88wTuO/erViS7oTT7EZfUytqS7vFzM+Z0SZYjWpYSZcaRtsV5VTL7kdr7Ab89meexH2FBnRUnkdxZS+w7hP43NM7sD0/DD3VvahrCSJlSx4Swrtx7XAd/NFUSVicivjRNlzecxKXEzZh3X278andS7HI4cb+15oQuyIbCSkGjLS0ouZspzKLt+cCLrSOoC1uM37/2Sdw/73bsCQjHXmFTkTbI+E9H8TSP/oTPLExD4sSguhvqUXVmSoMbPokPvzoGmzKH0FfeQn2/uw8nM99BU8+ej8e2phN19GPC28ewdDSDUiiTG6/LY0B17fcZFiNiE4uQEr2IhQtSkFSuB/9B8oxsm49EqPNuhnK6bfD7Sh95RWUD8TCueMT+OxT9wlftCQjFrFUzzOZbYhNX4KM3EVYvCQOlrZueK71Irh6FTIs3ag/obbcLE1CQvAy3vjXUxheugnL77sX24pikGOtxf72xdi4OR1pYQaEexOx8vOfxyOFDsRHGWC2xyM+Ywly8vOxdKkTw+dq4R82w1CYgaSRBhz/0c9QHXcPlu3+EJ57dDs2bdyAgkS6B0MPCdjDOFNci75tf4hPP3Ef8bQVKwuzyL/4hdCq2FMDQ9EiJGWGY7i+FG9/5xTsH3sejz22G49szkWKyYOyl/bBv2QdEpwkcK5VoqKqDzX5j+ALH3sAu5eY4W3qQ+VVL1K3L0E8+SXjXfZNWssNfzyib7nhJRvnec7fc63l5lbLGgaXMfpWG2250Ftu9LOC37YGYYmbgG8Qwe4BNKMA0XFmWCf3IIyLR0yUB2ZfOzp71DCJ+YPoGMR0lcN1/C386EwvFVxcGN8KYpBKhd/DT25ASqQJEZk5yIorxEZHOpYWxChfFVJYZrwZOQGeQZwc53Wn4NI8E1tWFqIoKx6wOxCZX4D1VECGDVChNrk/O12zs6cSnuNv4IfFfRh8z6/5omAyZmFZUQIctghg0IuhgXD0mtahsCACdhbz1iwkZOfintXNGHCPUIVA+eUdwfAQUP0GfvD//hbPP//3+KfvvYNzFHxdNW2UCsS+atQ2pyHKUYQ1y6lmMRmedrhLf4Fv/vWfU1z/gu++fRaX1V0TQDc02tOJztEGHHnpP/Bvf/U8nv/rf8RXf3QGF+vaRMvXlKB0vrrvuxT3n5L9B168UIcGDg94MNJdg4qG5aKyVDDeK1iBuwkdrUb0B1bh/i1xiLLcoFswT+rrGkNX+AaqyJlJoFJYVAbiMguwY30jvIPDGBKXF43EmDz81j2FsFKlD2mZSEu0oTDYg27yTbqPWmcULAz0xpjcivF+jOO4WzbV+d/LJv9eH4+EAilu7iZI3Pi7O1E9Fg5/2BQdCDlMBPJDKkIk5hOil2HzU7+H33t2C9Z3/RT/55t/hR8fqsbVXnX/e4KeD6qhGo0G5dkRzwvVWvmf1lNUfYbC6PmZ/hni4erV3/DBXPPl1zLsHNUjQoheio2Pfwq/99x2bOr5Kf757/4aPzpwFVemFd98HUrc4lnmixD/OUw5He/nljSDgRwyH8JBdwJBEmOtZ/DTXw4ic+sz+JNv/iWe/8yT2JkOmKcq/0kJjo4q188dfCfA14TGy+X41Wtm7Prcl/CVb34Fn3tqCzYkqvsnY8xA97UC25/9A3zhb7+Jb/7t3+Kb3/gb/H8fXY1lqVN8tua+gtKTdThXnYPf+eY38Nff/DI+vj0fRfzamsHXRn5D8D352pg3TmPabzBM2jcV6NhRcIuHxofyHBnCSbHoyGCOWDArh/AxZHSAeK7uGGkfHJML//djmlCYrabdJ5v+eiXGIcXN3QS/Iw34xXgSM/nOWmKGYHQgNiULeUtXYPGixVjqdKG7n8wdBhOVtraYbgx4RhHkVnVXP9w9XbhGqzP6rBjtiKFrzl+6HEsWL6VrHkAPXVuX+yZfUUeaYYoahX3kGlpah+HjsXb8nXB19qKyNh/JCQZEibnm7gACXgS7G1E6aIUjLQ9L81OQFmOCjzLgdeVAGKkdWyqS43vh97WgZvKQDIN96O/rxoXhWOQUFGFpThxiLEY6Vt2vh9GIMLsNzjCKa8wGazy/ZqK0W7wIS9OdcJin+DpioB0tA140RyRh+RI6LssKM11TkJPZaEa4IxmZCQ3o7OxAa8ektI+KhzN2BFZTHS5WuhG4UetaRCTxEYbo0Sq0tQXh5dsMdMPd1YXymkLEx5kQdfu6Wt41aIX7QjFN0ExeskkokOLmboK/QrNEIYaqQrfw8ZfEfB0e8moAABovSURBVIG7GbUV53D8bDnK28JhNqXB6YiAOTIKDqcTmfljqCs9gVNHD+MwHXOpqV+MWjuj7srNHWfP4djZS7jYGoZIUyqcdv582YwIMgcJsobzx3G6vB71PVOU9BHRcCYnYemSUTSfPonTB+neDh1H2dU+eJO3oyApErY79cFAuAnhZhJnMT1ou3oOZ0+WobSqHQOkFq9LUxY3URkoXBOPaLShat9BHD5M10p2oa4b3QEWaSY4olpQXUwcFZejsqkXpEWvh8ECY3Q6Vqwxw9dYgZIDalxHj+Hw5XZ0eaZ4D2eywWIbRViwBpeOHMWxM9WUnl4Mcfwiviys3OYE2q7g0n4lviPHjuNy+xDcYQlILUhGTuYQmvYexPFDynWfq6hF8+Rp+SIccCQlYeUqoP1cMYr52IPH6Nh2uJPuR15SFKLvlNi8A9AKdK1QXyiFu/6+p2ppkpDi5u7CYkVEfALy4YdxmL9yUMM1cGe40XCMhvOn+GqYxPxBbxUuntqLF198ES+9tgd7rmYgPTURWclOOBOysWT1MnjK38KBN17Ei6UNqBqJxebUeMSYwmAIi4AlmoRCQjSs9GwoLx+mC+P4OIxfI5hhS4hFtNMKM7+KMkTBmZoAhzUCESL3q2FpHBZJYUaYLCQIUuNgowOMfdUoP71PueZX38WeK2lIFdecAkdcMvJWB9B08nXsOXUZl9uG6Lc2+m087PxbcUExSMhegXs/ug3mq3tx/E26t9dLUN5nwZqP34s8/oyZD7st4BPS/cbx/bJYiEFk9irsTmpF+9m9eH3fJZR2mpC3LAHRFrq+Cd6Pf+tA7j07sSzdhvDSt8U9sx2taEGrIR2JmZnYYb+Cc++8it8cbUbrSBSy8pyiU3JYGIk0Pm+MFRYSIxHmAmx77kEUmDvQePwNJa6XfoMXi+vR3DcCs514S1R+Ky4jsRAFaTYU+Muw56VX8VKxByPRDqSmc3zkDyITsezxp7DE1IfuE0p8L7/yKk7XedE3ZEXSkrVYuXElMq7uwb7XXhL79566iKpeA8LCLYhOiYfDbkZkeDRi05bjvt/ZCWv9YZx+i/k4g9L2CKz93R3Ic1hAXgpmB11fUox4rpS3YBRmd4hrHg+bOegLcX2hvlBsuvuWGEdYY2PjtCnCilD7Qqqjo0N8XjjbwQRzb3nuRd3Q0Iseqk3eLOcxMTbs3r0WPt+g+NrpVh4WPp7nuOJ5r7inOqcb91TfsWOHeFetoAMdVw7hu8/+E/DlH+PhnSuwLkXdxejYg5/921FcHsrClj/9LB6lfTPtROYqmA8eyEn0G+DXBLTkLwz4S4IZcwJjPAbHiJgMVoEBRhP3fSARQtc0NjqMIIlesVft4xBOG2EmEz0HtJ9+yz8No/tRulZQre09w0hEBylOjovFDe0fDo4gjL8yEf0p6EDOM6EwioTy/QhdR5iRzgvlc9Oprln0AxkJgk5HDyoVwPRbjl/5rVG5L/EbvjflSzUlGgoPD4chdM23E/r7pevkbTovXz+HiTSlo8T18bbyIx0o/fh+OQ3VkHCDSfRRCiP+RrkCwvcQxv1fOH9SHCQ+JqYznZcjVvke5XOLmAgsHln1UXrQ/wm8jfF52dT4OQ5Op/BwNT5xb8yF+owQwo0RymCL/Hwwb0G6V3VfGP3OYCSjfcMBhV8Rn+iQNSomJBaF4nV8KGkw+fquD7u74PzLkybv2rULq1evFvlaG4+NTSuv+Mve+Q72Y1zW8HAAk43LafZ9POp9QkKC+ov5iZqaGhQXF4v1Z555BkVFRYiKUqpLUtzocOfFzQB664vxm6/8GSp2/ise370BO/LG6629x7+F/3xnEK6kTfjc53chn2dLV/dJ3BpmpbiRkJB435hK3LCo4SV/Cs7lFX8Kzf73ltB6CglHTyL1eB1tcE/zFej+xE54nfWIPPQSki+JoyZgjARtYOdn0bYhD66IBljPH0b+KxfVvcBw/ka4730MjWu0HuGtcBw5hoRfH8P46B8JGNx4L3ofuw892mE3Cb5PbQJpTdRoYkeKG6VMla+l7iossNrTsXXXSgxUnMWlylrUcz4c8QF9JThy4BLcEYnIXb4UqVLYSEhISLwntMqKaIW6JRvFmPsKYg/VwNZug2f7dnTduxVda8IxNhKEYTQNg0spbPs9ZAVKR+1ANPxrt6P7nnvQmx0D/+BVOE6xMOrEyKrt6N3Gx6+H19qPyOLfIP2CC0YfV5R9MHT3IbJtNHRcX04YwtsrEXeiGia6HtF6+z5Nu3/9cqFDipu7ChMibalYdN9TWBvTh7byo3j1jbfw1ptv4K03XsG5/mRkFK3ApsUpmN9DL0lISEjcPugL+ZvG2IgYW8hZ7YXJuhQdH/4wWj78IbQ8vRYDaU744vIxsJXD2HagPysX3uyV6HuUtj/0FDqWOzHaUYboq82wRK1G29PasR9C24ZseAPVSHy7HFFun3hdy/3BhmNyMPDQh5Vjn1wPd7QfkafPw0aV3DDtPehNYPL9atu3nAbzGFLc3G1ERgOFT+APnluLrOFKHP7V9/C9H/0S33ulArb7fhf37dyENcnqsRISEhISU0IryPUF+y0V7nTo2NAgwqNGEWai33qHRf+jMccyDKTHwRM3KV4tai0s2AHHpVpEGOLQ+/jD6HKOYTic90XBl7cUfWtWYuTYMVhdXkTwF3pqHHSEiCOYU4DBWCf8rXWw9Y0hfFiN9yZsMqYLX8iQ4mamUPAEPv1n/xcvvPBCyL78SAGWxKv7JSQkJCSug74g1y9v2bgvZP5i0cIScf4kUs/xrFk3ibFR8fWjtSmRCtE8uHPVcA1RcRhOzkB/TitMnmEYeHyn2wi+fm2pmcREGD7xiU98gztZTmU8TxJ31mJ80Lml7ia0jmWzcVbwEHhEUP7Ek9JXMx4VdapDJW4dzAc/w+LrmHD+smXm5pbSrkV7Nha6Mbgj6GwCc8Q+Y6FxpM3LNBfA+Xfy3FL669fyN9/XzYGcbZgd/ux0BMM6EXX0BaS9dQg22woEHDYEQuMvcVnQCfvxWkQgGv7VS+COojBvDWJqRzEWl4r+FamYOHpREMb+JtiK30FE1m5440YR1tAI27VBDO/YTL8HwquOIbaiGQ5TIdp3F2KIitqbfTPF98nlsd608ofX2d8sxLmleLJvbX6tsMrKyhuW4tqDI7+WujFu7mspibuF2fS1FDtdrhzwufm6FjJiY2PFzL2zDfxMaBzNhAC+22C/zpMMzjaReSNw/uWvpXbu3DnhaymtjOK8xYX7LX8tBT8im6/BWl4CawsJltY4eLY8iO41RRiI4f3sL8qR/g/7YQ3LhPv3PoTWeJIhnQeQ++M2GBMK0P6pzRjgQ0Pwwlx3Aan/9h0YPvb36FgagOnAXqT97CxMm9bCy6NAdw8gLC4LQ9vuQfOadPBTd7OeiQtwLm8mfy2lhfX29i7Ir6W4MYEbFRjhXABPZ6yCJCQkbg80ccWF6EIzvm+z2Sz8iuZ8ZiMWAkd8j/y5LHPBAmEug0WpvrLy/ioukfCnL0XvrqfR/NhDGBguh726CtGt2ng5HKf+HPyHzByDYHgvwrztsEyu9w/7KNyHCFcmAtEmjIhRn0kQjQQR7nbBMOBCmDkD3sUr0UnC5v2MRH63K2lzAVxx0vSL7HMjIXEXoTUnc81roRgXpiaTCenp6bO6wqQVFtwCMF854uePOcjIyBCczEVM1RKuiZxbKvD52CEPDIEgDNygarRiLG4lutcmYzTMg8ieG8xoy9fgyIEnZwgjaIajnASLugsIwNDTDEt1Hey+XPhtERgWet6GYPIqdH3+L1H9Z3+Jyr98Do27lyAkoXT3cDMmcWNIcSMhcRegd0b8mooL/IViXJjy4FpzoZVA42m+csSvBbnpfq5jssDRF/o3baMjGLt2GjGNbXC4OSxAyrYD0RX1CBsOQ8Bu0x2vaCFtRVnEoG/FcgwFA4h5eS9iKdAg9pHYOX0Uqb8pAZ6+Hy6HFUMcrlwqQYtzok2FqY6bbBpk94eJkCMU6yD73MwfMB+zqc+N9mzwawF+NviatH4D8xlaHxa73S7uVWsV4b4Rswn8TDBH3HeB8y+3cvAzwxzNxj5C7wd8f9w/hV9JaVxo/MwFcP7Vj1Cs9bfR/CvfBz9XfE83h1HAW4a0Xx1F3IVGmIxjFNcIImLXonnnPehckY0hK7fHcDffCmT840FYwzIw8Kmn0ap1ZRnqQ+S1C4gtPo3s8g719dIQRlOWwrvyIbSty4TXacKooQ5xr55A8p4eDH7ti2ih3wfeR8OZ5rv4+dR8it44TI5QLKdfuA63U9xwk29iYqJo/pW4+2DutAJqNoob7nfCwnc29z+5HeD75vygDZM/l8QNXzNzNF/6HrL/5rTXczFfxI3m929N3DB6YD93GdbGLoicGBYOpK1ET34KvLH66dH5uCaYwmwILMmHR/9IDHYhsuUaki61qQEktFLyMVi0Av2xagAGYKlpRVQDpffG1eL3I+/jvYnmu5hHzafohQ0vpbiR4uY63C5xw5nN6XSKrxEkZhbs/NgJMvi5kOLm7oLvW4qb2YH5LG44j2nihrmbC/ggfojvkX2J5le0JVt/f78UNwTZ5+Y2gwur5ORkJCUlicwnbWZNq9Ux7raokZCQuHvg/M0ih5fz3fRgH6eZxDikuLnNyMzMFJ32uGYkbWZsssDh2p2EhMT8xORCX7892Vj8zBab6vpuxRiThY0UOOOQXv82gQtVbgLkwpQfXG7ylTYzNtmJaGESEh8I7mYMnP4uvvTHn8MnP/lJPP/PP8WvSm5hyH6JOwou8Cfn/ck2WSDMVdOgFzdS4EyEFDe3EfzQae98pc0e434GbPzOXu8YJCRuHv3obq7H0Ze6kLR6M7bsXoE0fxda9p/EeRcQkNp5RqEv+BeKaYJG63ekmYQCKW5uE/hh48JT2uy12d1x0o/AYBMu73kX+998E2++eQBHi6+gaRAYlXps5uFtQ1trE/a2Z2LnYx/Gcx9/Fg8tjUFM/yUcrxvE0LAk6W5DX5BrBf58ap25kWnQBI0mcCTGIcWNhMSMYwRBXzs6qg/gze/8CD/97vfx/f/6IX72y3ex93IvXCOjdITETGK0qwP9A124umEp0iMjYEMqsosSkbN8FOcvdyIQlAzNBLhA1wr8+fbq6UbG0ASNbLmZGlLcSEjMODxov3wah374MoKf/Xd89Xv/g//510/gQ3luvPC3L+Cc1w+3eqTEzMDjGUDAO4C8lESYDIrbtNociLQ6UNPWieFhKW5mElzgLyRxowkZFjaTxQ2bBIkb/h5+OpsL49pISMx5eFrR0zuMK+GPYsdKO1LjIhGZtRQ5y9KxK+EYLl8JYkCqmxkFlSdi+PxwXcGhFCJhGOUCRwmSuEuYXIBzgb/QWm44DfStN2wLHTzej6Zfwnmm3ulsvgw7LiExq+HuxYBvCPXxi5DjMCKKZ2SITEB0fDyKUvvg9Y5CNgxISEwNLuz1oma+Qrs/7R41QaMZi5zJom+hgWcG0PRLuDY9+FTGB0hISNxZBNwD8Pm9GE1OgM0QBmW2qUiYLdGIT3LAS8JHvvaYWfDgnAZTBPo9g6KlhhEMBDAy7IfTFkWFi3wVMJPgAl8TOAsB+tYaHn5EEzYLXeBwg4ymX+ZcO1Zvby9aW1vR1NQUMp4aYqr5RHzDURgIOG/avEG7+ksJibsH/5APo8EA4h32CY7JZIpElC0WA24PgnNkiPz5Cgv3rzHb0FnfDC8JzRH40dfTB3e3D0UZ3A9HmeJD4s5jcuGtCZubFTd6ETBb7GYw1e+0QUq1JYdJKJhT4oYf3BdffBFf//rX8cUvfjFk//Iv/4KKigr1qHFc6V2BA42P4WDTzdhv4WzHPeovJSTuHmyOaBjNVtS1d5GDHnfOQ0Nu9HU1IiUxHmb5inhmYbPDOmpE1rHzqBryw4U6VF9sx5UzEVi7PBGREVLczBS4XNCb1qIxnU0WCLPBprrOmzV9y43EOOaUuGHynnjiCXzlK1/B//7f/ztkn//858WEWZMxOhaOkTEDGS/fy/g46aAk7j7ILQE+P4JtHeik2qcypaQHQ4PD6OnMRFK8gcSNCJSYKdjykL96Lf7gmX786utfwh9/8m/w66YxxH7st7EzOQxm6TruKvSFOQsardVmqsJ/Ppp2/1OFSSiYc6+lUlJSUFhYiCVLloQsNzcXdrt8pSQxRxGbjsR4G9Z4D+NcfQB9/Ia1tw5tbW04PrwceYlGWOf35OGzH4YoWFPysGT3g3jigQfwyANP4MHd92LL2jTEEzcGWabMGLQWm8mF/a2YJgzmmk11DxIK5LdjEhIzDUc60nNzsDOrD+Xvvos9r7+BN147idJrfpjXb0Ke0wSr0stYYiYR6YQ5ewue/NDH8Nxzz+HhbStRFKfuk5gxaC03bAxt/VZME0h326a6lps1/j1DL3AkxjGrUmNkaACu7lY0Njaq1o0+jx9Bdb+ExPxEFOIylmDdA/fDXPYy9r7wQ/zw9RrU+3Pwid9eixSzESb1SAkJiXFwAc9Tq/CcfpOnW5kLxlPCTBV+M8a/ZZGjteDIlpuJmFXixlN1APt+8nd4/vnnyb5E9iP85nQt2tX9EhLzFuZkOJd8BH/xgx/jBy+8gBde+Dt84/ldWEK7ZKONhMTU4MKdB2wbGBjA4ODgnDT+0vf9Gk8MPDIyIgXOFJhd4sbVicikbNz/Ge4o/Ldkz+KRtVlIVPdLSMxfkFMKN8IUGSnGaoiMjECEySDfG0tITAMWBpWVlSFx43a755XxPd2scUsOt2JJYTOOsMbGxmkHBmBV7Pf7xTqPJXOnp2NoOPQTXHOHI7j6d/BQhhp4i2CCubmur68Pr5xZhHN1HNHNDeyUkxzAP3y6lRTxoFDD2jtNCYkPAs5HPCw4Oyyv1yvyFA8Kt2PHDrGcz+D75kKIP1c1Go0iX/H982uE2QTO63ytXFDw9XItOCEhAenp6eK65wM43flZ1HPBtf/ZPVv+OLgA/+Uvf4ndu3cjIyMDLS0tQthIKOA8xc8vl9Xt7e149tlnxTM8n1FTU4Pi4mKx/swzz4ivpqOiosT2LBI3flS/+0tcrO9CZ+o6FNkAW+YK5KY4EX8LvSmluJGYbZDiZm6JG153OBxISkpS984faK8vmA/mgl9rzDVxs3z5cvF1LA/mKjERnLf6+/uluCHMInHTh6t7f4PjJ0pQ2s293gOwLX0Ov3X/aqwvjIFZbZ/nEYq5tsEZUwMXENHR0bBYLFOIm3T1qPeGFDcSdwKTxQ0/nzw8+Pr168VcKPMZLGy4AJ0r4oavlX1JbGysumf+QRM4c1XcMLQCTOJ6cN7iFi0pbmaNuBnDGGW2ETrn6NggbV/FK39+CNi6E0sfWI/lDsUBfec738G5c+eEeNGQl5eHj370o1i3bt0kcVOkttzcHKS4kbgTmCxuWNjw2ExcwMx3cB7iwnSuiBsWNewc51vfhal82VwVN9wyIXFj8PO74MVNWVnZtCU4O19t8szbIm6G3RjrP49f/+QornS44EESEjLW4PE/vg9ZtHt8mk5uuRlEyQ++idKobUhbswuPFFnFHh7YjJ2QPkPyNTKJNpstJG44A7C4OVs7WdxML1hyU4L4v5/tovjHO2hJSHxQ6MUNCxsuQBfSpLSaUNDEDQub2SZu+Br5+rgVeL6LTs2v8ZKF5lwRN3y9XV1dc+Z6ZxL8PMfHx8/7luHJ4iYtLU1UpBhhlZWV05bgnECaY7ot4mbUD/haUHamBp1uH/yww+ZMx7J7C8CNwBN71oyh8sXncS5iJxKWPoiHCm6ubwJnAHag/O78pdOFOFOTpu7RML1gyUsdxr/+YS9c/X3C+UpxI3E7oIkbLji5rwC/Pl0ImJx/tFchXKBy5WG2Yb4XBFOB+eDnU0JiLmKyuMnOzg71Y5xVX0uFMEq1uqEOHPjBv6M962Hkrr8Pm1PUfe8Bdqh83fyu/1iFE6erU9Darw0jOr1YSY0bxj3Lh/DxXYPo6+uVLTcStw38HHFtkzupzvcOxHpMlX80nzIbxY2EhMTcwo1eS82i9lc/vL2d6OCRieur0Fh5EBebUzFmiEPsLUwbxS1N3CzFhcia7BasymhU99xYqKzIG8EnHvAhEFA+l5TCRuJ2gVssWNjws8mF+kIxFnR64zBuKZCQkJC405hFLTdXcOS/XsK+/WWoFMJiDOt+9x/x2KZ8LE0M53mTbwnau/1jl+Px4sk8NXR6fOR+E/7i46NiUCj+Hd+7hISEhISExOzEHPlaahCutm7093tpTYE9KQexdjOi3sercO31lMtrQGd/BAJUa3zhRD46XRP7O/zxky4sL3TQecZgHG0Xn5pLYSMhISEhITG7MUfEze2H9mqJl2wXGhIxGDDDYFAGsQon27LYi3hnuGit4fvjpnMJCQkJCQmJ2Y050ufm9kP72ov7PHAfnI1FA9i1qoesF7tX9+EBMrNxULTW8Lg4UthISEhISEjMfcz/UcRUcB8c7tTILVE8wjGPOcJj4fAn4zyQlezoKCEhISEhMT+wYMQNQ3s9xa/bNJOQkJCQkJCYX1hQ4kZCQkJCQkJi/kOKGwkJCQkJCYl5BSluJCQkJCQkJOYVpLiRkJCQkJCQmFeQ4kZCQkJCQkJiXiG8p6cH09lcG7RPQkJCQkJCYmHC4/GE9Eu42WzGdBYZGan+REJCQkJCQkJi9sJkMoX0S7jVasV0xgdISEhISEhISMx2cIOMpl9knxsJCQkJCQmJeQUpbiQkJCQkJCTmFaS4kZCQkJCQkJhXkOJGQkJCQkJCYl5BihsJCQkJCQmJeQUpbiQkJCQkJCTmFaS4kZCQkJCQkJhXkOJGQkJCQkJCYl5BihsJCQkJCQmJeYWwxsbGMXX9OoyOjmJoaAhVVVVob2+Hz+dT90hISEhISEhIzBw6OztRW1sr1p955hkUFRUhKiqKtoD/P0PY1IF+7UXEAAAAAElFTkSuQmCC;" vertex="1" parent="1">
          <mxGeometry x="80" y="200" width="716.43" height="350" as="geometry" />
        </mxCell>
        <mxCell id="Ob4h8jc2TSaWr1J6BAKR-2" value="" style="rounded=0;whiteSpace=wrap;html=1;fillColor=none;strokeWidth=4;strokeColor=#FFFFFF;" vertex="1" parent="1">
          <mxGeometry x="110" y="345" width="60" height="185" as="geometry" />
        </mxCell>
        <mxCell id="Ob4h8jc2TSaWr1J6BAKR-4" value="&lt;font style=&quot;font-size: 10px;&quot; color=&quot;#fcfcfc&quot;&gt;1&lt;/font&gt;" style="text;html=1;align=center;verticalAlign=middle;resizable=0;points=[];autosize=1;strokeColor=none;fillColor=none;strokeWidth=0;perimeterSpacing=0;" vertex="1" parent="1">
          <mxGeometry x="125" y="315" width="30" height="30" as="geometry" />
        </mxCell>
        <mxCell id="Ob4h8jc2TSaWr1J6BAKR-6" value="" style="rounded=0;whiteSpace=wrap;html=1;fillColor=none;strokeWidth=4;strokeColor=#FFFFFF;" vertex="1" parent="1">
          <mxGeometry x="170" y="370" width="170" height="120" as="geometry" />
        </mxCell>
        <mxCell id="Ob4h8jc2TSaWr1J6BAKR-7" value="&lt;font style=&quot;font-size: 10px;&quot; color=&quot;#fcfcfc&quot;&gt;2&lt;/font&gt;" style="text;html=1;align=center;verticalAlign=middle;resizable=0;points=[];autosize=1;strokeColor=none;fillColor=none;strokeWidth=0;perimeterSpacing=0;" vertex="1" parent="1">
          <mxGeometry x="240" y="345" width="30" height="30" as="geometry" />
        </mxCell>
        <mxCell id="Ob4h8jc2TSaWr1J6BAKR-8" value="" style="rounded=0;whiteSpace=wrap;html=1;fillColor=none;strokeWidth=4;strokeColor=#FFFFFF;" vertex="1" parent="1">
          <mxGeometry x="350" y="330" width="100" height="90" as="geometry" />
        </mxCell>
        <mxCell id="Ob4h8jc2TSaWr1J6BAKR-9" value="" style="rounded=0;whiteSpace=wrap;html=1;fillColor=none;strokeWidth=4;strokeColor=#FFFFFF;" vertex="1" parent="1">
          <mxGeometry x="460" y="330" width="150" height="90" as="geometry" />
        </mxCell>
        <mxCell id="Ob4h8jc2TSaWr1J6BAKR-10" value="" style="rounded=0;whiteSpace=wrap;html=1;fillColor=none;strokeWidth=4;strokeColor=#FFFFFF;" vertex="1" parent="1">
          <mxGeometry x="350" y="420" width="100" height="100" as="geometry" />
        </mxCell>
        <mxCell id="Ob4h8jc2TSaWr1J6BAKR-11" value="" style="rounded=0;whiteSpace=wrap;html=1;fillColor=none;strokeWidth=4;strokeColor=#FFFFFF;" vertex="1" parent="1">
          <mxGeometry x="460" y="420" width="130" height="100" as="geometry" />
        </mxCell>
        <mxCell id="Ob4h8jc2TSaWr1J6BAKR-12" value="&lt;font style=&quot;font-size: 10px;&quot; color=&quot;#fcfcfc&quot;&gt;2&lt;/font&gt;" style="text;html=1;align=center;verticalAlign=middle;resizable=0;points=[];autosize=1;strokeColor=none;fillColor=none;strokeWidth=0;perimeterSpacing=0;" vertex="1" parent="1">
          <mxGeometry x="315" y="270" width="30" height="30" as="geometry" />
        </mxCell>
        <mxCell id="Ob4h8jc2TSaWr1J6BAKR-13" value="&lt;font style=&quot;font-size: 10px;&quot; color=&quot;#fcfcfc&quot;&gt;3&lt;/font&gt;" style="text;html=1;align=center;verticalAlign=middle;resizable=0;points=[];autosize=1;strokeColor=none;fillColor=none;strokeWidth=0;perimeterSpacing=0;" vertex="1" parent="1">
          <mxGeometry x="384" y="300" width="30" height="30" as="geometry" />
        </mxCell>
        <mxCell id="Ob4h8jc2TSaWr1J6BAKR-14" value="&lt;font style=&quot;font-size: 10px;&quot; color=&quot;#fcfcfc&quot;&gt;5&lt;/font&gt;" style="text;html=1;align=center;verticalAlign=middle;resizable=0;points=[];autosize=1;strokeColor=none;fillColor=none;strokeWidth=0;perimeterSpacing=0;" vertex="1" parent="1">
          <mxGeometry x="530" y="300" width="30" height="30" as="geometry" />
        </mxCell>
        <mxCell id="Ob4h8jc2TSaWr1J6BAKR-15" value="&lt;font style=&quot;font-size: 10px;&quot; color=&quot;#fcfcfc&quot;&gt;4&lt;/font&gt;" style="text;html=1;align=center;verticalAlign=middle;resizable=0;points=[];autosize=1;strokeColor=none;fillColor=none;strokeWidth=0;perimeterSpacing=0;" vertex="1" parent="1">
          <mxGeometry x="384" y="520" width="30" height="30" as="geometry" />
        </mxCell>
        <mxCell id="Ob4h8jc2TSaWr1J6BAKR-16" value="&lt;font style=&quot;font-size: 10px;&quot; color=&quot;#fcfcfc&quot;&gt;7&lt;/font&gt;" style="text;html=1;align=center;verticalAlign=middle;resizable=0;points=[];autosize=1;strokeColor=none;fillColor=none;strokeWidth=0;perimeterSpacing=0;" vertex="1" parent="1">
          <mxGeometry x="510" y="520" width="30" height="30" as="geometry" />
        </mxCell>
        <mxCell id="Ob4h8jc2TSaWr1J6BAKR-17" value="" style="rounded=0;whiteSpace=wrap;html=1;fillColor=none;strokeWidth=4;strokeColor=#FFFFFF;" vertex="1" parent="1">
          <mxGeometry x="610" y="330" width="110" height="90" as="geometry" />
        </mxCell>
        <mxCell id="Ob4h8jc2TSaWr1J6BAKR-18" value="&lt;font style=&quot;font-size: 10px;&quot; color=&quot;#fcfcfc&quot;&gt;6&lt;/font&gt;" style="text;html=1;align=center;verticalAlign=middle;resizable=0;points=[];autosize=1;strokeColor=none;fillColor=none;strokeWidth=0;perimeterSpacing=0;" vertex="1" parent="1">
          <mxGeometry x="650" y="300" width="30" height="30" as="geometry" />
        </mxCell>
      </root>
    </mxGraphModel>
  </diagram>
</mxfile>
